<?xml version="1.0" encoding="utf-8"?>
<!-- Generator: Adobe Illustrator 25.4.1, SVG Export Plug-In . SVG Version: 6.00 Build 0)  -->
<svg version="1.0" id="Layer_1" xmlns="http://www.w3.org/2000/svg" xmlns:xlink="http://www.w3.org/1999/xlink" x="0px" y="0px"
	 viewBox="0 0 400 400" style="enable-background:new 0 0 400 400;" xml:space="preserve">
<style type="text/css">
	.st0{clip-path:url(#SVGID_00000109714094398669245950000009807620383144008349_);}
	.st1{fill:#85888A;}
	.st2{fill:#2E66FF;}
	.st3{fill:#CCCCCC;}
	.st4{fill:#FFFFFF;}
</style>
<g>
	<defs>
		<rect id="SVGID_1_" x="11.8" y="-0.1" width="376.4" height="400"/>
	</defs>
	<clipPath id="SVGID_00000018229077839173436030000014640293512813876643_">
		<use xlink:href="#SVGID_1_"  style="overflow:visible;"/>
	</clipPath>
	<g style="clip-path:url(#SVGID_00000018229077839173436030000014640293512813876643_);">
		<path class="st1" d="M327.7,191.8c-0.5-0.3-1-0.6-1.4-1l-0.4-0.4l0,0c0-0.7,0.1-1.4,0.1-2c1-19,0.4-39.6,1.5-58.5
			c0.5-5.1,0.4-10.3,0-15.4c-0.9-7-3.5-13.8-4.4-20.8c-0.5-6-0.4-12.1,0.4-18.1c0.6-6.7,1.3-13.5,1.9-20.2c0.4-4.2,0.6-8.9-2.1-12.1
			c-5.7-1.5-10.8-3.4-16.5-4.9c-0.4-1.7,0.4-3.7,0.1-5.3c0.8,0,1.7-0.2,2.4-0.7c0.7-0.5,1.2-1.1,1.6-1.9c0.6-1.6,0.7-3.3,0.3-4.9
			c-0.3-2.1-1.1-4.1-2.2-5.9c0.2-1.6,0.1-3.1-0.4-4.7c-0.5-1.5-1.2-2.9-2.3-4.1c-2.2-2.3-5.2-2.5-8.3-1.9c-0.5,0.1-1.1,0.3-1.6,0.5
			c0.5-1,0.7-2.2,0.6-3.3s-0.5-2.3-1.1-3.2c-0.8-1.1-1.9-2-3.1-2.5c-1.3-0.5-2.7-0.6-4-0.3c-1.5,0.4-2.8,1.2-3.8,2.4
			c-1.3,1.4-1.9,3.3-1.8,5.1c0.2,1.4,0.8,2.7,1.8,3.8c1,1,2.2,1.8,3.6,2c1.5,0.3,3.1,0.1,4.5-0.6c-0.4,0.7-0.7,1.5-0.9,2.3
			c-0.5,3-0.4,6,0.2,9l2,12.7c-11.7-2.4-24.8,2-36.1,6.1c-8.5,2.8-16.8,6.3-24.8,10.3c-1.9,0.9-3.6,2.2-4.9,3.9
			c-0.4,0.6-0.6,1.3-0.7,1.9c-0.1,0.7-0.1,1.4,0.1,2.1c0.2,0.7,0.6,1.3,1.1,1.8c0.9,0.6,2,1.1,3.1,1.2c8.7,1.7,17.6,2.5,26.4,2.2
			c0.3,0.5,0.7,0.9,1.2,1.2c0.5,0.3,1.1,0.4,1.7,0.4c0.6,0,1.1-0.2,1.6-0.4c7.5,8.2,15.1,16,22.5,24.1l0,0.2c0,0.5,0,1-0.1,1.4
			c-1.1,21.7-2.7,43.2-3.7,64.9c-0.2,4.9-0.4,10.1,1.7,14.6c2.4,5.3,7.6,8.7,12.5,11.8l18.9,12.1c0,0.1,0,0.2,0.1,0.3v0l0,0.1
			c0.1,0.7,0.2,1.4,0.4,2.1c1.3,7.5,1.9,15.2,2.6,22.8c0.1,1.6-2.3,2-3.9,2.3l-8.2,1.9c-1.3,0.2-2.5,0.6-3.6,1.3
			c-0.5,0.3-0.8,0.6-1.2,1.1c-0.3,0.4-0.5,0.9-0.7,1.4l0.4-0.1l0.7-0.1l-0.7,0.1c7.6-0.1,2.7,0.3,10.4,0.1l0.2,0.1
			c2,0,3.9,0,3.3-0.2c3.9,0,8.1,0.1,12,0.1c-0.1-7.9-0.5-17.1-0.6-25.1c0-0.6,0-1.3,0-1.9c0-0.1,0-0.2,0-0.3
			c3.4,1.9,6.4,3.7,9.8,5.6c1.3,0.7,2.7,1.6,2.9,3.1c0,0.5-0.1,1.1-0.2,1.6c-1.3,4.1-3.8,7.7-5.3,11.8c-0.5,1.1-0.7,2.2-0.7,3.3
			c0,0.7,0.3,1.4,0.7,2l2.7,0c4.4,0-1.7-0.1,0.5-0.2c0.7,0,1.3,0,1.8-0.1c0.6-0.7,1.2-1.4,1.6-2.2c4-6.5,6.8-13.6,8.1-21.1
			C340.9,202.2,334.1,197.2,327.7,191.8z M272.1,65.3c-0.6-0.3-1.1-0.7-1.5-1.2c-0.4-0.7-0.6-1.5-0.7-2.4c-0.2-0.8-0.5-1.6-0.9-2.3
			c-0.5-0.7-1.1-1.3-1.8-1.7c-0.7-0.4-1.6-0.6-2.4-0.5c-0.8,0.1-1.6,0.4-2.3,1c-1.8-0.4-5.1-0.5-7.3-0.9c-0.1,0-0.1,0-0.2,0
			c-0.4-0.1-0.7-0.2-1.1-0.4c-0.1,0-0.1,0-0.2-0.1l3.3-0.8c5.3-1.3,12.8-3.1,17.5-4c0.5-0.1,1.1-0.2,1.5-0.3l0.1,0
			c-0.8,2.8-1,5.7-0.5,8.5c0.4,2.8,1.5,5.6,3.1,8c0.4,0.5,0.8,1.1,1.2,1.5c-2-1.2-3.9-2.1-5.9-3.1C273.5,66.1,272.8,65.7,272.1,65.3
			z M310.1,175.8c-0.5-0.2-1-0.6-1.3-1.1c0,0,0,0-0.1-0.1c-2.9-2.5-5.9-5-8.6-7.5c1-7.1,2.1-14.3,3.5-21.4c0.3-1.3,0.5-2.6,0.8-3.8
			c0.1-0.3,0.1-0.6,0.2-0.9c1.8,11.8,4.9,22.3,6.8,34v0l0,0.1c0.1,0.8,0.3,1.6,0.4,2.4c-0.3-0.3-0.6-0.6-0.9-0.8
			C310.7,176.4,310.4,176.1,310.1,175.8L310.1,175.8z"/>
		<path class="st2" d="M388,235.9c0-0.7,0-1.5,0-2.3c0-1.1,0.1-2.2,0.1-3.4h-0.5c-0.6,0-1.2,0-1.9,0.1l-1.9,0c-0.9,0-1.9,0-2.8,0
			c-1.9,0-3.7,0-4.6,0.1c-0.3-0.1-11.1,0-4.9-0.2c0.5,0,0.9,0,1.4,0l0.7-0.1c-6.3-0.2-11.4,0.1-17.6,0.1c1.8,0,4.3,0,2.7,0.1l-5.8,0
			l1.2-0.1l-8.6-0.1l1.2,0.1c-3.6-0.1-5.2-0.2-8.6-0.2c-0.6,0-1.2,0-1.8,0.1c-2.2,0.1,4,0.2-0.5,0.2l-2.7,0l-6.5-0.1
			c-4-0.1-8.2-0.1-12-0.1c0.7,0.1-1.3,0.1-3.3,0.2l-0.2-0.1c-7.6,0.2-2.8-0.3-10.4-0.1l-0.4,0.1l-0.9,0.1c-6.8,0.2-3.7-0.2-11.3,0.1
			c3,0,1.4,0.3-2.3,0.2l0.9-0.1c-2,0-2.7,0.1-4.1,0.1c1.2-0.1,0.6-0.2-2.4-0.2l2-0.1l-5.7,0.2c-1.2,0-2.7,0-4.2-0.1h-5.9v1.5l0,1.1
			c0,0.4,0,0.7-0.1,1.1c-0.1,2.3,0,4.6,0.2,6.9c-0.2-1.1-0.3,2-0.5,1.1c0.3,2.5,0.3,5,0.2,7.5l0-0.3c-0.2,6.4,0.3,10.9,0.1,16.6
			c0.2-0.3,0.1,2.8,0.4,2c0.3,5.9-0.6,10.8,0.3,12.9c0,1.5-0.1,3.1-0.3,4.6l-0.1-0.6c0.1,5,0.1,6.5,0.1,10.2
			c0.3,1.8,0.4,3.7,0.4,5.5c-0.2-1.1-0.1,0.3-0.1,1.5c0-0.8-0.1-1-0.2,0.6c0.1,0.3,0.1,0.6,0.1,0.9c0,0,0,0.1,0,0
			c0.1,2.1,0.1,1.7,0.1,0.8c0,0,0.1,0,0.1-0.3c-0.2,2.2,0,6-0.3,6.3c0.1,6.3,0.4,10.8,0.5,16c-0.2,0.6-0.3-0.6-0.3-2.1l0.1,3.7
			c-0.2-1.1-0.2-2.2-0.2-3.3c-0.3,4.4,0.4,9.1,0.1,14.3l0.2,1.1l0,0.3c0.2,0.6,0.3,1.3,0.2,1.9c-0.2,0.7-0.4-0.1-0.4,2.5
			c-0.2,2,0.1,5.8,0.2,8.4c0-1.4,0.1-1,0.2-0.3c0,1.3-0.2,2-0.1,3l-0.2,0.1c0.2,0.2,0.2,3.4,0.3,3.8c-0.2,0.7-0.2-2-0.3-2.3
			c0,5.1,0,2.6,0,7.7c0.2,2.7,0.2-0.5,0.5,0.8c0.1,2.4,0.2,4.8,0.1,7.6l0.2-0.9c0.2,3.4,0.2,6.9-0.1,10.3c0.2,2.9,0.3,5.3,0.5,7.4
			c0,3,0,5.9,0,8.9h0.9c-0.6,0.2-0.4,0.3,0.1,0.5c0.2,0.6,0.3,0.5,0.4,0.1c0.9,0.1,2,0.2,2,0.2c3.5,0.1,7,0,10.4-0.3
			c4,0,5.1,0.3,9.3,0.2c2,0,4.1-0.1,6.1-0.1c0.9-0.2,2.6,0,3.7-0.2l0.4,0.1c0.4-0.1,0.8-0.1,1.2,0l0,0c0.6-0.1,1.2,0,1.5-0.1l0,0
			l0.7,0l-0.1,0c1-0.1,1.9-0.1,2.9-0.1l-0.1-0.1c1.9,0.1,2.6-0.2,4.3,0l0,0c2.2-0.4,3.4,0.2,5.7-0.1c-0.3,0,0.1,0.1,0.1,0.1
			c0.7,0,1.3-0.1,2-0.2h0.9c0,0,0,0,0,0c0,0,0,0,0,0h5.9c0.2,0,0.4,0.1,0.6,0.1c1.6,0,3.3,0,4.9-0.1h10.1l0.1,0.1
			c0,0.1,0.4,0,0.7-0.1h42.8c0.1,0.2,0.1,0.2,0.2,0h1.4v-12.7c0.1-1.3,0.2-2.6,0.3-4.1l0.1,0.3c0.2-5.2,0.2-10.4-0.2-15.6
			c0.5-0.7,0-5.5,0.2-7.1l0,0.1c-0.4-4.1,0.3-8.4,0-12.4c0.1,0.4,0.2,0.8,0.2,1.1c-0.2-2.3-0.1-4.7,0.1-7
			c-0.1-6.9,0.1-16.4-0.4-20.8l0.1,0.3c-0.3-2.5,0-3.2-0.2-6c0-0.2,0.1-0.3,0.1-0.3c-0.3-2.7,0-8-0.2-10.2l0.2-0.1l0-5.4l0,2
			c-0.5-0.7,0.3-4.1,0-8.1c0.1-3.7-1-7.5-0.8-11.3c-0.2-1.8,0.4,1.6,0.2-1.1c0.3-0.1,0.2,1.3,0.4,0.6c-0.1-2.7,0.3-4.4,0.1-7.7
			l0.2-0.1c-0.4-4.3,0.3-8.1-0.1-11c-0.2-4.5,0.6-3,0.2-7.6l0.3-1.8c0-2-0.3-1.4-0.2-3.6c0.2,0.1,0.1-2.8,0.3-1.5c0.1-2.5,0-5,0-7.7
			C388.1,238.8,388,237.4,388,235.9z"/>
		<path class="st3" d="M261.4,96.1c0.1-4.9,0-9.9,0-15.3c0-2.7-0.1-5.5-0.1-8.4c0-1.4,0-2.9,0-4.3c-0.6,0-1.2-0.1-1.7-0.4
			c-0.5-0.3-0.9-0.7-1.2-1.2c-8.9,0.2-17.7-0.5-26.4-2.2c-1.1-0.1-2.2-0.5-3.1-1.2c-0.5-0.5-0.9-1.1-1.1-1.8l-1.6,0l1.2-0.2
			l-8.6-0.1l1.2,0.2c-3.5-0.3-7-0.4-10.4-0.2c-2.1,0.2,4,0.3-0.5,0.4c-5.6-0.2-14.1-0.4-21.3-0.5c0.7,0.3-1.3,0.3-3.3,0.3l-0.2-0.2
			c-7.6,0.3-2.8-0.5-10.4-0.3l-1.3,0.3c-6.8,0.5-3.7-0.5-11.3,0.2c3,0,1.4,0.5-2.3,0.4l0.9-0.2c-2,0-2.7,0.1-4.1,0.1
			c1.2-0.1,0.6-0.3-2.4-0.3l2-0.3l-5.7,0.4c-1.2-0.1-2.7-0.1-4.2-0.1h-5.9c0,1.1,0,2.1,0,3.1l0,2.2c0,1-0.1,1.7-0.1,2.2
			c0,0-0.1,10.5,0.1,13.5c-0.2-1.4-0.2,4.1-0.4,2.4c0.2,2.9,0.4,11.5,0.2,14.9l0-0.7c-0.2,12.7,0.3,21.7,0.1,33.1
			c0.2-0.5,0.1,5.5,0.4,4c0.3,11.8-0.6,21.5,0.3,25.8c0.1,5.4-0.2,6.4-0.3,9.1l-0.1-1.3c0.1,10.1,0.1,13,0.1,20.4
			c0.1,3.7,0.5,4.3,0.4,11c-0.2-2.2-0.1,0.6-0.1,3.1c0-1.6-0.1-2.1-0.2,1.2c0.1,0.5,0.1,1.2,0.1,1.8c0,0,0,0.2,0,0.1
			c0.1,4.2,0.1,3.4,0.1,1.5c0,0.1,0.1-0.1,0.1-0.7c-0.2,4.3,0,12.1-0.3,12.6c0.1,12.5,0.4,21.5,0.5,31.9c-0.2,1.2-0.3-1.3-0.3-4.3
			l0.1,7.4c-0.2-2.2-0.2-4.4-0.2-6.5c-0.3,8.8,0.4,18.2,0.1,28.5l0.2,2.1l0,0.6c0.2,1.3,0.3,2.5,0.2,3.8c-0.2,1.5-0.4-0.1-0.4,5
			c-0.2,4,0.1,11.5,0.2,16.8c0-2.9,0.1-1.9,0.2-0.7c0,2.6-0.2,4-0.1,6l-0.2,0.2c0.2,0.3,0.2,6.8,0.3,7.7c-0.2,1.5-0.2-4-0.3-4.6
			c0,10.3,0,5.1,0,15.4c0.2,5.5,0.2-1,0.5,1.6c0.1,4.8,0.2,9.5,0.1,15.1l0.2-1.8c0.2,9.1,0.2,14.5-0.1,20.6
			c0.2,5.8,0.3,10.6,0.5,14.7c0,5.9,0,11.8,0,17.8h0.9v0c-0.6,0.4-0.4,0.7,0.1,0.9c0.2,1.1,0.3,1,0.4,0.2c0.7,0.2,1.3,0.3,2,0.4
			c3.9,0.5,5.8-0.3,10.4-0.5c3.1,0.3,6.2,0.4,9.3,0.3c2,0,4.1-0.1,6.1-0.2c0.9-0.4,2.6,0,3.7-0.4l0.4,0.2c0.4-0.1,0.8-0.2,1.2-0.1
			l0,0.1c0.5-0.1,1-0.1,1.5-0.2l0,0.1l0.7,0l-0.1,0.1c0.9-0.2,1.9-0.2,2.9-0.2l-0.1-0.3c1.9,0.3,2.6-0.3,4.3,0l0,0.1
			c2.2-0.8,3.4,0.5,5.7-0.3c-0.3,0.1,0.1,0.1,0.1,0.2c0.7,0,1.4-0.1,2-0.4h0.9c0,0,0,0,0,0.1c0,0,0,0,0-0.1h5.9
			c0.2,0.1,0.4,0.1,0.6,0.2c1.6,0,3.3-0.1,4.9-0.2h10.1l0.1,0.1c0,0.2,0.4,0.1,0.7-0.1h42.8c0.1,0.3,0.1,0.3,0.2,0h1.4v-25.3
			c0.1-2.5,0.2-5.3,0.3-8.3l0.1,0.6c0.2-13.4,0.2-21.8-0.2-31.1c0.5-1.5,0-11,0.2-14.1l0,0.3c-0.4-8.2,0.3-16.8,0-24.7
			c0.1,0.6,0.2,1.3,0.2,1.9c-0.1-5.7-0.2-13.2,0.1-13.6c-0.1-13.7,0.1-32.9-0.4-41.6l0.1,0.6c-0.3-5,0-6.5-0.2-12.1
			c0-0.2,0-0.4,0.1-0.6c-0.3-5.5,0-15.9-0.2-20.3l0.2-0.3l0-10.9l0,4.1c-0.5-1.4,0.3-8.2,0-16.1c0.1-7.4-1-15-0.8-22.6
			c-0.2-3.7,0.4,3.2,0.2-2.2c0.3-0.2,0.2,2.5,0.4,1.1c-0.1-5.4,0.3-8.8,0.1-15.4l0.2-0.3c-0.4-8.6,0.3-16.3-0.1-22
			c-0.2-8.9,0.6-6,0.2-15.2l0.3-3.6c0-4-0.3-2.8-0.2-7.2C261.3,99.3,261.2,93.5,261.4,96.1z"/>
		<path class="st3" d="M133.9,115l-0.5,0c-0.6,0-1.2,0.1-1.9,0.1l-1.9,0.1c-0.9,0-1.9,0-2.8,0.1c-1.9,0-3.7,0-4.6,0.2
			c-0.3-0.1-11.1,0-4.9-0.3c0.5,0,0.9,0,1.4,0l0.7-0.2c-6.3-0.4-11.4,0.2-17.6,0.1c1.8,0.1,4.3,0,2.7,0.2l-5.8,0l1.2-0.2l-8.6-0.1
			l1.2,0.2c-3.5-0.3-7-0.3-10.4-0.2c-2.1,0.2,4,0.3-0.5,0.3c-5.6-0.1-14.1-0.3-21.3-0.4c0.7,0.2-1.3,0.2-3.3,0.3l-0.2-0.2
			c-7.6,0.3-2.8-0.4-10.4-0.2l-1.3,0.3c-6.8,0.4-3.7-0.4-11.3,0.1c3,0,1.4,0.4-2.3,0.4l0.9-0.2c-2,0-2.7,0.1-4.1,0.1
			c1.2-0.1,0.6-0.3-2.4-0.3l2-0.2l-5.7,0.4c-1.2-0.1-2.7-0.1-4.2-0.1h-5.9c0,0.9,0,1.8,0,2.6l0,1.8c0,0.6,0,1.2-0.1,1.8
			c0,0-0.1,8.8,0.1,11.4c-0.2-1.1-0.2,3.5-0.5,2.1c0.3,4.2,0.3,8.4,0.2,12.5l0-0.5c-0.2,10.7,0.3,18.3,0.1,27.9
			c0.2-0.4,0.1,4.6,0.4,3.4c0.3,9.9-0.6,18.1,0.3,21.7c0.1,4.5-0.2,5.3-0.3,7.7l-0.1-1.1c0.1,8.5,0.1,10.9,0.1,17.2
			c0.3,3.1,0.4,6.2,0.4,9.2c-0.2-1.8-0.1,0.5-0.1,2.6c0-1.3-0.1-1.8-0.2,1c0.1,0.4,0.1,1,0.1,1.5c0,0,0,0.1,0,0.1
			c0.1,3.5,0.1,2.9,0.1,1.3c0,0.1,0.1-0.1,0.1-0.6c-0.2,3.6,0,10.1-0.3,10.6c0.1,10.5,0.4,18.1,0.5,26.9c-0.2,1-0.3-1.1-0.3-3.6
			l0.1,6.2c-0.2-1.8-0.2-3.7-0.2-5.5c-0.3,7.4,0.4,15.3,0.1,24l0.2,1.8l0,0.5c0.2,1.1,0.3,2.1,0.2,3.2c-0.2,1.2-0.4-0.1-0.4,4.2
			c-0.2,3.4,0.1,9.7,0.2,14.1c0-2.4,0.1-1.6,0.2-0.6c0,2.2-0.2,3.4-0.1,5l-0.2,0.2c0.2,0.3,0.2,5.7,0.3,6.5
			c-0.2,1.2-0.2-3.3-0.3-3.9c0,8.6,0,4.3,0,12.9c0.2,4.6,0.2-0.8,0.5,1.4c0.1,4.1,0.2,8,0.1,12.7l0.2-1.5c0.2,7.6,0.2,12.2-0.1,17.3
			c0.2,4.8,0.3,8.9,0.5,12.4c0,5,0,9.9,0,14.9H15v0c-0.6,0.3-0.4,0.6,0.1,0.8c0.2,0.9,0.3,0.9,0.4,0.1c0.7,0.2,1.3,0.3,2,0.3
			c3.9,0.5,5.8-0.2,10.4-0.5c4,0.1,5.1,0.5,9.3,0.3c2,0,4.1-0.1,6.1-0.2c0.9-0.3,2.6,0,3.7-0.3l0.4,0.2c0.4-0.1,0.8-0.2,1.2-0.1
			l0,0.1c0.5-0.1,1-0.1,1.5-0.2l0,0.1l0.7,0l-0.1,0.1c1-0.2,1.9-0.2,2.9-0.1l-0.1-0.2c1.9,0.2,2.6-0.3,4.3,0l0,0.1
			c2.2-0.7,3.4,0.4,5.7-0.2c-0.3,0.1,0.1,0.1,0.1,0.2c0.7,0,1.3-0.1,2-0.3h0.9c0,0,0,0,0,0.1c0,0,0,0,0-0.1h5.9
			c0.2,0.1,0.4,0.1,0.6,0.1c1.6,0,3.3-0.1,4.9-0.1h10.1l0.1,0.1c0,0.2,0.4,0,0.7-0.1h42.8c0.1,0.3,0.1,0.3,0.2,0h1.4v-21.3
			c0.1-2.1,0.2-4.4,0.3-7l0.1,0.5c0.2-11.3,0.2-18.4-0.2-26.1c0.5-1.2,0-9.3,0.2-11.9l0,0.3c-0.4-6.9,0.3-14.2,0-20.8
			c0.2,0.6,0.2,1.3,0.2,1.9c-0.2-3.9-0.1-7.9,0.1-11.8c-0.1-11.5,0.1-27.6-0.4-35l0.1,0.5c-0.3-4.2,0-5.5-0.2-10.2
			c0-0.2,0-0.4,0.1-0.5c-0.3-4.6,0-13.4-0.2-17.1l0.2-0.2l0-9.1l0,3.4c-0.5-1.2,0.3-6.9,0-13.5c0.1-6.2-1-12.6-0.8-19
			c-0.2-3.1,0.4,2.7,0.2-1.9c0.3-0.1,0.2,2.1,0.4,1c-0.1-4.5,0.3-7.4,0.1-12.9l0.2-0.2c-0.4-7.2,0.3-13.7-0.1-18.5
			c-0.2-7.5,0.6-5,0.2-12.8l0.3-3c0-3.3-0.3-2.4-0.2-6.1c0.2,0.2,0.1-4.7,0.3-2.5c0.1-4.1,0-8.3,0-12.9c0-2.3-0.1-4.6-0.1-7.1
			c0-1.2,0-2.5,0-3.8C133.8,118.8,133.8,116.9,133.9,115z"/>
		<path class="st4" d="M241.8,54L241.8,54C241.9,54.1,241.9,54.1,241.8,54C241.9,54,241.9,54,241.8,54z"/>
		<path class="st4" d="M243.5,55.9L243.5,55.9L243.5,55.9z"/>
		<path class="st4" d="M256.4,55.9c0-0.2-0.2-0.1-0.3-0.1l0,0c-0.2,0.2-0.4-0.2-0.6-0.1c0,0,0-0.1,0.1-0.1c-0.1,0-0.3,0-0.3-0.1
			c-0.3,0-0.8-0.1-1,0.1l0,0c-0.1,0.1-0.2,0-0.3,0.1c0,0,0,0,0,0c-0.1,0.1-0.4,0-0.5,0v-0.1l-0.3,0l0.1,0c-0.1,0.2-0.2-0.2-0.4,0
			c-0.2-0.1-0.4,0.5-0.6,0.3c-0.1,0.1,0.1-0.2,0-0.1c0-0.1,0.1-0.1,0-0.2c-0.1,0-0.2-0.2-0.3-0.1v-0.1c-0.2,0.2-0.4-0.2-0.5,0
			c-0.2,0.1-0.1-0.3-0.3-0.1l-0.1-0.1c-0.1,0-0.1,0.2-0.2,0.1c0-0.1-0.1-0.1,0-0.2c-0.2-0.2-0.5,0.1-0.8-0.1c-0.1,0.2-0.2,0-0.3,0.2
			c0-0.1-0.3-0.1-0.1-0.2c0,0,0,0,0,0l0-0.1c-0.1-0.2-0.3,0.1-0.5,0c0,0,0.1,0,0.1,0.1l-0.2,0l0-0.1l-0.2-0.1l0,0.1
			c-0.1-0.1-0.1-0.2-0.3-0.1c-0.1,0.1,0.1,0.2,0,0.2c-0.2-0.1-0.4-0.2-0.6-0.3c0,0.1,0,0.1-0.1,0.1v-0.1c-0.2,0.1,0-0.2-0.3-0.1
			l-0.1,0.1c-0.2,0.2-0.1-0.2-0.3,0c0.1,0,0,0.2-0.1,0.2l0-0.1c-0.1,0-0.1,0.1-0.1,0c0,0,0-0.1,0-0.1l0.1-0.1l-0.2,0.2
			c-0.1-0.1-0.3,0-0.3-0.2c0,0-0.2-0.1-0.3,0c0.1-0.1-0.1-0.1,0-0.2c-0.1,0.1-0.3,0.2-0.3,0l0,0c-0.3-0.2-0.5,0.1-0.8-0.1
			c0,0.1-0.1,0-0.1,0.2c-0.3,0.1-0.5-0.4-0.6,0.1c-0.1,0-0.1-0.1-0.2-0.2l0,0c-0.2,0-0.3,0-0.5,0c-0.1,0-0.1,0.2-0.3,0.2
			c0.1-0.1,0-0.1-0.1-0.1c0,0,0.1,0,0-0.1c0,0,0,0,0,0.1c0,0,0,0,0,0c-0.1,0-0.1,0,0,0.1c0,0,0,0,0,0.1c-0.1-0.1-0.3,0-0.3-0.2
			c-0.3,0-0.5,0.1-0.8,0.1c0,0,0-0.1,0-0.1c0,0,0.1,0,0.1-0.1h-0.2c0-0.1,0.1-0.1,0.2-0.1c-0.2-0.2-0.4,0.1-0.7-0.1l-0.1,0.1l0,0
			c0,0,0,0,0,0.1c0,0,0,0-0.1,0c0-0.1,0-0.2-0.1-0.2c-0.1-0.1-0.3,0-0.4,0c0.1,0,0,0.1,0,0.1c-0.1,0-0.1-0.1-0.1-0.1l0-0.1
			c0,0.1-0.2,0.1-0.2,0.2c0-0.1,0.1-0.1,0.1-0.1l-0.4,0c-0.1,0.1,0,0.1-0.1,0.2c-0.1,0-0.2,0.1-0.3,0l0,0.1c-0.1,0-0.2,0-0.3,0
			c-0.1,0-0.2-0.1-0.2-0.1c-1.7,0.7-0.5,1.2-0.5,1.2c0.6,0.3,0.9,0,1.7,0c0.6,0.1,0.8,0.4,1.5,0.4c0.3,0,0.6,0.1,1,0.1
			c0.2-0.2,0.4,0,0.6-0.1l0.1,0.1c0.1,0,0.1-0.1,0.2,0v0c0.1-0.1,0.2,0,0.2,0v0h0.1l0,0c0.2-0.1,0.3,0,0.5,0v-0.1
			c0.3,0.2,0.4-0.1,0.7,0.1v0c0.4-0.3,0.5,0.3,0.9,0c0,0,0,0.1,0,0.1c0.2,0,0.3,0,0.4-0.2c0.1,0,0.1,0.1,0.1,0.2
			c0-0.1,0.1-0.1,0.2-0.1l0,0h0.3l0-0.2c0.1,0.1,0,0.2,0.1,0.2l0-0.2c0.2,0.1,0.3,0.3,0.5,0.5c0.8,0.2,1.7-0.1,2.4,0.2l0,0.1
			c0,0.2,0.2-0.2,0.2-0.1l0.1-0.1c0,0,0.1,0.1,0,0.1c0.1,0,0.1,0,0.1-0.1l0.1,0.1c0.3,0.1,0.6-0.1,0.9,0c0.5,0.2,1.1,0.2,1.6,0.1
			c0.1,0,0.2,0,0.2,0c-0.1,0-0.1,0-0.2-0.1l3.3-0.8c-0.1-0.1-0.2-0.1-0.4-0.1C256.6,55.8,256.5,55.8,256.4,55.9z"/>
		<path class="st4" d="M296.2,73.9L296.2,73.9C296.3,73.9,296.3,73.9,296.2,73.9z"/>
		<path class="st4" d="M294.8,78.5c0.8-0.8,1.4-1.8,1.9-2.8c0.7-0.7,1.4-1.5,2-2.2c0.4-0.5,0.8-1.1,1.1-1.6c0-0.3,0.5-0.7,0.6-1
			l0.2,0c0-0.1,0.1-0.2,0.2-0.3l0,0c0.1-0.2,0.2-0.3,0.2-0.4l0,0l0.1-0.2l0,0.1c0.1-0.3,0.3-0.5,0.5-0.8l-0.1-0.1
			c0.5-0.4,0.4-0.7,0.9-1.1l0,0c0.2-0.7,0.8-0.7,1.1-1.5c0,0.1,0.1,0,0.1,0c0.2-0.3,0.4-0.6,0.2-0.7c0.2-0.2,0.2-0.1,0.3-0.1
			c-0.1-0.1,0-0.3,0.1-0.4l0,0.1l0.3-0.4l-0.2,0c0.2-0.2,0.2,0.1,0.4-0.2l-0.1-0.1c0.3-0.3,0.6-0.3,0.9-0.6c0.9-1.3,1.9-2.6,2.9-3.8
			l0.1,0c0.2,0.1,0-0.5,0.2-0.4l0-0.2c0.1,0,0.1-0.1,0.1,0c0.1-0.1,0.1-0.2,0.1-0.3l0.2-0.1c0.5-0.4,0.6-1,1.1-1.5
			c0.8-0.7,1.4-1.6,1.9-2.6c0.5-1.1,2-1.8,2.5-3c0,0,0.1-0.1,0-0.1l0.7-0.9c0,0,3.4-4.3-0.3-1.9l0,0c-0.4,0.3-0.7,0.7-0.8,1.2
			c-0.2-0.1-0.3,0.4-0.5,0.5v0c-0.1,0.4-0.6,0.5-0.7,0.9c0,0-0.1-0.1,0-0.1c-0.1,0.2-0.3,0.5-0.4,0.5c-0.4,0.5-0.8,1-1,1.6l0,0
			c0,0.3-0.2,0.3-0.3,0.5c0,0,0,0,0,0c0,0.3-0.4,0.6-0.5,0.8l-0.1,0l-0.3,0.4l0.1-0.1c0.2,0.2-0.4,0.2-0.5,0.6
			c-0.2,0.3,0,0.9-0.3,1.1c0,0.2-0.1-0.2-0.1,0c-0.1-0.1,0-0.1-0.1-0.2c-0.1,0.2-0.4,0.2-0.5,0.5l-0.1-0.1c-0.1,0.4-0.6,0.5-0.6,0.8
			c-0.2,0.4-0.4,0-0.5,0.5l-0.2,0c-0.1,0.1,0.1,0.2-0.1,0.3c-0.1-0.1-0.2,0.2-0.2,0c-0.4,0.3-0.4,0.9-1,1.2c0.1,0.2-0.2,0.4-0.2,0.5
			c-0.1,0-0.4,0.5-0.3,0.1c0,0,0-0.1,0.1-0.1l-0.1-0.1c-0.4,0.2-0.3,0.6-0.5,0.8c0.1-0.1,0.2-0.2,0.2-0.1l-0.2,0.2l0-0.1l-0.3,0.3
			l0.1,0c-0.2,0.1-0.4,0.1-0.4,0.4c0,0.1,0.2-0.1,0.1,0.1c-0.3,0.2-0.6,0.5-0.9,0.8c0.1,0,0,0.1,0,0.2l-0.1-0.1
			c-0.2,0.4-0.3,0-0.4,0.4l0.1,0.1c-0.1,0.4-0.3,0-0.3,0.5c0.1-0.1,0.2,0.1,0.1,0.2l0-0.1c-0.1,0.1,0,0.2-0.1,0.2
			c0-0.1-0.1-0.1-0.2,0l0-0.2l-0.1,0.4c-0.2,0.1-0.4,0.5-0.5,0.5c0,0-0.4,0.4-0.3,0.6c0-0.1-0.2,0.1-0.3-0.1c0,0.1,0,0.2-0.1,0.3
			c-0.1,0.1-0.2,0.2-0.3,0.3l0,0c-0.5,0.4-0.5,0.9-0.9,1.2c0.1,0.1-0.1,0.2,0,0.3c-0.2,0.5-0.9,0.6-0.6,1c-0.1,0.2-0.3,0.2-0.4,0.3
			l0-0.1c-0.2,0.3-0.4,0.5-0.6,0.8c-0.1,0.2,0.1,0.3-0.1,0.5c0-0.1-0.1,0-0.1,0.1c0-0.1,0-0.1-0.1,0c0,0,0,0.1,0,0.1c0,0,0,0,0,0
			c-0.1,0.2-0.1,0.2,0,0.1c0,0,0,0,0.1,0c-0.2,0.1-0.3,0.4-0.5,0.4c-0.3,0.5-0.5,0.9-0.7,1.3c-0.1,0-0.1-0.1,0-0.3L297,73
			c-0.1-0.1,0.1-0.2,0.1-0.3c-0.4,0.2-0.4,0.8-0.8,1.1l0,0.1l0,0c0,0,0,0.1,0,0.2c-0.1,0-0.2-0.1-0.3,0.1c-0.2,0.1-0.3,0.5-0.4,0.7
			c0.1-0.1,0.1,0,0.1,0c-0.1,0.1-0.2,0.1-0.2,0.2l-0.1-0.1c0.1,0-0.1,0.3-0.1,0.4c-0.1,0,0-0.2,0-0.3l-0.4,0.6
			c-0.1,0.3,0.1,0,0.1,0.2c-0.1,0.2-0.2,0.4-0.4,0.6h0.1c-0.1,0.3-0.3,0.6-0.6,0.7C293,80.3,294.8,78.5,294.8,78.5z"/>
		<path class="st4" d="M285.8,74.3l0,0.1c-0.1,0.2,0.3-0.1,0.3,0.1l0.1,0c0,0,0,0.1,0,0.1c0.1,0.1,0.1,0,0.2,0l0,0.1
			c0.3,0.3,0.7,0.3,1,0.5c0.5,0.5,1,0.8,1.7,0.9c0.8,0.2,1.1,1.2,1.9,1.3c0,0,0.1,0,0.1,0l0.6,0.4c0,0,2.8,1.8,1.4-0.8l0,0
			c-0.3-0.3-0.5-0.4-0.8-0.4c0.1-0.2-0.2-0.2-0.3-0.3l0,0c-0.3,0-0.3-0.4-0.6-0.3c0,0,0.1-0.1,0.1,0c-0.2-0.1-0.4-0.1-0.3-0.3
			c-0.3-0.2-0.8-0.5-1.1-0.4l0,0c-0.2,0.1-0.2-0.1-0.3-0.1v0c-0.2,0-0.4-0.2-0.5-0.2l0-0.1l-0.3-0.1l0.1,0.1
			c-0.2,0.2-0.1-0.3-0.4-0.2c-0.2-0.1-0.6,0.2-0.7,0c-0.1,0,0.2-0.1,0-0.1c0.1-0.1,0.1,0,0.1-0.1c-0.2,0-0.1-0.2-0.3-0.3l0-0.1
			c-0.3,0-0.3-0.3-0.5-0.3c-0.3-0.1,0-0.3-0.3-0.3l0-0.2c-0.1-0.1-0.2,0.1-0.2,0c0.1-0.1-0.1-0.1,0-0.2c-0.2-0.3-0.6-0.1-0.8-0.5
			c-0.2,0.1-0.3-0.1-0.4,0c0-0.1-0.3-0.2,0-0.2c0,0,0,0,0,0l0.1-0.1c-0.1-0.3-0.4-0.1-0.5-0.3c0,0.1,0.1,0.1,0,0.1l-0.2-0.1l0.1,0
			l-0.2-0.2l0,0.1c-0.1-0.1,0-0.3-0.2-0.3c-0.1,0,0,0.2-0.1,0.1c-0.1-0.2-0.3-0.4-0.5-0.6c0,0.1-0.1,0.1-0.2,0.1l0-0.1
			c-0.3,0,0-0.2-0.2-0.3l0.1,0l-0.2,0.1c-0.3,0,0-0.2-0.3-0.1c0.1,0-0.1,0.2-0.2,0.1l0.1-0.1c-0.1,0-0.1,0-0.1,0c0,0,0,0,0,0
			c0,0,0,0,0,0s0,0,0,0c0,0,0,0,0,0l0.1-0.1l-0.3,0c-0.1-0.2-0.3-0.2-0.3-0.3c0,0-0.2-0.2-0.4-0.1c0.1,0,0-0.2,0.1-0.2
			c-0.1,0-0.4,0-0.4-0.2h0c-0.2-0.3-0.6-0.2-0.8-0.5c-0.1,0.1-0.2,0-0.2,0.1c-0.3-0.1-0.3-0.6-0.7-0.3c-0.1-0.1-0.1-0.2-0.1-0.3h0
			c-0.2-0.1-0.3-0.2-0.5-0.3c-0.1,0-0.2,0.2-0.4,0c0.1,0,0-0.1,0-0.1c0,0,0.1,0,0-0.1c0,0,0,0-0.1,0l0,0c-0.1,0-0.1,0-0.1,0
			c0,0,0,0,0,0c0,0,0,0,0,0c0-0.2-0.3-0.2-0.2-0.3c-0.1,0-0.1-0.1-0.2-0.1c0.4,0.5,0.8,1.1,1.2,1.5c-2-1.2-3.9-2.1-5.9-3.1
			c0,0.2,0.1,0.4,0.2,0.6c0.5,0.6,1,0.6,1.7,1c0.6,0.5,0.6,0.8,1.4,1.2c0.3,0.2,0.7,0.4,1,0.6c0.2,0,0.4,0.3,0.7,0.3l0,0.1
			c0.1,0,0.2,0,0.2,0.1l0,0c0.1,0,0.2,0.1,0.3,0.1l0,0l0.1,0.1l0,0c0.2,0,0.4,0.1,0.5,0.3l0.1-0.1c0.2,0.3,0.5,0.2,0.7,0.5l0,0
			c0.5,0,0.4,0.5,1,0.5c-0.1,0,0,0.1,0,0.1c0.2,0.1,0.4,0.2,0.5,0c0.1,0.1,0.1,0.1,0,0.2c0.1-0.1,0.2-0.1,0.3,0h-0.1l0.3,0.1
			l0.1-0.2c0.1,0.1-0.1,0.2,0.1,0.3l0.1-0.1c0.2,0.2,0.2,0.4,0.3,0.7C284.1,73.3,285.2,73.6,285.8,74.3z"/>
		<path class="st4" d="M289.3,92.7l0.1,0.1C289.4,92.8,289.4,92.7,289.3,92.7z"/>
		<path class="st4" d="M294.1,93.2L294.1,93.2L294.1,93.2z"/>
		<path class="st4" d="M314.7,79.9c1.1-1,2.9-1.3,4-2.3c0.1,0,0.1-0.1,0.1-0.1l1.2-0.7c0,0,5.6-3.5,0.6-2v-0.1c-0.5,0.2-1,0.5-1.4,1
			c-0.2-0.2-0.5,0.3-0.7,0.3v0c-0.3,0.4-0.9,0.4-1.2,0.7c0,0,0-0.1,0-0.1c0,0,0,0,0.1-0.1c-0.3,0.2-0.6,0.5-0.7,0.4
			c-0.7,0.4-1.3,0.8-1.9,1.4v-0.1c-0.2,0.3-0.3,0.2-0.5,0.4c0,0,0,0,0,0c-0.2,0.3-0.7,0.5-0.9,0.7l-0.1-0.1l-0.5,0.3l0.2-0.1
			c0.1,0.3-0.5,0.1-0.8,0.5c-0.4,0.2-0.4,0.9-0.8,1c-0.1,0.2,0-0.3-0.2,0c-0.1-0.1,0.1-0.1,0-0.2c-0.2,0.2-0.5,0.1-0.7,0.4l-0.1-0.1
			c-0.3,0.4-0.8,0.4-1,0.7c-0.4,0.3-0.4-0.1-0.8,0.4l-0.2,0c-0.2,0.1,0,0.2-0.3,0.3c0-0.1-0.3,0.1-0.2,0c-0.5,0.2-0.8,0.8-1.6,1
			c0,0.2-0.4,0.3-0.4,0.5c-0.1-0.1-0.6,0.4-0.4,0c0,0,0.1-0.1,0.1,0l0-0.1c-0.5,0.1-0.6,0.5-0.9,0.7c0.1,0,0.3-0.1,0.2,0l-0.3,0.2
			l0-0.1l-0.5,0.3l0.1,0c-0.3,0.1-0.4,0-0.6,0.3c-0.1,0.1,0.3,0,0.1,0.2c-0.4,0.2-0.9,0.4-1.3,0.6c0.1,0.1,0,0.1-0.1,0.2l-0.1-0.1
			c-0.3,0.4-0.3-0.1-0.6,0.3v0.2c-0.3,0.4-0.3,0-0.6,0.5c0.2-0.1,0.2,0.1,0,0.2v-0.1c-0.1,0.1-0.1,0.1-0.2,0.2c0-0.1,0-0.1-0.2,0
			l0-0.2l-0.2,0.3c-0.3,0.1-0.6,0.4-0.8,0.4c0,0-0.6,0.3-0.6,0.5c0.1-0.1-0.3,0-0.2-0.1c-0.1,0.1-0.2,0.2-0.3,0.3
			c-0.1,0.1-0.2,0.2-0.4,0.2l0,0c-0.7,0.3-0.9,0.8-1.5,1c0.1,0.1-0.2,0.2-0.1,0.3c-0.5,0.5-1.2,0.3-1.1,0.9
			c-0.2,0.2-0.3,0.1-0.5,0.1l0-0.1c-0.3,0.2-0.6,0.4-1,0.6c-0.2,0.1-0.1,0.3-0.4,0.4c0.1-0.1-0.1-0.1-0.2,0c0.1-0.1,0.1-0.1-0.1-0.1
			c0,0,0,0.1-0.1,0.1c0,0,0,0,0,0c-0.2,0.1-0.1,0.1,0,0.1c0,0,0,0,0.1,0c-0.3,0-0.6,0.3-0.7,0.1c-0.5,0.3-1,0.5-1.5,0.7
			c-0.1-0.1,0-0.2,0.2-0.2l-0.4,0.1c0-0.1,0.2-0.1,0.3-0.2c-0.5-0.1-0.9,0.3-1.4,0.2l-0.1,0.1l0,0c0,0-0.1,0.1-0.2,0.1
			c-0.1-0.1,0-0.2-0.2-0.2c-0.2-0.1-0.6,0-0.9,0c0.1,0,0.1,0.1,0,0.1c-0.1,0-0.2-0.1-0.3-0.1l0-0.1c0,0.1-0.4,0-0.4,0.1
			c0-0.1,0.2,0,0.3-0.1c-0.3-0.1-0.5-0.1-0.7-0.2c-0.3,0,0,0.1-0.2,0.2c-0.3,0-0.5-0.2-0.7-0.3l0,0.1c-0.2-0.1-0.4-0.2-0.6-0.3
			c0,0.5,0,1-0.1,1.4c0.7,0.3,1.5,0.5,2.3,0.7c0.6,0.2,1.3,0.3,2,0.3c0.7,0,1.4,0,2-0.3c0.8-0.2,1.6-0.5,2.3-0.9
			c0.3-0.3,0.9-0.5,1.2-0.8h0.2c0.1-0.1,0.2-0.2,0.4-0.3v0c0.1-0.1,0.3-0.2,0.5-0.3v0l0.2-0.1l0,0.1c0.3-0.3,0.6-0.5,0.9-0.6
			l-0.1-0.1c0.7-0.3,0.8-0.6,1.4-0.8v0c0.5-0.7,1.2-0.5,1.8-1.2c-0.1,0.1,0.1,0,0.1,0.1c0.3-0.2,0.7-0.5,0.5-0.7
			c0.2-0.2,0.2-0.1,0.3,0c-0.1-0.1,0.1-0.3,0.3-0.4l-0.1,0.1l0.5-0.4l-0.2-0.1c0.3-0.1,0.2,0.2,0.5-0.1l-0.1-0.1
			c0.4-0.1,0.8-0.3,1.2-0.3c1.5-1.1,3.1-2.2,4.8-3.1l0.1,0.1c0.1,0.1,0.3-0.5,0.4-0.4l0.1-0.2c0.1,0,0.2,0,0.1,0
			c0.2-0.1,0.2-0.1,0.2-0.2l0.2,0c0.7-0.3,1.1-0.8,1.8-1.2C312.7,81.5,313.8,80.8,314.7,79.9z"/>
		<path class="st4" d="M276.3,51.4l0.1,0c0-0.1-0.1-0.1-0.1-0.1c0.1,0,0.1-0.1,0.2,0c0.2-0.1-0.1-0.4,0.2-0.5
			c-0.1-0.1,0-0.2-0.1-0.3c0.1,0,0.1-0.2,0.2,0c0,0,0,0,0,0l0.1,0c0.2-0.1,0-0.3,0-0.4c0,0-0.1,0.1-0.1,0l0.1-0.1L277,50l0.1-0.1
			l-0.1,0c0.1-0.1,0.3,0,0.1-0.2c-0.1-0.1-0.2,0-0.2-0.1c0.1-0.1,0.3-0.2,0.3-0.3c-0.1,0-0.1-0.1-0.1-0.1l0.1,0
			c-0.1-0.2,0.2,0,0.2-0.2l0.1,0l-0.2-0.1c-0.1-0.2,0.2,0,0-0.2c0,0.1-0.2-0.1-0.2-0.1l0.1,0.1c0,0,0-0.1,0-0.1c0,0,0.1,0.1,0.1,0
			l0.1,0.1l-0.1-0.2c0.1,0,0.1-0.2,0.2-0.2c0,0,0.1-0.2,0-0.3c0.1,0.1,0.1,0,0.2,0.1c-0.1-0.1-0.1-0.3,0-0.3l0,0
			c0.2-0.2,0-0.4,0.2-0.5c-0.1,0,0-0.1-0.2-0.1c-0.1-0.2,0.4-0.2,0-0.5c0-0.1,0.1-0.1,0.2-0.1l0,0c0-0.1,0.1-0.2,0.1-0.3
			c0-0.1-0.2-0.2-0.1-0.3c0.1,0.1,0.1,0,0.1,0c0,0,0,0.1,0.1,0c0,0,0,0,0-0.1h0c0-0.1,0-0.1-0.1-0.1c0,0,0,0-0.1,0
			c0.1,0,0.1-0.2,0.2-0.1c0-0.2,0-0.4,0-0.6c0,0,0.1,0,0.1,0c0,0,0,0.1,0,0.1l0-0.1c0.1,0,0,0.1,0,0.1c0.2-0.1,0-0.4,0.2-0.5
			l-0.1-0.1h0c0,0,0,0-0.1,0c0,0,0,0,0-0.1c0.1,0,0.2,0.1,0.2,0c0.1,0,0-0.2,0-0.3c0,0-0.1,0-0.1,0c0,0,0.1,0,0.1-0.1l0.1,0.1
			c-0.1,0-0.1-0.2-0.1-0.2c0.1,0,0,0.1,0.1,0.1l0.1-0.2c0-0.1-0.1,0-0.2-0.1c0-0.1,0-0.2,0.1-0.3l-0.1,0c0-0.2,0-0.3,0.2-0.3
			c-0.3-1.5-1-0.8-1-0.8c-0.4,0.3-0.3,0.7-0.4,1.2c-0.3,0.4-0.5,0.4-0.7,1c-0.1,0.2-0.2,0.5-0.2,0.7c0.1,0.2-0.1,0.3,0,0.5l-0.1,0
			c0,0.1,0,0.1,0,0.1l0,0c0,0.1,0,0.1,0,0.2l0,0l0,0.1l0,0c0,0.1,0,0.1,0,0.2c0,0.1,0,0.1-0.1,0.2l0.1,0c-0.2,0.2,0,0.3-0.2,0.5l0,0
			c0.2,0.4-0.3,0.3-0.2,0.7c0,0-0.1,0-0.1,0c0,0.1,0,0.3,0.2,0.3c0,0.1-0.1,0-0.2,0c0,0,0,0,0,0c0,0,0,0,0,0c0,0,0,0,0,0.1
			c0,0,0,0,0,0.1l0,0l0,0.2l0.2,0c-0.1,0.1-0.2-0.1-0.2,0.1l0.2,0.1c-0.1,0.1-0.3,0.1-0.5,0.2c-0.3,0.6-0.1,1.3-0.5,1.7l-0.1,0
			c-0.2,0,0.2,0.2,0,0.2l0.1,0.1c0,0-0.1,0-0.1,0c0,0.1,0,0.1,0,0.1l-0.1,0c-0.2,0.2,0,0.5-0.1,0.7c0,0-0.1,0.1-0.1,0.1
			c0.5-0.1,1.1-0.2,1.5-0.3C276.1,51.4,276.4,51.6,276.3,51.4z"/>
		<path class="st4" d="M301.6,124.3L301.6,124.3C301.6,124.4,301.6,124.4,301.6,124.3z"/>
		<path class="st4" d="M300.5,127.5L300.5,127.5L300.5,127.5z"/>
		<path class="st4" d="M303.9,141.2C303.8,141.1,304.1,141.3,303.9,141.2c0.2-0.1,0.2,0,0.3-0.1c-0.1-0.2,0.1-0.3,0-0.6l0.1,0
			c-0.2-0.3,0-0.6-0.2-0.8c-0.1-0.3,0.3-0.3,0-0.6l0.1-0.2c0-0.1-0.2-0.1-0.1-0.2c0.1,0,0-0.2,0.1-0.1c0.1-0.4-0.3-0.7-0.2-1.2
			c-0.2-0.1-0.1-0.3-0.3-0.4c0.1,0-0.1-0.5,0.1-0.2c0,0,0,0.1,0,0.1l0.1,0c0.1-0.3-0.2-0.5-0.2-0.8c0,0.1,0,0.2-0.1,0.1l0-0.3l0.1,0
			l0-0.4l-0.1,0.1c0-0.2,0.2-0.3,0-0.5c-0.1-0.1-0.1,0.2-0.2,0c0-0.3,0.1-0.6,0.1-1c-0.1,0-0.1,0-0.2-0.1l0.1,0
			c-0.2-0.3,0.2-0.2,0-0.5l-0.1,0c-0.2-0.3,0.2-0.2-0.1-0.5c0,0.1-0.2,0.1-0.2-0.1l0.1,0c0-0.1-0.1-0.1-0.1-0.2c0.1,0,0.1,0,0.1-0.1
			l0.1,0.1l-0.2-0.2c0.1-0.2-0.1-0.5,0-0.6c0,0,0-0.4-0.2-0.5c0.1,0.1,0.1-0.2,0.2-0.1c-0.1-0.1-0.3-0.4-0.2-0.5l0,0
			c0-0.5-0.3-0.8-0.2-1.2c-0.1,0-0.1-0.2-0.2-0.1c-0.2-0.4,0.2-0.8-0.3-0.9c-0.1-0.2,0.1-0.2,0.1-0.3l0,0c-0.1-0.2-0.1-0.5-0.2-0.7
			c-0.1-0.1-0.3-0.1-0.3-0.4c0.1,0.1,0.1,0,0-0.1c0,0.1,0.1,0.1,0.1-0.1c0,0-0.1,0-0.1-0.1c0,0,0,0,0,0c-0.1-0.1-0.1-0.1-0.1,0
			c0,0,0,0,0,0c0.1-0.2-0.1-0.4,0.1-0.5c-0.1-0.5-0.3-0.8-0.4-1.1c0.1-0.1,0.1,0,0.2,0.1l-0.1-0.3c0.1,0,0.1,0.1,0.1,0.2
			c0.1-0.3-0.3-0.6-0.2-1l-0.1-0.1l0,0c0,0-0.1-0.1-0.1-0.1c0.1-0.1,0.2,0,0.2-0.2c0.1-0.2-0.1-0.4-0.2-0.6c0,0.1-0.1,0.1-0.1,0
			c0-0.1,0.1-0.2,0-0.2l0.1,0c-0.1,0.1-0.2-0.2-0.2-0.2c0.1-0.1,0.1,0.1,0.2,0.1l-0.1-0.6c-0.1-0.2-0.1,0.1-0.2,0
			c-0.1-0.2-0.1-0.4-0.1-0.5l-0.1,0.1c-0.1-0.1-0.1-0.2-0.1-0.4c0-0.1,0-0.3,0-0.4c-1.3-2.3-1.3-0.3-1.3-0.3c-0.1,1,0.3,1.5,0.6,2.6
			c0,0.8,0.1,1.6,0.2,2.4c0.1,0.5,0.2,1,0.3,1.5c0.2,0.2,0.1,0.6,0.3,0.9l-0.1,0.1c0,0,0.1,0.1,0.1,0.1c0,0.1,0,0.1,0,0.2h0
			c0.1,0.1,0.1,0.3,0.1,0.4h0l0,0.2l0,0c0.1,0.2,0.2,0.5,0.2,0.7l0.1,0c-0.1,0.5,0.2,0.6,0.1,1.1h0c0.4,0.5-0.1,0.9,0.3,1.4
			c0-0.1-0.1,0-0.1,0c0.1,0.3,0.1,0.5,0.4,0.5c0,0.2,0,0.2-0.1,0.2c0.1,0,0.2,0.1,0.2,0.3l0-0.1l0.1,0.4l0.2-0.1
			c0,0.2-0.2,0.1-0.1,0.3l0.2,0c0,0.3-0.2,0.5-0.3,0.9c0.3,1.2,0.6,2.5,0.7,3.8l-0.1,0.1c-0.2,0.1,0.3,0.3,0.2,0.3l0.1,0.1
			c0,0,0,0.1-0.1,0.1c0,0.1,0,0.1,0.1,0.2l-0.1,0.2c0,0.5,0.3,0.9,0.3,1.4c0,0.8,0.2,1.7,0.5,2.5c0.2,0.7,0.2,1.5,0.2,2.3
			c0.3-1.3,0.5-2.6,0.8-3.8c0,0,0,0,0,0C304.4,141.7,303.8,141.5,303.9,141.2z"/>
		<path class="st4" d="M312.2,175.7L312.2,175.7C312.3,175.7,312.3,175.7,312.2,175.7z"/>
		<path class="st4" d="M315.5,180.7L315.5,180.7c0.5,0.1,0.4,0.7,1,0.8c-0.1,0,0,0.1,0,0.1c0.2,0.1,0.4,0.3,0.5,0.1
			c0.1,0.1,0.1,0.1,0,0.2c0.1-0.1,0.2,0,0.3,0.1l-0.1,0l0.3,0.2l0.1-0.2c0.1,0.2-0.1,0.2,0,0.3l0.1-0.1c0.2,0.2,0.1,0.5,0.2,0.8
			c0.8,0.8,1.9,1.3,2.5,2.3l0,0.1c-0.1,0.1,0.4,0,0.3,0.2l0.1,0c0,0,0,0.1,0,0.1c0.1,0.1,0.1,0.1,0.2,0.1l0,0.2
			c0.3,0.4,0.7,0.5,1,0.8c0.4,0.6,1,1.1,1.7,1.4c0.8,0.4,1,1.6,1.9,2c0,0,0.1,0,0.1,0l0.1,0.1c0-0.7,0.1-1.4,0.1-2
			c-0.2-0.3-0.5-0.5-0.9-0.6l0,0c-0.2,0-0.2-0.1-0.3-0.2l0,0c-0.2,0-0.4-0.3-0.5-0.4l0.1-0.1l-0.3-0.2l0.1,0.1
			c-0.2,0.1-0.1-0.3-0.4-0.3c-0.2-0.2-0.7,0-0.8-0.2c-0.2,0,0.2-0.1,0-0.1c0.1-0.1,0.1,0,0.2-0.1c-0.2-0.1-0.1-0.3-0.3-0.4l0.1-0.1
			c-0.3-0.1-0.3-0.5-0.6-0.5c-0.3-0.1,0.1-0.3-0.3-0.4l0-0.2c-0.1-0.1-0.2,0.1-0.2-0.1c0.1-0.1-0.1-0.2,0-0.2
			c-0.1-0.3-0.6-0.3-0.8-0.8c-0.2,0.1-0.3-0.2-0.4-0.1c0-0.1-0.3-0.3,0-0.3c0,0,0,0,0,0.1l0.1-0.1c0-0.3-0.4-0.2-0.5-0.4
			c0,0.1,0.1,0.1,0,0.1l-0.2-0.2l0.1,0l-0.2-0.3l0,0.1c-0.1-0.2,0-0.3-0.2-0.3c-0.1,0,0,0.2-0.1,0.1c-0.1-0.3-0.3-0.5-0.5-0.7
			c-0.1,0.1-0.1,0-0.2,0l0.1-0.1c-0.3-0.1,0.1-0.2-0.2-0.3l-0.1,0.1c-0.3,0,0-0.3-0.4-0.3c0.1,0.1-0.1,0.2-0.2,0.1l0.1,0
			c-0.1,0-0.1,0-0.1-0.1c0.1,0,0.1-0.1,0-0.2l0.1,0l-0.3,0c-0.1-0.2-0.3-0.3-0.3-0.4c0,0-0.2-0.3-0.4-0.2c0.1,0,0-0.2,0.1-0.2
			c-0.1,0-0.4-0.1-0.4-0.3h0c-0.2-0.4-0.6-0.4-0.8-0.7c-0.1,0.1-0.2-0.1-0.2,0.1c-0.4-0.2-0.3-0.7-0.7-0.5c-0.1-0.1-0.1-0.2-0.1-0.3
			l0,0c-0.2-0.1-0.4-0.3-0.5-0.4c-0.1-0.1-0.3,0.1-0.4-0.1c0.1,0,0-0.1,0-0.1c0,0,0.1,0,0-0.1c0,0-0.1,0-0.1,0c0,0,0,0,0,0
			c-0.1-0.1-0.1,0-0.1,0c0,0,0,0,0,0c0,0,0,0,0,0c0-0.2-0.3-0.3-0.2-0.4c-0.3-0.2-0.6-0.4-0.9-0.5c0-0.1,0.1-0.1,0.2,0l-0.2-0.1
			c0.1-0.1,0.1,0,0.2,0.1c-0.1-0.3-0.6-0.3-0.7-0.6l-0.1,0v0c0,0-0.1,0-0.2,0c0-0.1,0.2-0.2,0-0.3c0-0.2-0.3-0.2-0.5-0.3
			c0.1,0.1,0,0.1-0.1,0.1c0,0,0-0.1-0.1-0.1c0.1,0.8,0.3,1.6,0.4,2.4c-0.3-0.3-0.6-0.6-0.9-0.8c0.3,0.4,0.6,0.8,1,1.1
			c0.3,0.3,0.7,0.6,1,0.9c0.3,0,0.4,0.4,0.7,0.5v0.1c0,0,0.1,0,0.1,0.1c0,0,0.1,0.1,0.1,0.1l0,0c0.1,0,0.2,0.2,0.3,0.2l0,0l0.1,0.1
			l0,0c0.2,0.1,0.4,0.2,0.5,0.4l0.1-0.1C315.1,180.4,315.4,180.4,315.5,180.7z"/>
		<path class="st4" d="M311.6,175C311.6,175,311.5,175,311.6,175C311.5,175,311.5,175.1,311.6,175L311.6,175L311.6,175z"/>
		<path class="st4" d="M315.4,197.5L315.4,197.5C315.5,197.6,315.5,197.6,315.4,197.5C315.5,197.6,315.5,197.6,315.4,197.5z"/>
		<path class="st4" d="M314.8,197.2L314.8,197.2L314.8,197.2L314.8,197.2z"/>
		<path class="st4" d="M326,203.3c-0.1,0-0.1,0-0.2,0l0,0c-0.2,0.1-0.1-0.1-0.3,0v0c-0.2,0.1-0.3-0.2-0.4-0.1l0-0.1l-0.2-0.1
			l0.1,0.1c-0.2,0.2-0.1-0.2-0.3-0.2c-0.1-0.1-0.5,0.3-0.6,0.1c-0.1,0.1,0.2-0.1,0-0.1c0.1-0.1,0.1,0,0.1-0.1
			c-0.1,0-0.1-0.2-0.3-0.2l0-0.1c-0.3,0.1-0.2-0.3-0.4-0.2c-0.2,0,0-0.3-0.2-0.3v-0.2c-0.1-0.1-0.1,0.1-0.2,0c0-0.1-0.1-0.1,0-0.2
			c-0.1-0.2-0.5-0.1-0.6-0.4c-0.1,0.1-0.2,0-0.3,0c0-0.1-0.2-0.2,0-0.2c0,0,0,0,0,0l0.1-0.1c0-0.2-0.3-0.1-0.4-0.2
			c0,0.1,0.1,0.1,0,0.1l-0.1-0.1l0.1-0.1l-0.2-0.2l0,0.1c-0.1-0.1,0-0.3-0.2-0.2c-0.1,0,0,0.2-0.1,0.1c-0.1-0.2-0.2-0.3-0.4-0.5
			c0,0.1-0.1,0.1-0.1,0.1l0-0.1c-0.2,0,0-0.2-0.2-0.2l-0.1,0.1c-0.3,0.1,0-0.2-0.3-0.1c0.1,0-0.1,0.2-0.1,0.1l0.1-0.1
			c-0.1,0-0.1,0-0.1,0c0.1,0,0.1-0.1,0-0.1l0.1-0.1l-0.2,0.1c0-0.1-0.3-0.1-0.2-0.3c0,0-0.2-0.2-0.3-0.1c0.1-0.1,0-0.2,0.1-0.2
			c-0.1,0.1-0.3,0-0.3-0.1h0c-0.2-0.2-0.5-0.1-0.6-0.3c0,0.1-0.1,0-0.2,0.1c-0.3,0-0.3-0.5-0.6-0.1c-0.1,0-0.1-0.2-0.1-0.2h0
			c-0.1,0-0.3-0.1-0.4-0.2c-0.1,0-0.2,0.2-0.3,0.1c0.1-0.1,0-0.1,0-0.1c0,0,0.1,0,0-0.1c0,0,0,0-0.1,0l0,0c-0.1,0-0.1,0-0.1,0
			c0,0,0,0,0,0.1c0-0.1-0.2-0.1-0.2-0.3c-0.2-0.1-0.5-0.1-0.7-0.1c0,0,0-0.1,0.1-0.1c0,0,0.1,0,0.1,0l-0.2-0.1c0.1-0.1,0.1,0,0.2,0
			c-0.1-0.2-0.4,0-0.6-0.3l-0.1,0.1v0c0,0,0,0-0.1,0c0,0,0,0-0.1,0c0-0.1,0.1-0.2,0-0.2c0-0.1-0.2-0.1-0.4-0.1c0,0,0,0.1,0,0.1
			c-0.1,0,0-0.1-0.1-0.1l0.1-0.1c0,0,0,0,0,0c0,0,0,0-0.1,0c0.1,0.7,0.2,1.4,0.4,2.1c0.1,0,0.1,0.1,0.2,0.1c0.3,0.2,0.5,0.3,0.8,0.4
			c0.2-0.1,0.3,0.2,0.6,0.1v0.1c0.1,0,0.1,0,0.2,0.1l0,0c0.1,0,0.2,0.1,0.2,0.1l0,0l0.1,0l0,0c0.2,0,0.3,0.1,0.4,0.2l0-0.1
			c0.2,0.3,0.4,0.1,0.5,0.4l0,0c0.4-0.1,0.3,0.4,0.8,0.3c-0.1,0,0,0.1,0,0.1c0.2,0,0.3,0.1,0.4-0.1c0.1,0.1,0,0.1,0,0.2
			c0.1-0.1,0.2-0.1,0.2,0l-0.1,0l0.2,0.1l0.1-0.2c0.1,0.1-0.1,0.2,0,0.2l0.1-0.1c0.1,0.1,0.1,0.4,0.2,0.6c0.6,0.4,1.5,0.5,2,1.1
			l0,0.1c-0.1,0.2,0.3-0.1,0.2,0l0.1,0c0,0,0,0.1,0,0.1c0.1,0,0.1,0,0.2,0l0,0.1c0.2,0.2,0.5,0.2,0.8,0.3c0.2,0.4,0.9,0.6,1.3,0.7
			c0.5,0,0.8,0.7,1.2,0.9C326,204.6,326,204,326,203.3z"/>
	</g>
</g>
</svg>
