<svg width="402" height="296" viewBox="0 0 402 296" fill="none" xmlns="http://www.w3.org/2000/svg">
<g clip-path="url(#clip0_1176_14498)">
<path d="M317.349 247.906L308.719 296H401.995C400.081 277.932 396.888 259.551 396.367 241.398C395.881 224.182 396.033 207.053 393.342 189.979C390.854 174.214 386.275 158.852 379.725 144.299C374.079 131.759 366.813 119.115 367.381 105.373C367.598 100.124 367.812 94.7989 369.421 89.7995C370.561 86.2597 372.141 82.866 373.115 79.278C374.266 75.711 374.25 71.8702 373.071 68.3127C372.113 65.9955 370.468 64.0274 368.358 62.673C366.249 61.3187 363.775 60.6431 361.27 60.7371C360.046 55.3959 353.173 52.3842 347.718 51.8696C342.263 51.3549 336.795 52.6577 331.317 52.5612C329.406 52.4115 327.485 52.4397 325.58 52.6456C324.625 52.7557 323.707 53.0802 322.895 53.5947C322.083 54.1092 321.398 54.8004 320.89 55.617C320.526 56.3272 320.354 57.1203 320.391 57.9174C320.428 58.7146 320.672 59.4884 321.099 60.1622C321.546 60.8351 322.159 61.3814 322.878 61.7488C323.597 62.1162 324.399 62.2921 325.206 62.2597C319.947 68.5941 318.238 76.8921 317.403 85.2222L314.043 91.9468C313.115 93.8005 312.188 95.6554 311.33 97.5439C311.226 97.7208 311.184 97.9276 311.211 98.1311C311.306 98.5051 311.786 98.5989 312.171 98.6136C313.589 98.6608 315.008 98.6119 316.42 98.4675C316.197 101.73 315.974 104.991 315.75 108.252C315.731 108.52 315.714 108.791 315.698 109.065C315.732 109.088 315.77 109.106 315.832 109.005V108.813V108.878C316.015 108.72 315.974 109.06 316.152 108.878L316.184 108.958C316.235 108.921 316.29 108.907 316.24 108.824C316.457 108.799 316.675 108.791 316.893 108.8C317.008 108.73 316.82 108.742 316.858 108.655C316.95 108.489 317.04 108.619 317.172 108.622L317.11 108.549L317.363 108.505L317.354 108.586L317.519 108.54C317.545 108.469 317.48 108.5 317.418 108.491C317.6 108.453 317.659 108.173 317.887 108.257L317.896 108.346C317.89 108.322 317.863 108.33 317.851 108.346C317.726 108.539 318.008 108.376 318.037 108.433C318.049 108.312 318.231 108.335 318.248 108.174C318.621 108.242 318.76 107.891 319.03 107.906C318.998 107.996 319.125 107.926 319.147 107.997C319.27 108.009 319.183 107.863 319.281 107.848L319.408 107.923C319.557 107.677 319.614 108.011 319.793 107.859C319.865 107.665 320.149 107.846 320.284 107.614L320.326 107.692C320.446 107.558 320.594 107.673 320.693 107.57C320.76 107.637 320.681 107.626 320.731 107.726C320.824 107.6 320.773 107.911 320.816 107.783C321.036 107.799 321.016 107.291 321.194 107.24C321.316 107.036 321.616 107.278 321.556 107.067L321.458 107.097L321.694 106.963L321.734 107.031C321.811 106.934 322.092 106.915 322.159 106.744C322.159 106.751 322.174 106.753 322.187 106.763C322.284 106.645 322.365 106.725 322.422 106.558V106.594C322.534 106.326 322.978 106.156 323.266 105.972C323.33 106.07 323.483 105.941 323.597 105.851C323.559 105.877 323.582 105.926 323.582 105.944C323.688 105.728 324.012 105.872 324.118 105.636V105.654C324.219 105.673 324.338 105.4 324.469 105.556C324.59 105.303 324.779 105.213 325.104 105.109V105.145C326.391 105.098 326.407 105.434 326.073 105.799C325.777 106.089 325.442 106.336 325.078 106.534L324.519 106.822C324.528 106.836 324.5 106.906 324.471 106.898C323.985 107.453 323.023 107.29 322.522 107.773C322.09 108.178 321.557 108.458 320.979 108.584C320.633 108.704 320.426 108.976 320.078 109.044L319.955 108.993C319.913 109.06 319.92 109.083 319.837 109.111C319.868 109.061 319.805 109.057 319.77 109.043L319.708 109.142C319.628 109.025 319.574 109.453 319.5 109.317L319.428 109.234C318.582 109.484 317.755 109.798 316.956 110.172C316.723 110.14 316.538 109.981 316.322 110.02L316.365 110.154C316.231 110.238 316.299 110.056 316.136 110.057L316.24 110.191L315.964 110.308L316 110.262C315.903 110.298 315.803 110.367 315.829 110.451C315.79 110.382 315.797 110.317 315.668 110.352C315.679 110.386 315.681 110.422 315.672 110.456C315.662 110.49 315.644 110.52 315.617 110.544C315.502 113.783 315.751 117.074 317.598 119.658C319.361 121.84 321.786 123.39 324.507 124.072C328.086 125.166 331.862 125.462 335.568 124.939C337.053 128.392 338.382 131.747 339.551 135.32C340.634 138.303 341.299 141.422 341.527 144.588C341.714 149.413 340.157 154.113 338.618 158.688C332.232 177.689 325.845 196.69 319.456 215.69C297.655 215.383 275.995 215.643 254.229 214.367C249.463 214.088 244.581 212.547 239.817 212.365C235.029 212.075 230.243 212.97 225.881 214.969C224.94 215.341 224.135 215.993 223.575 216.836C223.312 217.265 223.221 217.777 223.321 218.27C223.42 218.763 223.703 219.201 224.111 219.494C224.699 219.732 225.348 219.776 225.962 219.619L234.173 218.412C234.701 218.998 233.541 219.966 232.895 220.423C225.955 225.287 218.825 230.241 210.636 232.417C206.366 233.551 201.857 233.915 197.826 235.724C197.262 235.977 196.635 236.362 196.586 236.979C196.522 237.814 197.516 238.276 198.328 238.484C205.347 240.291 212.521 241.43 219.754 241.886C220.358 242.463 220.968 242.091 221.747 241.789L245.332 232.675C268.548 236.996 294.345 242.246 317.558 246.567V246.59C319.6 246.917 321.657 247.141 323.722 247.26L324.236 247.29L324.504 247.304C324.599 247.314 324.673 247.304 324.831 247.331C325.204 247.382 325.599 247.431 326.006 247.475C326.822 247.561 327.693 247.625 328.552 247.64C330.055 247.673 331.557 247.53 333.026 247.212C334.686 246.659 336.173 245.682 337.34 244.377L337.742 244.072C337.88 243.834 338.04 243.609 338.22 243.401C338.086 243.62 338.298 243.401 338.41 243.308L338.668 242.861C338.888 242.813 339.241 241.672 339.406 241.683L339.602 241.579C342.243 237.937 344.701 233.285 347.251 229.158C347.939 228.207 348.475 227.702 349.117 226.678L348.995 226.618C349.388 225.878 349.187 226.516 349.675 225.789L349.368 225.984L350.172 224.55L350.067 224.795C350.353 224.296 350.643 223.723 350.566 223.685C350.681 223.641 350.664 223.79 351.037 223.149C350.873 223.035 351.406 222.097 351.887 221.208C351.898 221.24 352.109 220.911 352.001 221.164C352.868 219.132 353.888 218.292 354.694 216.303L354.704 216.335C355.642 214.931 355.805 214.24 356.803 212.661L356.68 212.674C357.166 211.868 357.61 211.038 358.009 210.185L357.985 210.302L358.298 209.711L358.307 209.742C358.41 209.487 358.74 208.959 358.946 208.444L358.957 208.476C359.174 208.15 359.354 207.8 359.493 207.434L359.761 207.109C360.163 206.112 361.039 204.768 361.335 203.902L361.329 203.915L361.362 203.83L361.335 203.902C362.218 202.213 363.132 200.345 364.051 198.626C365.852 194.959 366.494 194.113 368.303 190.61C370.222 186.554 370.816 184.683 372.627 181.375C372.627 181.375 376.132 174.667 372.745 183.667C372.23 184.497 371.793 185.373 371.442 186.285L371.637 186.102C371.298 186.731 370.995 187.378 370.73 188.04C370.652 188.416 371.077 187.603 370.809 188.335L369.858 190.3C369.842 190.192 370.193 189.505 370.028 189.655C370.009 189.79 369.535 190.777 369.69 190.696L369.576 190.677C369.45 190.932 369.311 191.181 369.16 191.422C369.107 191.59 369.089 191.728 369.283 191.371C369.005 192.117 368.672 192.841 368.287 193.537C367.966 194.187 367.97 193.939 367.805 194.089C367.718 194.289 367.617 194.607 367.655 194.625L367.824 194.381C367.722 194.57 367.674 194.631 367.655 194.625L367.605 194.698L367.534 195.003C366.746 196.246 366.407 197.565 365.702 198.608C365.836 198.311 366.14 197.803 366.06 197.75L365.603 198.688C365.776 198.295 365.883 197.96 365.749 198.078C365.122 199.419 364.638 200.601 363.844 202.193C363.698 202.2 363.28 203.22 362.906 203.716C362.963 203.65 362.988 203.637 362.992 203.654C363.126 203.417 363.198 203.336 362.943 203.871C362.943 203.859 362.927 203.871 362.92 203.871C362.886 203.953 362.859 204.038 362.84 204.124C362.579 204.512 362.587 204.437 362.683 204.232C362.517 204.545 362.347 204.892 362.426 204.588C362.172 205.048 361.979 205.538 361.851 206.048C361.347 206.986 361.149 207.344 360.499 208.613L360.566 208.443C360.295 208.783 360.055 209.145 359.848 209.527C359.914 210.251 358.91 211.27 358.208 212.795C358.423 212.673 357.963 213.394 358.086 213.379C357.203 214.739 356.771 215.964 355.808 217.487L355.843 217.402C355.435 217.982 355.103 218.613 354.856 219.278C354.899 219.01 354.436 219.761 354.525 219.443C354.275 220.047 353.97 220.627 353.614 221.176C353.362 221.38 352.875 222.453 352.422 223.044L352.072 223.951L352.152 223.603C351.91 224.048 351.794 224.094 351.857 223.893C351.739 224.091 351.633 224.296 351.541 224.507L351.548 224.327C351.201 224.846 351.245 225.182 351.488 224.737C351.044 225.961 351.012 225.327 350.572 226.405L350.562 226.659V226.787V226.659C349.992 227.805 350.14 226.946 349.586 228.114L349.491 228.102C349.337 228.401 349.168 228.679 349.311 228.638C348.674 229.668 347.852 230.835 347.311 231.616C346.946 232.271 347.524 231.412 347.397 231.758C347.148 232.295 346.821 232.792 346.425 233.232L346.605 233.108L345.809 234.322L345.854 234.112L345.333 234.936C345.238 235.204 345.448 234.846 345.636 234.596C345.195 235.485 344.691 236.342 344.13 237.161V237.009C344.144 237.032 344.23 236.897 344.264 236.815C344.699 235.849 343.785 237.429 343.702 237.436C343.635 237.749 343.066 238.496 342.973 238.91C341.819 240.376 341.3 241.768 340.374 242.888C340.529 242.544 340.06 243.242 340.019 243.165C339.599 243.645 339.823 243.611 339.457 244.06L339.035 244.395C338.852 244.732 338.593 245.022 338.278 245.24C337.966 245.438 337.683 245.677 337.435 245.951C336.639 246.696 335.735 247.319 334.755 247.798L334.683 247.735C333.994 248.049 333.269 248.277 332.524 248.414C332.303 248.371 332.701 248.327 332.65 248.224C331.897 248.467 332.807 247.999 332.315 248.209C331.26 248.502 330.185 248.717 329.099 248.851C327.942 248.985 326.994 248.52 326.774 248.717L327.355 248.792C326.833 248.751 326.313 248.697 325.797 248.629L325.768 248.546C325.61 248.535 325.398 248.509 325.159 248.471L324.783 248.405C324.663 248.38 324.541 248.362 324.418 248.353C323.923 248.29 323.424 248.264 322.924 248.274C322.901 248.277 322.877 248.277 322.853 248.274H322.924C322.934 248.274 322.879 248.255 322.837 248.236C322.269 248.176 321.697 248.149 321.126 248.156L321.213 248.13C319.922 248.129 318.631 248.054 317.349 247.906V247.906Z" fill="#CCCCCC"/>
<path d="M319.457 109.232L319.529 109.315C319.6 109.449 319.656 109.022 319.737 109.139L319.798 109.04C319.833 109.054 319.896 109.059 319.865 109.108C319.948 109.08 319.942 109.057 319.983 108.99L320.106 109.041C320.455 108.973 320.661 108.701 321.007 108.581C321.585 108.456 322.119 108.175 322.551 107.77C323.052 107.287 324.014 107.45 324.499 106.895C324.528 106.903 324.557 106.834 324.547 106.819L325.106 106.531C325.47 106.333 325.805 106.086 326.102 105.796C326.435 105.432 326.419 105.095 325.133 105.142V105.106C324.807 105.211 324.618 105.3 324.498 105.554C324.364 105.397 324.247 105.67 324.147 105.651V105.633C324.043 105.869 323.719 105.725 323.611 105.941C323.611 105.923 323.588 105.874 323.625 105.848C323.511 105.938 323.357 106.067 323.294 105.969C323.006 106.153 322.563 106.327 322.45 106.591V106.555C322.394 106.722 322.316 106.642 322.216 106.76C322.202 106.751 322.189 106.748 322.187 106.741C322.12 106.913 321.839 106.931 321.763 107.028L321.722 106.96L321.487 107.094L321.585 107.064C321.645 107.275 321.345 107.033 321.223 107.237C321.044 107.288 321.065 107.796 320.845 107.78C320.802 107.914 320.853 107.598 320.759 107.724C320.709 107.623 320.789 107.634 320.722 107.567C320.62 107.67 320.475 107.552 320.354 107.689L320.313 107.611C320.179 107.843 319.893 107.662 319.821 107.856C319.643 108.008 319.585 107.674 319.436 107.921L319.309 107.846C319.211 107.866 319.298 108.006 319.175 107.994C319.154 107.923 319.026 107.994 319.059 107.903C318.791 107.884 318.65 108.236 318.276 108.171C318.26 108.332 318.078 108.305 318.066 108.43C318.036 108.374 317.755 108.536 317.879 108.343C317.891 108.327 317.918 108.319 317.925 108.343L317.916 108.254C317.688 108.17 317.629 108.45 317.447 108.488C317.508 108.497 317.574 108.466 317.547 108.537L317.382 108.583L317.392 108.502L317.138 108.547L317.2 108.619C317.066 108.619 316.979 108.485 316.886 108.652C316.849 108.74 317.036 108.727 316.921 108.797C316.703 108.788 316.485 108.796 316.269 108.821C316.318 108.911 316.269 108.924 316.212 108.955L316.18 108.875C316.002 109.057 316.046 108.717 315.86 108.875V108.811V109.002C315.797 109.103 315.759 109.085 315.726 109.062C315.695 109.553 315.67 110.048 315.652 110.537C315.679 110.514 315.698 110.483 315.707 110.449C315.716 110.415 315.714 110.379 315.703 110.345C315.837 110.312 315.825 110.375 315.864 110.444C315.839 110.36 315.938 110.292 316.035 110.255L315.999 110.301L316.275 110.184L316.171 110.05C316.334 110.05 316.269 110.231 316.4 110.147L316.357 110.013C316.573 109.974 316.759 110.134 316.991 110.166C317.788 109.793 318.612 109.481 319.457 109.232Z" fill="#202020"/>
<path d="M367.878 194.38L367.71 194.624C367.732 194.629 367.777 194.569 367.878 194.38Z" fill="#202020"/>
<path d="M322.969 248.272H322.898C322.921 248.276 322.945 248.276 322.969 248.272V248.272Z" fill="#202020"/>
<path d="M361.384 203.92L361.39 203.906L361.417 203.834L361.384 203.92Z" fill="#202020"/>
<path d="M372.683 181.379C370.871 184.687 370.271 186.558 368.359 190.614C366.55 194.118 365.908 194.963 364.107 198.63C363.188 200.349 362.274 202.217 361.391 203.906C361.095 204.772 360.222 206.116 359.816 207.113L359.548 207.438C359.41 207.805 359.23 208.154 359.012 208.481L359.002 208.448C358.795 208.963 358.465 209.491 358.362 209.746L358.353 209.715L358.041 210.306L358.065 210.19C357.665 211.042 357.222 211.872 356.736 212.678L356.859 212.665C355.861 214.244 355.7 214.936 354.759 216.339L354.75 216.307C353.946 218.296 352.923 219.136 352.056 221.168C352.165 220.915 351.953 221.245 351.942 221.212C351.461 222.101 350.928 223.039 351.093 223.153C350.719 223.788 350.736 223.64 350.621 223.689C350.699 223.73 350.408 224.301 350.123 224.799L350.227 224.554L349.423 225.988L349.73 225.794C349.242 226.52 349.443 225.882 349.051 226.622L349.173 226.682C348.531 227.706 347.995 228.211 347.306 229.162C344.76 233.289 342.298 237.941 339.657 241.583L339.462 241.687C339.297 241.677 338.943 242.817 338.723 242.865L338.466 243.312C338.353 243.407 338.142 243.624 338.276 243.406C338.096 243.614 337.936 243.838 337.797 244.076L337.395 244.381C336.229 245.686 334.742 246.663 333.082 247.216C331.612 247.534 330.111 247.677 328.608 247.644C327.751 247.629 326.88 247.565 326.062 247.479C325.66 247.435 325.258 247.386 324.887 247.335C324.728 247.313 324.655 247.318 324.56 247.309L324.291 247.294L323.777 247.264C321.712 247.145 319.655 246.921 317.613 246.594L317.374 247.92C318.67 248.069 319.974 248.143 321.278 248.142L321.191 248.168C321.762 248.161 322.334 248.188 322.902 248.248C322.943 248.267 322.998 248.28 322.989 248.286C323.488 248.276 323.988 248.302 324.483 248.365C324.606 248.374 324.727 248.392 324.848 248.417L325.224 248.483C325.463 248.522 325.674 248.547 325.832 248.558L325.862 248.641C326.378 248.709 326.898 248.763 327.42 248.804L326.839 248.729C327.059 248.535 328.007 248.997 329.164 248.863C330.25 248.729 331.325 248.514 332.38 248.221C332.871 248.011 331.962 248.479 332.715 248.236C332.766 248.339 332.368 248.384 332.589 248.426C333.333 248.289 334.058 248.061 334.748 247.747L334.82 247.81C335.8 247.331 336.703 246.708 337.5 245.963C337.747 245.689 338.031 245.45 338.343 245.252C338.658 245.034 338.917 244.744 339.1 244.407L339.522 244.072C339.888 243.623 339.664 243.657 340.083 243.178C340.125 243.254 340.594 242.556 340.439 242.9C341.364 241.78 341.884 240.389 343.038 238.922C343.13 238.504 343.7 237.757 343.767 237.448C343.85 237.441 344.764 235.861 344.328 236.827C344.291 236.909 344.205 237.044 344.194 237.021V237.173C344.756 236.354 345.26 235.497 345.701 234.608C345.513 234.858 345.299 235.213 345.398 234.948L345.919 234.124L345.874 234.334L346.67 233.12L346.49 233.244C346.886 232.804 347.213 232.307 347.461 231.77C347.589 231.424 347.011 232.284 347.376 231.628C347.912 230.847 348.739 229.681 349.376 228.65C349.233 228.695 349.402 228.417 349.556 228.114L349.651 228.126C350.204 226.958 350.053 227.818 350.627 226.672L350.637 226.417C351.077 225.345 351.109 225.973 351.552 224.749C351.31 225.194 351.266 224.858 351.613 224.339L351.606 224.519C351.698 224.308 351.804 224.103 351.922 223.905C351.859 224.106 351.975 224.061 352.217 223.616L352.137 223.963L352.486 223.057C352.939 222.466 353.424 221.392 353.679 221.188C354.035 220.639 354.34 220.059 354.59 219.455C354.501 219.773 354.964 219.028 354.921 219.29C355.168 218.625 355.499 217.994 355.907 217.414L355.873 217.5C356.841 215.976 357.273 214.751 358.151 213.391C358.027 213.406 358.488 212.685 358.273 212.807C358.972 211.283 359.978 210.261 359.913 209.539C360.12 209.158 360.36 208.795 360.631 208.455L360.564 208.625C361.214 207.356 361.412 206.993 361.916 206.06C362.044 205.551 362.237 205.06 362.491 204.6C362.412 204.905 362.582 204.557 362.748 204.244C362.652 204.449 362.644 204.524 362.905 204.137C362.924 204.05 362.951 203.965 362.985 203.883C362.992 203.883 363.005 203.868 363.008 203.883C363.263 203.347 363.194 203.429 363.056 203.666C363.056 203.649 363.028 203.666 362.971 203.728C363.346 203.232 363.764 202.212 363.909 202.205C364.703 200.613 365.187 199.432 365.814 198.09C365.948 197.972 365.841 198.307 365.668 198.7L366.125 197.762C366.205 197.813 365.898 198.323 365.767 198.62C366.472 197.577 366.811 196.258 367.599 195.016L367.67 194.71L367.72 194.638C367.682 194.624 367.782 194.307 367.87 194.101C368.034 193.953 368.031 194.199 368.352 193.549C368.737 192.853 369.07 192.129 369.348 191.383C369.153 191.74 369.172 191.602 369.224 191.434C369.376 191.193 369.515 190.944 369.641 190.689L369.755 190.708C369.6 190.79 370.074 189.807 370.093 189.668C370.258 189.518 369.907 190.204 369.923 190.312L370.874 188.347C371.142 187.616 370.717 188.428 370.795 188.053C371.06 187.39 371.363 186.743 371.702 186.114L371.506 186.297C371.858 185.385 372.294 184.509 372.81 183.679C376.187 174.671 372.683 181.379 372.683 181.379Z" fill="#202020"/>
<path d="M288.92 107.739C281.317 95.775 268.596 90.5986 255.125 92.1118C251.075 92.5512 247.116 93.6048 243.383 95.2362C238.495 97.2798 234.145 100.426 230.674 104.43C227.202 108.433 224.704 113.185 223.372 118.314C222.041 123.444 221.914 128.811 223 133.998C224.086 139.185 226.356 144.05 229.633 148.214C232.771 152.23 236.715 155.543 241.212 157.94C245.709 160.337 250.658 161.765 255.74 162.131C260.822 162.498 265.925 161.794 270.719 160.067C275.513 158.339 279.891 155.625 283.572 152.101C289.462 146.47 293.215 138.968 294.191 130.877C295.166 122.785 293.303 114.606 288.92 107.736V107.739Z" fill="#2E66FF"/>
<path d="M135.119 136.344C154.951 138.594 175.1 140.755 194.9 143.313C197.189 123.292 199.143 103.506 201.431 83.4797L141.239 76.2607C139.199 96.2898 137.159 116.317 135.119 136.344Z" fill="#2E66FF"/>
<path d="M235.98 0L209.747 71.1154C209.747 71.1154 259.406 64.0331 283.55 60.1689C272.539 45.6129 246.989 14.556 235.98 0Z" fill="#2E66FF"/>
<path d="M221.914 168.647C221.561 168.402 221.151 168.251 220.723 168.209C220.296 168.167 219.865 168.235 219.471 168.407C214.905 169.768 211.663 174.037 207.107 175.432C204.738 176.01 202.288 176.181 199.861 175.938C195.254 175.739 191.141 175.453 186.534 175.252C187.869 174.732 189.087 173.95 190.115 172.951C190.749 172.398 191.211 171.676 191.447 170.869C191.557 170.465 191.541 170.037 191.401 169.642C191.262 169.247 191.005 168.904 190.666 168.658C190.196 168.473 189.69 168.402 189.187 168.448C188.685 168.495 188.2 168.658 187.772 168.926L181.866 171.486C179.159 172.478 176.646 173.937 174.443 175.798C170.206 179.831 169.1 186.654 164.04 189.592C151.282 196.987 138.848 203.884 125.546 210.234C108.487 194.583 92.4993 177.803 77.6908 160.007C74.7843 156.514 71.8149 152.747 71.1476 148.25C70.8692 145.418 71.1209 142.56 71.8899 139.821C72.9476 136.035 74.1999 132.307 75.6419 128.65C78.8124 128.393 81.9323 127.699 84.9134 126.589C89.1585 125.007 93.2616 122.398 95.3654 118.383C96.3643 116.373 96.9451 114.182 97.0725 111.94C97.0294 111.906 96.981 111.879 96.9291 111.861L96.9024 111.995C96.7403 111.995 96.8917 111.876 96.7416 111.79L96.7657 111.967L96.4548 111.922L96.511 111.9C96.4038 111.88 96.2766 111.887 96.2565 111.973C96.2565 111.892 96.2967 111.839 96.1613 111.805C96.1091 111.998 95.9041 111.963 95.7058 111.939C95.7165 111.916 95.6495 111.879 95.7058 111.86C95.2274 111.983 95.1362 111.474 94.6645 111.605L94.6766 111.584C94.4086 111.361 94.2183 111.51 93.9276 111.268L93.9034 111.367C93.7476 111.266 93.5677 111.208 93.3822 111.199L93.417 111.175L93.2924 111.136L93.3071 111.116C93.2455 111.126 93.149 111.045 93.0244 111.063L93.0392 111.042C93.0132 111.012 92.9796 110.99 92.9419 110.977C92.9043 110.964 92.8638 110.961 92.8247 110.969L92.7872 110.858C92.55 110.879 92.3383 110.611 92.1172 110.666H92.0945H92.1132C91.7525 110.535 91.4066 110.367 91.0814 110.163C90.8096 110.043 90.558 109.882 90.3351 109.686C90.1339 109.476 89.92 109.279 89.6945 109.096C88.9361 108.694 88.4805 108.663 88.0409 108.052C87.9178 107.914 87.8373 107.742 87.8091 107.559C87.8172 107.342 88.0771 107.201 89.0151 107.425C89.0474 107.513 89.1011 107.592 89.1712 107.654C89.2414 107.717 89.3259 107.761 89.4172 107.783L89.4386 107.676C89.5136 107.81 89.653 107.835 89.7709 107.885C89.8835 107.844 89.7575 107.735 89.9223 107.751L90.2573 107.961C90.209 108.003 90.1005 107.914 90.0845 108.003C90.13 107.978 90.2988 108.084 90.3364 107.984L90.2787 108.078C90.3403 108.078 90.3256 108.166 90.3819 108.201C90.4248 108.201 90.469 108.171 90.4168 108.118C90.5508 108.159 90.7759 108.167 90.8187 108.291C90.93 108.36 90.8389 108.425 90.8255 108.519C90.8488 108.524 90.8732 108.524 90.8965 108.518C90.9198 108.512 90.9414 108.501 90.9595 108.485L90.9367 108.421C90.9662 108.448 90.9689 108.469 90.9595 108.485L90.9661 108.504L91.0506 108.473C91.2047 108.726 91.5691 108.587 91.6844 108.831C91.6254 108.817 91.5504 108.729 91.5035 108.809L91.6791 108.884C91.6 108.867 91.5156 108.884 91.5089 108.957C91.7809 109.019 92.0493 109.097 92.3128 109.189C92.2646 109.307 92.4898 109.304 92.5447 109.438C92.5421 109.43 92.5413 109.421 92.5425 109.412C92.5437 109.404 92.5467 109.396 92.5514 109.388C92.5112 109.358 92.5058 109.329 92.613 109.354C92.613 109.36 92.613 109.366 92.6063 109.371C92.6292 109.369 92.6513 109.361 92.6707 109.348C92.7229 109.43 92.7001 109.449 92.6572 109.441C92.7149 109.469 92.7832 109.488 92.7001 109.529C92.8341 109.644 92.9306 109.485 93.0325 109.492C93.183 109.578 93.3425 109.647 93.5082 109.698H93.4706C93.5242 109.749 93.5001 109.866 93.6368 109.896C93.8954 109.571 93.9677 110.021 94.2947 110.017C94.3081 109.883 94.4288 109.992 94.4529 109.892C94.674 110.118 94.966 109.977 95.2367 110.161H95.218C95.2689 110.28 95.498 110.274 95.5932 110.21C95.5221 110.286 95.6615 110.363 95.5838 110.423C95.683 110.319 95.9335 110.461 95.9335 110.461C95.951 110.595 96.1841 110.532 96.2887 110.651L96.4923 110.541L96.4079 110.63C96.499 110.636 96.4963 110.715 96.4508 110.75C96.4856 110.777 96.5138 110.75 96.5781 110.75L96.5312 110.825C96.6303 110.89 96.7241 110.699 96.633 110.691C96.9077 110.514 96.7362 110.837 96.9734 110.717L97.0685 110.552L97.0377 110.607C97.0686 110.599 97.1015 110.602 97.1302 110.616C97.1958 108.673 97.0846 106.7 96.9627 104.774C96.8787 103.444 96.7938 102.114 96.7081 100.782C97.8703 100.849 99.0361 100.748 100.169 100.481C100.542 100.415 100.895 100.262 101.197 100.034C101.418 99.8149 101.578 99.542 101.661 99.2422C101.745 98.9424 101.749 98.626 101.674 98.324C101.516 97.7224 101.254 97.1532 100.9 96.6419L98.0735 92.0245C97.2413 90.7418 96.5132 89.3945 95.896 87.9955L95.8773 87.6966C95.7296 84.3571 95.3864 81.0291 94.8495 77.7298C93.2415 68.9225 88.1629 59.7975 79.7169 56.83C75.6382 55.3993 71.3578 54.6271 67.0365 54.5422C64.2149 54.4559 61.3949 54.759 58.6561 55.4429C54.9969 56.4308 51.6088 58.234 48.7453 60.7177C45.8819 63.2013 43.6175 66.301 42.1218 69.7844C39.9497 74.9487 39.5651 80.7604 37.1277 85.804C33.9746 92.3288 27.82 96.772 22.1196 101.251C16.4193 105.731 10.6681 110.983 8.95421 118.025C8.39338 120.43 8.27121 122.916 8.59369 125.364C8.99362 128.828 10.2093 132.148 12.1408 135.051C14.0723 137.954 16.6646 140.358 19.705 142.064C22.7872 143.697 26.2689 144.423 29.7465 144.157C33.2241 143.891 36.5552 142.644 39.3534 140.562C28.2394 158.579 22.7374 179.466 19.3298 200.361C15.9222 221.255 14.0957 242.458 8.86571 262.972C6.05171 274.025 2.60257 284.891 -0.0157928 295.995H98.0481C96.4401 281.796 95.36 267.588 93.7601 253.39C97.5852 247.79 101.028 241.939 104.066 235.877L102.896 235.113C102.823 235.113 102.753 235.087 102.698 235.039C101.044 234.315 99.6976 232.684 98.1272 231.912C96.7897 231.208 95.5294 230.367 94.3671 229.4C93.6207 228.815 92.8931 228.512 92.2043 227.926L92.0609 227.707C91.9286 227.675 91.8059 227.612 91.7032 227.523C91.8211 227.569 91.7206 227.458 91.6818 227.395L91.4432 227.301C91.462 227.141 90.8027 227.112 90.8603 226.966L90.8469 226.832C89.2898 225.371 87.1391 224.145 85.3945 222.665C85.1196 222.252 84.8137 221.86 84.4793 221.494L84.3962 221.604C84.0665 221.388 84.3961 221.46 84.112 221.167L84.1255 221.389L83.5091 220.923L83.6257 220.976C83.4153 220.807 83.162 220.644 83.107 220.708C83.1218 220.62 83.2089 220.614 82.9449 220.392C82.8109 220.541 82.4089 220.227 82.0311 219.946C82.0538 219.933 81.9265 219.8 82.0458 219.857C81.0877 219.395 80.9376 218.674 80.0076 218.225L80.0318 218.213C79.5212 217.595 79.138 217.542 78.5578 216.887L78.5163 216.986C78.2078 216.668 77.8653 216.384 77.4951 216.14L77.5581 216.15L77.3156 215.95L77.3397 215.938C77.2232 215.876 77.0288 215.655 76.793 215.536L76.8171 215.525C76.7035 215.377 76.556 215.259 76.387 215.179L76.2972 214.988C75.8403 214.745 75.382 214.133 74.9679 213.957L74.9291 213.936L74.9625 213.952C74.2805 213.37 73.5287 212.745 72.8681 212.11C71.8149 211.155 70.8121 210.145 69.8638 209.085C68.5803 208.132 67.3888 207.061 66.3048 205.886C66.3048 205.886 63.9585 203.221 67.7413 205.752C67.9923 206.137 68.3198 206.468 68.7034 206.722L68.6873 206.57C68.9048 206.826 69.1559 207.052 69.4337 207.241C69.6253 207.29 69.3305 206.979 69.6495 207.168L70.3972 207.86C70.3248 207.876 70.0729 207.62 70.0863 207.746C70.1627 207.757 70.5365 208.101 70.5607 207.979L70.4963 208.07C70.6156 208.135 70.6303 208.261 70.7563 208.375C70.8354 208.409 70.9104 208.417 70.7831 208.278C71.1067 208.465 71.3991 208.702 71.6501 208.979C71.8993 209.207 71.752 209.214 71.7667 209.34C71.8484 209.4 71.9971 209.467 72.0226 209.436L71.9502 209.313C72.0186 209.385 72.0333 209.421 72.0226 209.436L72.044 209.474L72.1981 209.516C72.6001 210.089 73.2702 210.282 73.5891 210.79C73.4645 210.701 73.2889 210.484 73.2219 210.55L73.5971 210.865C73.4336 210.747 73.2755 210.68 73.2875 210.782C73.8302 211.213 74.3516 211.522 74.984 212.059C74.9251 212.176 75.3726 212.444 75.52 212.706C75.5039 212.665 75.5052 212.646 75.52 212.642C75.4315 212.55 75.4115 212.5 75.6339 212.665C75.6245 212.665 75.6339 212.677 75.6258 212.684C75.6641 212.706 75.7058 212.721 75.7491 212.729C75.8764 212.912 75.8336 212.909 75.7491 212.847C75.8711 212.958 76.0171 213.068 75.859 213.028C76.1565 213.358 76.3106 213.245 76.5197 213.382C76.8449 213.694 77.1866 213.988 77.5434 214.263L77.467 214.222C77.5903 214.356 77.5635 214.49 77.8436 214.708C78.3193 214.595 78.5417 215.312 79.2104 215.733C79.2224 215.571 79.4784 215.875 79.5253 215.776C80.0144 216.36 80.6227 216.569 81.1936 217.191L81.1533 217.172C81.3549 217.441 81.6299 217.646 81.9453 217.762C81.7952 217.762 82.0793 218.048 81.9198 218.013C82.1329 218.024 82.6649 218.549 82.6649 218.549C82.6971 218.73 83.1888 218.993 83.3952 219.283L83.8374 219.45L83.6484 219.43C83.8387 219.564 83.824 219.657 83.7222 219.632C83.7932 219.714 83.8561 219.72 83.9901 219.81L83.8789 219.828C84.0785 220.042 84.305 219.962 84.1147 219.828C84.7231 220.026 84.3064 220.144 84.833 220.348L84.9911 220.32C85.5137 220.617 85.0219 220.623 85.5633 220.904L85.5231 220.983C85.6571 221.066 85.7723 221.164 85.7911 221.053C86.2132 221.428 86.6701 221.916 86.977 222.242C87.2651 222.439 86.922 222.097 87.0962 222.148C87.466 222.282 87.4661 222.469 87.6979 222.709L87.6792 222.582L88.1857 223.031H88.0664L88.4162 223.319C88.5502 223.351 88.3987 223.239 88.3022 223.128C88.6707 223.448 89.1424 223.497 89.4319 223.932L89.3327 223.963C89.3528 223.947 89.2952 223.9 89.255 223.882C88.786 223.689 89.4881 224.17 89.468 224.235C89.6436 224.235 89.9357 224.571 90.1743 224.567C90.7464 225.244 91.4566 225.426 91.9162 225.907C91.7394 225.862 92.0502 226.082 91.9966 226.13C92.195 226.351 92.2325 226.174 92.4308 226.347L92.55 226.586C93.145 226.809 92.7939 226.96 93.3125 227.246C93.7145 227.347 93.9571 227.864 94.5118 228.069L94.4756 228.151C94.8776 228.346 94.9607 228.615 95.2797 228.778C95.3038 228.906 95.1818 228.766 95.1269 228.864C95.4632 229.013 94.9433 228.962 95.1966 229.021C95.5503 229.402 96.2364 229.297 96.6197 229.597C97.1275 229.78 97.2977 230.324 97.496 230.2L97.2856 230.034L97.8859 230.428L97.8564 230.503C98.219 230.769 98.6041 231.002 99.0075 231.2C99.0008 231.2 99.0182 231.224 99.0262 231.247C99.3706 231.399 99.3921 231.542 99.7378 231.62H99.6869C100.522 232.006 101.32 232.468 102.071 232.999C102.031 233.113 102.493 233.353 102.826 233.535C102.803 233.517 102.775 233.506 102.745 233.503C102.716 233.5 102.686 233.505 102.659 233.518C103.174 233.679 103.505 234.225 104.043 234.384H104.018C104.211 234.52 104.412 234.644 104.621 234.756C104.641 234.712 104.664 234.669 104.684 234.622C110.087 238.186 115.136 241.975 121.289 244.005C124.336 245.009 127.631 245.823 130.72 244.957C133.809 244.092 136.214 241.664 138.448 239.339L178.216 197.935C181.268 194.196 185.499 191.606 190.216 190.588C197.713 188.266 206.181 187.606 212.627 183.129C216.755 180.252 219.99 176.271 221.962 171.641C222.385 170.662 222.687 169.382 221.914 168.647Z" fill="#75787B"/>
<path d="M90.9433 108.427L90.966 108.492C90.9754 108.476 90.9728 108.454 90.9433 108.427Z" fill="#202020"/>
<path d="M89.697 109.104C89.9224 109.288 90.1363 109.485 90.3374 109.694C90.5604 109.891 90.8121 110.051 91.0838 110.171C91.4091 110.375 91.755 110.543 92.1157 110.674C92.3381 110.619 92.5498 110.887 92.7857 110.866L92.8232 110.977C92.8623 110.969 92.9027 110.972 92.9403 110.985C92.978 110.998 93.0115 111.02 93.0376 111.051L93.0228 111.071C93.1475 111.053 93.2439 111.134 93.3056 111.124L93.2909 111.145L93.4154 111.183L93.3806 111.207C93.5661 111.216 93.7461 111.274 93.9019 111.375L93.926 111.276C94.2168 111.518 94.411 111.37 94.675 111.592L94.663 111.614C95.1347 111.48 95.2258 111.991 95.7042 111.868C95.6439 111.887 95.7109 111.925 95.7042 111.947C95.9025 111.965 96.1062 112 96.1598 111.813C96.2938 111.849 96.2549 111.9 96.2549 111.981C96.275 111.895 96.4023 111.888 96.5095 111.908L96.4532 111.93L96.7641 111.976L96.74 111.798C96.8901 111.884 96.74 112.006 96.9008 112.004L96.9276 111.87C96.9795 111.888 97.0279 111.915 97.071 111.949C97.1058 111.514 97.1304 111.076 97.1447 110.635C97.116 110.621 97.0832 110.618 97.0522 110.626L97.083 110.571L96.9879 110.736C96.7507 110.856 96.9223 110.533 96.6476 110.71C96.7387 110.71 96.6475 110.907 96.5457 110.844L96.5926 110.769C96.5283 110.769 96.5001 110.801 96.4653 110.769C96.5108 110.734 96.5135 110.655 96.4224 110.649L96.5068 110.56L96.3032 110.67C96.1986 110.551 95.9655 110.616 95.948 110.48C95.948 110.48 95.6975 110.338 95.5983 110.442C95.676 110.382 95.5367 110.308 95.6077 110.229C95.5126 110.293 95.2834 110.299 95.2325 110.179H95.2513C94.9833 109.996 94.6885 110.137 94.4674 109.911C94.4432 110.011 94.3227 109.902 94.3093 110.036C93.9823 110.036 93.9072 109.59 93.6513 109.915C93.5173 109.885 93.5387 109.768 93.4851 109.717H93.5226C93.357 109.666 93.1975 109.597 93.047 109.511C92.9451 109.504 92.8487 109.663 92.7147 109.548C92.7978 109.507 92.7294 109.488 92.6717 109.46C92.7146 109.468 92.7374 109.449 92.6851 109.367C92.6658 109.38 92.6438 109.388 92.6209 109.39C92.6209 109.39 92.6209 109.379 92.6276 109.373C92.5204 109.348 92.5257 109.373 92.5659 109.407C92.5612 109.415 92.5582 109.423 92.5571 109.431C92.5559 109.44 92.5566 109.449 92.5592 109.457C92.5043 109.323 92.2792 109.323 92.3274 109.208C92.0639 109.116 91.7954 109.038 91.5234 108.976C91.5301 108.905 91.6145 108.886 91.6936 108.903L91.518 108.828C91.5676 108.748 91.64 108.836 91.699 108.85C91.5837 108.606 91.2192 108.745 91.0651 108.492L90.9807 108.523L90.974 108.504C90.9559 108.52 90.9343 108.531 90.911 108.537C90.8877 108.543 90.8633 108.543 90.8399 108.537C90.8533 108.446 90.9445 108.379 90.8332 108.31C90.7904 108.186 90.5653 108.176 90.4313 108.137C90.4835 108.19 90.4393 108.215 90.3964 108.22C90.3401 108.185 90.3549 108.097 90.2933 108.097L90.3509 108.003C90.3133 108.103 90.1445 108.003 90.099 108.021C90.115 107.933 90.2236 108.021 90.2719 107.98L89.9369 107.769C89.772 107.759 89.8979 107.869 89.7854 107.903C89.6675 107.854 89.5281 107.835 89.4531 107.694L89.4317 107.802C89.3403 107.78 89.2559 107.736 89.1857 107.673C89.1156 107.611 89.062 107.532 89.0297 107.444C88.0917 107.216 87.833 107.357 87.8236 107.578C87.8518 107.761 87.9322 107.932 88.0554 108.071C88.4829 108.677 88.9385 108.697 89.697 109.104Z" fill="#202020"/>
<path d="M72.0332 209.441C72.0439 209.427 72.0332 209.39 71.9608 209.318L72.0332 209.441Z" fill="#202020"/>
<path d="M74.9791 213.961L74.9456 213.945L74.9791 213.961Z" fill="#202020"/>
<path d="M104.02 234.387H104.046C103.51 234.228 103.176 233.682 102.661 233.521C102.688 233.508 102.718 233.503 102.748 233.506C102.777 233.509 102.805 233.52 102.829 233.538C102.495 233.357 102.033 233.117 102.073 233.002C101.322 232.471 100.524 232.009 99.6893 231.623H99.7403C99.3946 231.545 99.3731 231.402 99.0287 231.25C99.0207 231.227 99.0033 231.206 99.01 231.203C98.6066 231.005 98.2215 230.772 97.8589 230.506L97.8884 230.431L97.2881 230.037L97.4984 230.203C97.3001 230.327 97.1299 229.782 96.6221 229.6C96.2388 229.3 95.5501 229.405 95.1991 229.024C94.9458 228.965 95.4671 229.016 95.1294 228.867C95.1843 228.769 95.3062 228.909 95.2821 228.781C94.9645 228.618 94.8801 228.348 94.4781 228.154L94.5143 228.072C93.9595 227.867 93.7103 227.35 93.315 227.249C92.7964 226.962 93.1475 226.812 92.5525 226.589L92.4333 226.35C92.2349 226.177 92.1975 226.35 91.9991 226.133C92.0568 226.085 91.7418 225.865 91.9187 225.91C91.4644 225.424 90.7542 225.24 90.1767 224.57C89.9382 224.57 89.6407 224.239 89.4705 224.238C89.4906 224.173 88.7885 223.692 89.2575 223.885C89.2977 223.903 89.3553 223.949 89.3352 223.965L89.4344 223.935C89.1449 223.503 88.6732 223.453 88.3047 223.13C88.4012 223.242 88.5566 223.354 88.4186 223.322L88.0689 223.034H88.1881L87.6816 222.585L87.7004 222.712C87.4686 222.472 87.4685 222.283 87.0987 222.151C86.9245 222.1 87.2676 222.442 86.9795 222.245C86.6726 221.919 86.2156 221.431 85.7935 221.056C85.7708 221.167 85.6595 221.069 85.5255 220.986L85.5658 220.907C85.0298 220.625 85.5162 220.62 84.9936 220.322L84.8355 220.351C84.3089 220.147 84.7256 220.029 84.1172 219.831C84.3075 219.965 84.081 220.049 83.8814 219.831L83.9926 219.813C83.8586 219.723 83.7943 219.717 83.7246 219.635C83.8264 219.66 83.8412 219.572 83.6509 219.433L83.8398 219.453L83.3977 219.286C83.1913 218.996 82.6995 218.733 82.6673 218.552C82.6673 218.552 82.1314 218.033 81.9223 218.016C82.0871 218.051 81.7977 217.761 81.9478 217.765C81.6324 217.649 81.3574 217.444 81.1558 217.175L81.1961 217.194C80.6252 216.572 80.0169 216.363 79.5278 215.779C79.4862 215.878 79.2249 215.574 79.2128 215.736C78.5428 215.315 78.3218 214.598 77.8461 214.71C77.566 214.492 77.5928 214.362 77.4695 214.225L77.5459 214.266C77.1891 213.991 76.8473 213.696 76.5221 213.385C76.313 213.251 76.159 213.361 75.8615 213.031C76.0169 213.071 75.8736 212.961 75.7516 212.85C75.8374 212.912 75.8856 212.914 75.7516 212.732C75.7083 212.724 75.6666 212.709 75.6283 212.687C75.6283 212.68 75.6284 212.672 75.6364 212.668C75.414 212.503 75.434 212.552 75.5225 212.645C75.5091 212.645 75.5077 212.668 75.5225 212.709C75.3737 212.441 74.9261 212.173 74.9864 212.062C74.354 211.526 73.8327 211.216 73.29 210.785C73.278 210.683 73.4361 210.75 73.5996 210.868L73.2243 210.553C73.2913 210.487 73.4669 210.704 73.5916 210.793C73.2673 210.285 72.6026 210.092 72.2006 209.519L72.0465 209.477L72.0251 209.439C71.9996 209.47 71.8508 209.403 71.7691 209.342C71.7544 209.216 71.9031 209.208 71.6526 208.982C71.4016 208.705 71.1091 208.468 70.7855 208.281C70.9128 208.415 70.8379 208.415 70.7588 208.377C70.6328 208.263 70.6247 208.138 70.4988 208.073L70.5632 207.982C70.539 208.104 70.1612 207.76 70.0888 207.749C70.0754 207.623 70.3273 207.883 70.3997 207.863L69.652 207.171C69.333 206.982 69.6278 207.293 69.4362 207.244C69.1584 207.055 68.9073 206.829 68.6898 206.573L68.7059 206.725C68.3222 206.47 67.9948 206.14 67.7438 205.754C63.961 203.22 66.3073 205.888 66.3073 205.888C67.3913 207.064 68.5828 208.135 69.8663 209.088C70.8146 210.148 71.8174 211.157 72.8706 212.113C73.5312 212.748 74.283 213.373 74.965 213.955C75.3791 214.13 75.8374 214.743 76.2943 214.985L76.3841 215.177C76.5531 215.256 76.7006 215.375 76.8142 215.523L76.7901 215.533C77.0259 215.657 77.2203 215.878 77.3368 215.936L77.3127 215.948L77.5552 216.147L77.4922 216.138C77.8624 216.382 78.2049 216.665 78.5134 216.984L78.5549 216.885C79.1418 217.544 79.525 217.592 80.0289 218.21L80.0047 218.222C80.9347 218.671 81.0848 219.392 82.0429 219.855C81.9236 219.797 82.0509 219.931 82.0282 219.943C82.4101 220.225 82.8094 220.538 82.942 220.389C83.21 220.612 83.119 220.617 83.1042 220.706C83.1592 220.637 83.4124 220.801 83.6228 220.974L83.5062 220.92L84.1226 221.387L84.1092 221.164C84.3987 221.458 84.0636 221.385 84.3933 221.601L84.4764 221.491C84.8108 221.858 85.1167 222.249 85.3916 222.663C87.1336 224.137 89.287 225.369 90.8441 226.83L90.8574 226.964C90.7998 227.11 91.4591 227.138 91.4403 227.299L91.6789 227.393C91.7177 227.456 91.8129 227.567 91.7003 227.52C91.803 227.609 91.9257 227.673 92.058 227.705L92.2015 227.923C92.8902 228.512 93.6178 228.815 94.3642 229.398C95.5265 230.364 96.7868 231.206 98.1243 231.91C99.6947 232.682 101.041 234.313 102.695 235.037C102.75 235.085 102.82 235.111 102.893 235.11L104.063 235.874C104.247 235.499 104.434 235.129 104.614 234.751C104.409 234.642 104.211 234.52 104.02 234.387V234.387Z" fill="#202020"/>
<path d="M249.433 27.8643C249.604 28.1904 249.798 28.5039 250.014 28.8024C249.873 28.4599 249.677 28.143 249.433 27.8643V27.8643Z" fill="white"/>
<path d="M249.43 27.855L249.439 27.8669L249.43 27.855Z" fill="white"/>
<path d="M253.959 44.3785C253.677 42.9532 253.022 41.6281 252.061 40.5383C251.087 39.4797 249.86 38.6857 248.496 38.2304C247.471 37.88 246.407 37.655 245.327 37.5602C244.743 37.4315 244.15 37.3491 243.553 37.3136C243.847 37.3673 243.741 37.4168 243.512 37.3981C241.929 37.2949 243.387 37.4476 241.815 37.3886C240.229 37.3939 238.657 37.096 237.183 36.5108C236.446 36.1752 235.793 35.6792 235.272 35.0592C234.97 34.6987 234.757 34.2727 234.649 33.8152C234.427 33.1968 234.41 32.5234 234.6 31.8946L234.611 31.9656C234.695 31.6252 234.822 31.2969 234.989 30.9885C235.119 30.7453 235.265 30.5112 235.426 30.2875L235.56 30.1094L235.685 29.9752C235.754 29.8827 235.88 29.7822 235.975 29.683C236.444 29.2796 236.954 28.9253 237.495 28.6255C237.995 28.3427 238.421 28.147 238.633 28.0424L238.509 28.0801C238.907 27.8599 239.346 27.723 239.798 27.6779C239.676 27.5747 240.318 27.3054 240.566 27.2491V27.2798C240.75 27.2316 241.047 27.1459 241.358 27.0869C241.513 27.0611 241.669 27.0462 241.826 27.0426C241.997 27.0384 242.169 27.0461 242.339 27.0655L242.305 27.1337C242.952 27.1715 243.587 27.323 244.182 27.5814C245.203 28.0941 246.134 28.7696 246.938 29.5812C247.053 29.8114 247.156 30.0476 247.246 30.2889C247.274 30.312 247.301 30.3367 247.327 30.3626C247.783 30.282 248.231 30.1613 248.667 30.002C249.31 29.7501 249.964 29.2863 249.525 28.2489L249.603 28.2316C249.515 28.119 249.425 28.0077 249.327 27.9045C249.023 27.4877 248.791 27.3858 248.866 27.359C249.031 27.5252 249.18 27.7061 249.331 27.8857C249.01 27.4836 249.274 27.7275 249.434 27.8521L249.063 27.3764C248.971 27.3227 249.095 27.4501 249.137 27.5212C248.925 27.3362 248.613 27.1029 248.381 26.859C247.991 26.5025 248.441 26.7397 247.966 26.3417C246.706 25.2979 245.226 24.5532 243.637 24.1636C243.24 24.0681 242.837 23.996 242.432 23.9478C242.405 23.8419 242.366 23.7394 242.316 23.6422C242.39 23.5872 242.363 23.5296 242.379 23.48C242.35 23.5109 242.292 23.5095 242.292 23.4894C242.283 23.3553 242.236 23.4894 242.182 23.3554C242.094 23.0505 242.077 22.7296 242.133 22.4172C241.999 22.3555 242.08 22.2469 241.999 22.1826H242.028C241.973 22.1075 242.017 21.6331 241.962 21.5446L241.948 21.5594C241.863 21.487 241.993 21.4802 242.024 21.4105C241.984 21.4225 241.942 21.4233 241.902 21.4129C241.862 21.4025 241.825 21.3813 241.796 21.3516H241.826C241.798 21.314 241.67 21.239 241.644 21.1747L241.716 21.1667C241.631 21.1211 241.649 21.0125 241.635 20.9736C241.653 20.8771 241.759 20.719 241.646 20.6091L241.841 20.5018L241.819 20.4924C240.811 20.5623 239.809 20.712 238.824 20.9401L238.752 20.9481L238.767 20.979C238.736 21.0219 238.821 21.0286 238.749 21.0353V20.9816C238.733 21.0232 238.692 21.0018 238.649 20.9924C238.645 21.0122 238.634 21.0298 238.618 21.042C238.646 21.042 238.646 21.0325 238.661 21.0245C238.689 21.0419 238.761 21.0608 238.732 21.0916C238.732 21.1318 238.615 21.1089 238.614 21.1572C238.571 21.4019 238.563 21.6515 238.591 21.8984C238.585 21.9024 238.577 21.9046 238.57 21.9046C238.562 21.9046 238.555 21.9024 238.548 21.8984C238.59 21.9694 238.587 22.0324 238.629 22.0995C238.597 22.1197 238.563 22.1346 238.527 22.1436C238.584 22.1235 238.643 22.507 238.629 22.515L238.763 22.5016C238.775 22.5753 238.618 22.5432 238.658 22.6062C238.846 22.6062 238.658 22.7215 238.756 22.7308C238.741 22.7308 238.74 22.767 238.682 22.7724C238.783 22.7724 238.71 22.8031 238.738 22.8205C238.767 22.8379 238.768 22.8113 238.796 22.8005L238.838 22.8434C238.808 22.8675 238.751 22.8795 238.737 22.8608C238.706 23.1505 238.719 23.4434 238.775 23.7294C238.847 23.7026 238.791 23.6676 238.909 23.6355C238.98 23.6623 238.893 23.6918 238.965 23.6972C238.791 23.7347 238.934 23.7816 238.76 23.8312H238.86L238.801 23.858C238.927 24.0001 238.858 23.8861 238.852 24.0281C238.879 24.1059 239.023 24.1248 238.978 24.177C238.99 24.1673 239.004 24.1607 239.019 24.1579C239.034 24.1551 239.05 24.156 239.064 24.1608C238.978 24.1769 239.135 24.2077 239.048 24.2305C239.057 24.2426 239.063 24.2761 239.099 24.2855C238.944 24.3297 238.788 24.3768 238.635 24.4197C238.556 24.4197 238.635 24.3875 238.722 24.3446C237.879 24.6358 237.063 25.0013 236.284 25.4369C236.162 25.4892 236.032 25.5196 235.9 25.5267C235.213 25.9644 234.551 26.4423 233.92 26.9582C233.653 27.1855 233.404 27.4315 233.172 27.6941C232.966 27.9273 232.775 28.1734 232.6 28.4312C232.306 28.8547 232.138 29.171 232.123 29.1871L232.205 29.3091C231.746 30.2286 231.918 29.4995 231.572 30.4109C231.54 30.7488 231.465 31.0812 231.348 31.4C231.242 31.7186 231.19 32.0532 231.197 32.3892C231.175 32.3771 231.142 32.8852 231.092 32.8543C231.186 33.0112 231.111 33.3905 231.177 33.7135C231.218 33.8301 231.197 33.6237 231.218 33.5325C231.252 33.7807 231.299 34.0269 231.36 34.2698C231.39 34.5633 231.36 34.6503 231.269 34.3367C231.443 35.2053 231.794 36.0288 232.3 36.756C233.024 37.7854 233.972 38.6372 235.072 39.2477C236.101 39.8255 237.217 40.2328 238.377 40.4539C239.084 40.5965 239.8 40.6911 240.521 40.7368C240.322 40.6456 239.812 40.643 239.632 40.4969C239.907 40.5255 240.184 40.5398 240.46 40.5398C240.61 40.7355 241.384 40.6578 241.68 40.8534L241.804 40.7608L242.003 40.8346C242.894 40.8346 242.982 40.8253 243.059 40.8346C243.135 40.844 243.193 40.8614 243.926 40.9284C244.483 40.9119 245.042 40.9442 245.594 41.0249C245.531 41.0115 245.363 40.9244 245.575 40.9325C245.595 41.0223 246.129 40.9699 246.206 41.0825C246.406 41.1107 247.01 41.2917 246.836 41.1188C246.928 41.2019 247.439 41.4028 247.112 41.3479C247.263 41.4116 247.418 41.4659 247.576 41.5102L247.369 41.3962C247.956 41.5985 248.185 41.8331 248.561 41.9323C248.51 41.8792 248.457 41.8286 248.401 41.7808C248.708 41.9484 248.947 42.1133 248.973 42.2875C248.88 42.2245 248.774 42.1735 248.677 42.1159C249.033 42.3663 249.371 42.6428 249.686 42.943L249.584 42.8209C250.119 43.3152 250.513 43.943 250.725 44.6398C250.95 45.3672 251.072 46.1223 251.089 46.8835L251.211 46.6155C251.211 46.791 251.23 46.9707 251.23 47.1516C251.246 47.0873 250.962 46.8594 250.997 46.8165C250.954 47.3239 250.842 47.8229 250.664 48.3002C250.376 49.0472 249.943 49.7303 249.391 50.3107C248.821 50.9081 248.152 51.4039 247.415 51.777C246.951 52.0204 246.458 52.206 245.949 52.3294C245.525 52.3991 245.838 52.2086 245.836 52.1952C245.35 52.3574 245.646 52.3453 245.216 52.4338C245.095 52.4338 245.228 52.3628 245.29 52.332C245.105 52.3789 244.925 52.3708 244.919 52.4177C245.158 52.4177 245.078 52.5424 245.193 52.5987C245.003 52.6228 244.814 52.6603 244.624 52.6697L244.641 52.5948C244.371 52.7449 244.065 52.8177 243.757 52.8052C242.742 52.7869 241.736 52.6169 240.771 52.3011C240.919 52.285 241.069 52.2964 241.213 52.3346C241.064 52.3022 240.919 52.2509 240.782 52.1818C240.987 52.3306 240.371 52.0987 240.538 52.1885C239.776 51.9972 239.043 51.7037 238.359 51.3159C237.9 51.614 237.422 51.8828 236.928 52.1203C236.225 52.4741 235.468 52.773 235.411 52.8467C235.257 52.7287 235.109 52.6019 234.969 52.4673C235.147 52.6801 235.359 52.8614 235.597 53.0035L235.694 52.9485C236.207 53.2715 235.769 53.0826 236.266 53.4123C236.245 53.5021 235.778 53.2113 235.387 52.9244C235.73 53.1925 236.057 53.4927 236.255 53.5115C236.58 53.7635 236.156 53.5758 236.561 53.8693C236.936 54.0342 237.302 54.219 237.657 54.4228L237.644 54.4323C238.371 54.7938 239.129 55.0897 239.908 55.3168H239.806C240.296 55.4875 240.795 55.6294 241.3 55.7417C241.138 55.6921 241.008 55.6077 241.357 55.6627C242.012 55.841 242.482 55.8396 242.975 55.9307C243.109 55.92 243.244 55.8999 243.371 55.8811C243.393 56.0054 243.431 56.1263 243.485 56.2404C243.408 56.2847 243.431 56.3356 243.412 56.3744C243.443 56.3503 243.501 56.353 243.499 56.3744C243.499 56.4964 243.554 56.3744 243.599 56.4991C243.667 56.7683 243.663 57.0504 243.589 57.318C243.712 57.3756 243.631 57.4694 243.711 57.5297H243.683C243.733 57.5981 243.66 58.0176 243.711 58.0994L243.727 58.086C243.808 58.153 243.678 58.1543 243.643 58.22C243.682 58.2094 243.724 58.2093 243.763 58.2197C243.803 58.23 243.839 58.2505 243.868 58.2791H243.838C243.865 58.3139 243.987 58.3862 244.011 58.4438H243.939C244.021 58.4854 243.999 58.586 244.011 58.6222C243.991 58.7093 243.877 58.8554 243.991 58.9639L243.796 59.0672L243.818 59.0752C243.818 59.0752 244.44 59.023 245.125 58.9412C245.695 58.8882 246.26 58.7894 246.815 58.6462L246.887 58.6395L246.874 58.6154C246.906 58.5819 246.821 58.5793 246.892 58.5726V58.6128C246.908 58.5807 246.95 58.5967 246.992 58.602C246.998 58.5859 247.01 58.5726 247.025 58.5646C246.997 58.5646 246.995 58.5726 246.981 58.5793C246.953 58.5659 246.883 58.5525 246.914 58.5297C246.914 58.4989 247.029 58.5135 247.033 58.4774C247.088 58.2808 247.108 58.0764 247.093 57.873C247.123 57.8649 247.121 57.873 247.136 57.873C247.099 57.8127 247.104 57.7563 247.066 57.7026C247.099 57.6858 247.135 57.6741 247.171 57.6678C247.112 57.6839 247.077 57.3569 247.092 57.3502H246.958C246.95 57.2886 247.105 57.3193 247.068 57.2643C246.882 57.2576 247.079 57.1666 246.979 57.1545C246.994 57.1545 246.997 57.125 247.055 57.1223C246.954 57.1223 247.029 57.0942 247.002 57.0794C246.975 57.0647 246.973 57.0861 246.942 57.0942L246.903 57.0554C246.934 57.0366 246.993 57.0272 247.005 57.0446C247.055 56.7974 247.061 56.5434 247.025 56.2939C246.95 56.314 247.005 56.3462 246.891 56.3703C246.821 56.3449 246.91 56.3222 246.839 56.3155C247.014 56.2887 246.876 56.2431 247.053 56.2056H246.953L247.012 56.1854C246.896 56.0514 246.958 56.1586 246.973 56.0352C246.951 55.9655 246.809 55.9441 246.857 55.9012C246.844 55.9092 246.83 55.9143 246.814 55.9161C246.799 55.918 246.784 55.9166 246.769 55.912C246.858 55.9013 246.702 55.8678 246.791 55.8517C246.778 55.8356 246.79 55.7767 246.666 55.8062C246.725 55.7914 246.745 55.7378 246.8 55.7646C246.8 55.7459 246.819 55.7284 246.791 55.7177L246.76 55.7432C246.737 55.6856 246.827 55.6452 246.715 55.6157L246.67 55.6413C246.659 55.6078 246.647 55.5782 246.765 55.5541L246.805 55.5876C246.804 55.5595 246.795 55.5323 246.78 55.5087C246.765 55.4852 246.743 55.4662 246.718 55.4536V55.4711L246.702 55.4577C247.95 55.1097 249.129 54.5483 250.186 53.7983C251.366 52.9528 252.346 51.8595 253.059 50.5949C253.555 49.7049 253.891 48.7344 254.051 47.7279V47.8272C254.237 46.6821 254.206 45.5121 253.959 44.3785V44.3785Z" fill="white"/>
<path d="M238.72 20.8972C238.643 20.9267 238.641 20.9603 238.631 20.9924C238.704 20.9589 238.733 20.9294 238.72 20.8972Z" fill="white"/>
<path d="M246.874 58.6825C246.951 58.6584 246.955 58.6329 246.965 58.6074C246.892 58.6342 246.865 58.6571 246.874 58.6825Z" fill="white"/>
<path d="M237.438 140.449C237.142 140.79 236.893 141.168 236.697 141.574C236.977 141.222 237.225 140.845 237.438 140.449Z" fill="white"/>
<path d="M237.443 140.443V140.434L237.434 140.449L237.443 140.443Z" fill="white"/>
<path d="M274.345 123.238C274.426 123.259 274.512 123.251 274.588 123.214C274.548 123.201 274.506 123.197 274.464 123.201C274.422 123.205 274.382 123.218 274.345 123.238V123.238Z" fill="white"/>
<path d="M284.385 129.244C284.356 129.161 284.283 129.056 284.308 128.955H284.319C284.356 128.709 284.185 128.602 284.222 128.377L284.247 128.398C284.273 128.316 284.208 128.17 284.23 128.028C284.222 128.069 284.181 128.109 284.164 128.028C284.185 127.865 284.134 127.76 284.164 127.638L284.09 127.534C284.039 126.977 283.702 124.794 283.629 124.238L283.641 124.258L283.41 122.537L283.276 121.587L283.105 120.505C283.114 120.21 283.102 119.915 283.067 119.622C283.061 119.784 283.015 119.756 283.004 119.647C282.923 118.863 282.96 119.622 282.849 118.873C282.805 118.659 282.765 118.237 282.692 117.78C282.064 118.048 281.256 118.398 280.548 118.663C280.398 118.722 280.267 118.767 280.146 118.808C280.186 118.733 280.231 118.66 280.28 118.59C280.209 118.657 280.149 118.735 280.101 118.82C279.943 118.871 279.799 118.914 279.658 118.954C279.575 118.983 279.489 119.008 279.403 119.027L279.251 119.063C279.058 119.222 278.753 119.248 278.549 119.372L278.565 119.346C278.34 119.453 276.946 119.797 276.669 119.918H276.71C276.48 120.052 276.484 119.943 276.279 119.977C276.335 120.064 276.145 120.186 276.061 120.22V120.198C275.944 120.252 275.692 120.426 275.494 120.506L275.484 120.453C275.295 120.556 275.094 120.639 274.887 120.699C274.5 120.767 274.127 120.894 273.779 121.075L273.47 121.039L273.441 121.069C273.508 121.396 273.601 121.717 273.717 122.029C273.9 122.518 274.168 123.022 274.459 123.116L274.474 123.168L274.554 123.125C274.663 123.107 274.688 123.029 274.702 123.083L274.568 123.135C274.674 123.107 274.615 123.163 274.589 123.209C274.63 123.194 274.672 123.186 274.715 123.184C274.729 123.158 274.692 123.17 274.672 123.166C274.719 123.125 274.779 123.048 274.856 123.044C274.964 123.005 274.896 123.123 275.022 123.078C275.692 122.861 276.397 122.698 277.112 122.457C277.136 122.474 277.112 122.479 277.099 122.496C277.309 122.404 277.501 122.351 277.699 122.266C277.741 122.269 277.78 122.287 277.81 122.316C277.794 122.305 277.912 122.257 278.079 122.201C278.053 122.239 278.032 122.282 278.005 122.32L277.995 122.304C277.281 123.385 277.159 124.1 276.5 125.085L276.535 124.958C276.284 125.297 275.948 126.05 275.531 126.679C275.653 126.5 275.799 126.37 275.593 126.771C275.12 127.499 274.885 128.043 274.513 128.561L274.298 129.135L274.183 129.342L274.109 129.485L273.954 129.314L271.542 125.974L267.699 120.64L267.779 120.729L258.713 108.032C258.088 110.603 257.484 113.089 256.931 115.365L256.362 117.77L256.019 119.293C255.751 119.988 255.529 120.98 255.319 121.719C255.453 121.317 255.486 121.471 255.402 121.794C254.827 124.073 255.424 121.963 254.891 124.273C254.603 125.606 253.807 128.802 252.999 131.954C252.597 133.529 252.186 135.096 251.843 136.415L251.603 137.322L251.545 137.491C251.51 137.592 251.482 137.665 251.461 137.711C251.47 137.937 251.442 138.164 251.376 138.381C251.315 138.289 251.238 138.209 251.149 138.144L251.166 138.114C251.061 137.998 250.965 137.874 250.877 137.744L249.475 135.837C248.107 133.979 246.723 132.1 246.225 131.477L246.339 131.661C246.058 131.349 245.807 131.011 245.59 130.651C245.549 130.582 245.547 130.564 245.474 130.452L245.265 130.125C245.109 129.885 244.911 129.588 244.62 129.186C244.654 129.357 244.339 129.036 243.973 128.617C243.607 128.197 243.18 127.679 242.946 127.377L242.971 127.353L242.301 126.52L242.097 126.273C242.078 126.232 242.063 126.265 242.047 126.294L241.999 126.374L241.903 126.538L241.501 127.216C240.957 128.14 240.386 129.106 239.893 129.897L239.878 129.763C239.685 130.11 239.43 130.542 239.182 130.957L238.684 131.785C238.344 132.336 238.022 132.858 237.844 133.15C236.702 134.817 235.651 136.544 234.695 138.323L233.825 139.402L233.751 139.593C233.986 140.103 234.314 140.564 234.719 140.953C234.873 141.119 235.064 141.247 235.275 141.328C235.487 141.408 235.715 141.439 235.94 141.417C236.166 141.395 236.383 141.322 236.576 141.202C236.768 141.083 236.931 140.92 237.05 140.728L237.101 140.804L237.348 140.338C237.694 139.802 237.759 139.5 237.809 139.579L237.371 140.333C237.704 139.788 237.521 140.199 237.444 140.433C237.578 140.205 237.712 139.984 237.846 139.812C237.881 139.686 237.771 139.876 237.712 139.947C237.865 139.559 238.053 139.187 238.274 138.834C238.612 138.268 238.408 138.864 238.81 138.205C239.869 136.475 240.954 134.782 242.038 133.088L242.219 132.808L242.236 132.789L242.268 132.756L242.322 132.699C242.337 132.662 242.354 132.709 242.369 132.727C242.384 132.746 242.401 132.77 242.419 132.79C242.412 132.806 242.4 132.819 242.386 132.828H242.404H242.412C242.412 132.828 242.405 132.816 242.468 132.898L243.004 133.595L244.052 134.943C244.144 135.087 244.212 135.246 244.253 135.412C244.223 135.317 245.18 136.564 246.152 137.845L248.615 141.139L248.79 141.126C250.197 143.003 249.131 141.863 250.479 143.602C250.988 144.109 251.442 144.67 251.833 145.273C252.232 145.868 252.664 146.44 253.126 146.986L253.136 147.001C253.155 146.986 253.404 146.042 253.416 146.234C253.505 145.607 253.64 144.987 253.818 144.379C253.857 144.088 253.752 144.498 253.684 144.615L254.027 143.068C254.196 142.543 254.283 142.472 254.13 143.135L256.531 133.813C257.296 130.838 258.055 127.841 258.3 126.734C258.171 127.136 258.017 127.531 257.839 127.914C257.91 127.314 258.078 127.065 258.063 126.789C258.315 126.614 258.427 125.522 258.733 125.131L258.663 124.936L258.797 124.668C258.954 123.7 259.18 122.744 259.475 121.809C259.785 120.493 259.786 119.831 260.023 119.115C259.995 119.224 259.856 119.496 259.912 119.149C260.023 119.115 260.068 118.227 260.207 118.086L260.287 117.729C260.289 117.71 260.289 117.69 260.287 117.67C260.286 117.646 260.275 117.622 260.258 117.605C260.24 117.587 260.217 117.576 260.192 117.574C260.265 117.574 260.317 117.476 260.348 117.597C260.36 117.563 260.383 117.555 260.366 117.495C260.352 117.495 260.338 117.498 260.325 117.503C260.352 117.312 260.427 117.45 260.384 117.111C260.371 117.094 260.355 117.079 260.338 117.066C260.352 116.992 260.365 116.916 260.387 116.925C260.422 117.019 260.448 117.117 260.466 117.216C260.458 117.222 260.451 117.229 260.445 117.237V117.29V117.267C260.504 117.342 260.529 117.355 260.609 117.353L260.582 117.308C260.61 117.29 260.672 117.322 260.772 117.406L260.853 117.479L260.898 117.523L260.91 117.534L260.955 117.591L261.055 117.725L261.882 118.81C263 120.275 264.114 121.728 264.5 122.126L264.294 121.652L264.91 122.371C264.847 122.278 264.374 122.196 264.344 122.103L268.566 128L271.191 131.696C272.448 133.474 273.434 134.884 273.896 135.566C274.647 136.728 274.03 136.053 274.02 136.058C274.253 136.372 274.396 136.553 274.489 136.663C274.657 136.238 274.86 135.827 275.094 135.434C275.281 135.136 275.078 135.629 274.976 135.845C275.196 135.489 275.392 135.118 275.563 134.737C275.181 135.347 275.295 134.871 275.122 135.005L275.943 133.556V133.718C276.261 132.882 276.643 132.072 277.084 131.293L277.784 130.071L278.416 128.941L279.672 126.7C279.621 126.941 279.534 127.173 279.412 127.388C279.531 127.159 279.665 126.938 279.814 126.727C279.546 127.037 280.103 126.086 279.918 126.344C280.274 125.496 280.692 124.676 281.169 123.891C281.203 124.056 281.258 124.216 281.332 124.368L281.391 124.267L281.469 124.435C281.469 124.414 281.234 124.376 281.254 124.357C281.304 124.728 281.577 126.657 281.569 127.007C281.546 127.149 281.462 127.045 281.451 127.043C281.497 127.209 281.533 127.108 281.544 127.252C281.536 127.292 281.488 127.252 281.476 127.23C281.492 127.291 281.475 127.353 281.506 127.353C281.522 127.272 281.612 127.295 281.664 127.256L281.678 127.441H281.623C281.623 127.483 281.784 127.53 281.776 127.709C281.786 128.019 281.843 128.349 281.865 128.657C281.832 128.657 281.806 128.594 281.78 128.531C281.791 128.579 281.791 128.628 281.78 128.676C281.829 128.594 281.833 128.8 281.851 128.739C282.009 128.949 281.922 129.255 282.034 129.444C282.155 129.444 284.134 129.635 284.276 129.619C284.283 129.667 284.283 129.715 284.276 129.763C284.307 129.744 284.31 129.621 284.283 129.558H284.205C284.162 129.413 284.247 129.519 284.225 129.374C284.287 129.359 284.315 129.491 284.334 129.607C284.334 129.501 284.363 129.391 284.289 129.355C284.308 129.263 284.371 129.367 284.385 129.244Z" fill="white"/>
<path d="M148.09 104.924C148.014 104.928 147.94 104.954 147.88 105C147.819 105.046 147.774 105.109 147.75 105.181C147.988 105.124 148.098 105.045 148.09 104.924Z" fill="#FDFFFE"/>
<path d="M157.297 106.329C157.297 106.329 149.955 104.791 148.291 105.157L148.078 105.117L148.089 105.239C147.963 105.365 148.202 105.465 147.989 105.425L148.043 105.236C147.96 105.37 147.861 105.254 147.747 105.181C147.72 105.244 147.673 105.296 147.613 105.329C147.692 105.369 147.705 105.321 147.755 105.306C147.821 105.393 148.007 105.528 147.889 105.606C147.847 105.748 147.539 105.566 147.487 105.731C147.134 106.566 146.882 107.441 146.737 108.336C146.644 108.344 146.651 108.32 146.615 108.288C146.668 108.574 146.6 108.811 146.66 109.072C146.554 109.114 146.441 109.135 146.326 109.134C146.511 109.119 146.326 110.528 146.274 110.544L146.66 110.616C146.627 110.884 146.204 110.631 146.265 110.884C146.801 111.061 146.15 111.286 146.428 111.42C146.385 111.412 146.351 111.53 146.18 111.498C146.472 111.579 146.231 111.632 146.297 111.721C146.376 111.76 146.388 111.713 146.482 111.705L146.561 111.895C146.456 111.95 146.278 111.942 146.257 111.863C145.898 112.867 145.663 113.911 145.559 114.972C145.793 114.942 145.663 114.767 146.025 114.761C146.205 114.919 145.928 114.943 146.128 115.029C145.592 115.002 145.962 115.297 145.414 115.318L145.707 115.399L145.514 115.438C145.742 116.054 145.648 115.589 145.504 116.088C145.504 116.286 145.678 116.44 145.744 116.563L145.725 116.728C145.546 118.399 145.363 120.071 145.177 121.744L146.202 121.878L148.748 122.202L155.582 123.071C155.597 122.631 155.611 122.267 155.627 122.063L155.662 122.095C155.819 120.716 155.872 119.327 155.819 117.94C156.079 117.814 156.055 117.585 156.146 117.427C156.033 117.506 155.869 117.449 155.889 117.378C155.991 116.873 155.729 117.321 155.702 116.791C155.731 115.639 155.976 114.502 156.425 113.44C156.115 113.108 156.431 112.793 156.249 112.483L156.328 112.524C156.238 112.207 156.807 110.571 156.73 110.206L156.674 110.245C156.5 109.913 156.878 110.009 157.032 109.789C156.901 109.788 156.774 109.747 156.667 109.673C156.559 109.598 156.477 109.492 156.431 109.37L156.517 109.386C156.473 109.228 156.18 108.842 156.162 108.588L156.375 108.63C156.174 108.391 156.326 108.02 156.324 107.87C156.458 107.547 156.911 107.082 156.691 106.591L157.347 106.389L157.297 106.329Z" fill="#FDFFFE"/>
<path d="M165.706 90.8113C165.456 90.9265 165.406 91.1692 165.341 91.397C165.45 91.3429 165.542 91.2594 165.606 91.156C165.671 91.0526 165.706 90.9332 165.706 90.8113V90.8113Z" fill="#FDFFFE"/>
<path d="M174.944 92.0178C174.944 92.0178 167.614 90.2164 165.892 91.2592L165.679 91.215V91.4602C165.545 91.7377 165.776 91.8999 165.563 91.8624L165.634 91.4683C165.539 91.7524 165.446 91.5366 165.338 91.412C165.311 91.5293 165.259 91.6394 165.186 91.7349C165.262 91.802 165.28 91.7028 165.332 91.6626C165.38 91.7967 165.502 91.987 165.476 92.1505C165.218 92.0862 165.04 92.0446 164.969 92.0339C165.001 91.8918 165.032 91.751 165.086 91.7135C164.952 91.7309 164.843 92.0044 164.897 92.1652L165.194 92.2349C165.208 92.2885 165.205 92.3448 165.187 92.3971C165.151 92.4012 165.117 92.4184 165.092 92.4454C165.04 92.4574 164.986 92.4815 164.973 92.6289C164.724 92.6115 164.717 92.294 164.733 92.0165C164.669 92.2578 164.453 92.4763 164.708 92.617C164.574 92.8328 164.41 92.5459 164.264 92.8086C164.307 93.0177 164.509 93.3139 164.33 93.5203L164.287 93.5097C163.951 94.0244 164.536 94.4117 164.209 94.8795L164.136 94.8124C163.967 94.9705 164.106 95.3485 163.906 95.6501C163.969 95.5656 164.16 95.5161 164.161 95.7104C163.951 96.0576 164.069 96.3337 163.837 96.5763L164.039 96.8724C163.948 97.367 163.83 98.4393 163.711 99.6429C163.659 99.663 163.608 99.6778 163.565 99.6912C163.625 100.652 163.566 101.617 163.392 102.563L163.436 102.573L163.393 103.034C163.35 103.106 163.336 103.191 163.352 103.273C163.36 103.273 163.362 103.282 163.37 103.286C163.322 103.802 163.279 104.224 163.247 104.518C163.235 104.518 163.227 104.526 163.214 104.518C163.227 104.518 163.234 104.528 163.246 104.534L163.238 104.601L163.207 104.544C163.156 105.14 163.064 105.921 162.962 106.778C162.639 108.398 162.415 110.036 162.292 111.683C162.414 111.631 162.445 111.52 162.493 111.415C162.477 111.664 162.466 111.903 162.459 112.127C162.433 112.201 162.387 112.268 162.327 112.319C162.266 112.37 162.193 112.404 162.115 112.418L162.406 112.529L162.207 112.641C162.229 112.785 162.246 112.896 162.261 112.987C162.158 113.231 162.127 113.506 162.045 113.726C162.062 113.697 162.086 113.674 162.115 113.659C162.144 113.644 162.177 113.638 162.21 113.641C162.189 113.72 162.166 113.822 162.14 113.963C162.119 114.573 162.501 114.901 162.31 115.226C162.31 115.204 162.356 115.173 162.404 115.156C162.181 117.319 161.774 119.46 161.185 121.553C161.453 122.162 161.086 122.819 161.226 123.398L161.151 123.331C161.153 123.48 161.141 123.629 161.117 123.776L162.485 123.95L171.037 125.037L171.855 125.141C171.878 124.781 171.898 124.471 171.916 124.272L171.948 124.329C172.034 122.741 172.343 119.894 172.442 117.673C172.469 117.48 172.485 117.286 172.489 117.091C172.48 117.096 172.471 117.101 172.462 117.107C172.462 116.892 172.472 116.687 172.472 116.49C172.535 116.441 172.609 116.409 172.687 116.394L172.472 116.306V116.242L172.606 116.176C172.58 115.969 172.562 115.83 172.547 115.73C172.686 115.42 172.785 115.093 172.842 114.758C172.828 114.782 172.808 114.803 172.785 114.819C172.762 114.835 172.735 114.846 172.708 114.85C172.71 114.668 172.681 114.487 172.622 114.314C172.622 114.18 172.599 114.156 172.567 114.14C172.532 114.069 172.515 113.99 172.516 113.911C172.518 113.832 172.538 113.754 172.575 113.684C172.575 113.71 172.508 113.747 172.441 113.755C172.441 113.695 172.441 113.628 172.441 113.548C172.441 113.467 172.441 113.343 172.441 113.217C172.449 113.217 172.45 113.217 172.458 113.21C172.458 113.139 172.472 112.998 172.458 112.88C172.466 112.738 172.48 112.584 172.495 112.42C172.537 112.4 172.578 112.412 172.616 112.503C172.649 112.361 172.721 112.235 172.658 112.115L172.531 112.285C172.549 111.821 172.825 111.595 172.624 111.266C172.645 111.113 172.665 110.959 172.687 110.801C172.731 110.784 172.776 110.772 172.821 110.765L172.887 111.079C172.968 110.678 172.951 110.265 172.839 109.872L172.808 110.014V110.006C172.972 108.86 173.196 107.724 173.478 106.601C173.191 105.979 173.54 105.283 173.382 104.688L173.458 104.755C173.394 104.128 174.111 100.701 174.065 99.9754L174.003 100.065C173.855 99.4205 174.231 99.5492 174.405 99.0734C174.003 99.0935 173.839 98.5371 173.83 98.3307L173.916 98.3482C173.783 97.8373 173.686 97.3178 173.624 96.7934L173.837 96.8376C173.789 96.7087 173.763 96.573 173.759 96.4356C173.773 96.4718 173.785 96.5093 173.798 96.5468C173.818 96.4517 173.808 96.3002 173.914 96.2265C173.814 96.2801 173.78 96.2426 173.759 96.1836C173.776 95.8351 173.843 95.4839 173.849 95.3016C174.202 94.4596 174.367 93.5508 174.333 92.6384L175.016 92.1103L174.944 92.0178Z" fill="#FDFFFE"/>
<path d="M164.747 91.8247C164.747 91.881 164.737 91.9454 164.733 92.0098C164.752 91.95 164.757 91.8866 164.747 91.8247V91.8247Z" fill="#FDFFFE"/>
<path d="M180.769 101.937C180.523 102.009 180.477 102.182 180.417 102.339C180.658 102.243 180.773 102.12 180.769 101.937Z" fill="#FDFFFE"/>
<path d="M188.99 107.768L189.076 107.784C188.934 107.414 188.826 107.032 188.753 106.642L188.967 106.685C188.774 106.351 188.943 105.794 188.949 105.572C189.101 105.086 189.576 104.366 189.377 103.662L190.047 103.31L189.994 103.239C189.994 103.239 182.659 101.592 180.963 102.27L180.75 102.228V102.405C180.616 102.601 180.855 102.729 180.642 102.688L180.705 102.405C180.615 102.606 180.52 102.445 180.409 102.349C180.382 102.437 180.332 102.516 180.264 102.578C180.342 102.629 180.358 102.558 180.409 102.533C180.47 102.654 180.653 102.838 180.535 102.963C180.488 103.175 180.185 102.931 180.133 103.179C179.736 104.448 179.445 105.748 179.26 107.065C179.167 107.086 179.175 107.049 179.14 107.005C179.18 107.421 179.101 107.773 179.15 108.153C179.049 108.221 178.933 108.262 178.811 108.272C178.998 108.234 178.746 110.321 178.695 110.348L179.081 110.423C179.035 110.825 178.621 110.482 178.671 110.86C179.207 111.074 178.537 111.462 178.805 111.627C178.76 111.617 178.722 111.796 178.55 111.761C178.842 111.853 178.597 111.954 178.659 112.077C178.736 112.128 178.751 112.058 178.845 112.039L178.917 112.307C178.809 112.397 178.629 112.4 178.61 112.285C178.203 113.802 177.921 115.351 177.769 116.914C178.006 116.85 177.883 116.605 178.249 116.564C178.423 116.783 178.143 116.833 178.341 116.952C177.805 116.959 178.16 117.354 177.607 117.437L177.899 117.531L177.703 117.603C177.906 118.492 177.831 117.816 177.663 118.56C177.672 118.76 177.731 118.954 177.835 119.125C177.642 121.354 177.408 123.579 177.132 125.799L178.195 125.933L184.958 126.792L187.559 127.124C187.575 126.862 187.588 126.642 187.602 126.494L187.635 126.537C187.855 124.502 187.97 122.457 187.98 120.411C188.248 120.205 188.234 119.875 188.332 119.631C188.215 119.756 188.052 119.687 188.076 119.581C188.201 118.83 187.918 119.509 187.914 118.733C187.992 117.038 188.287 115.36 188.792 113.74C188.494 113.277 188.828 112.787 188.658 112.349L188.735 112.401C188.66 111.943 189.306 109.489 189.246 108.961L189.187 109.022C189.026 108.548 189.403 108.658 189.568 108.321C189.423 108.307 189.288 108.245 189.183 108.145C189.078 108.044 189.01 107.912 188.99 107.768V107.768Z" fill="#FDFFFE"/>
</g>
<defs>
<clipPath id="clip0_1176_14498">
<rect width="402" height="296" fill="white"/>
</clipPath>
</defs>
</svg>
