<svg width="443" height="600" viewBox="0 0 443 600" fill="none" xmlns="http://www.w3.org/2000/svg">
<g clip-path="url(#clip0_1406_69971)">
<path d="M252.418 342.048H344.922L435.764 380.194C429.334 396.833 418.377 411.341 404.132 422.078C393.414 429.827 381.224 435.301 368.312 438.163C355.4 441.025 342.039 441.215 329.05 438.72C326.53 437.582 323.882 436.751 321.164 436.246C319.818 435.979 318.462 435.766 317.101 435.595C314.189 434.625 311.33 433.504 308.535 432.235C291.376 424.351 276.911 411.601 266.935 395.568C256.958 379.535 251.911 360.925 252.418 342.048V342.048Z" fill="#CCCCCC"/>
<path d="M441.868 355.971L441.854 356.069C441.738 357.04 441.607 358.011 441.46 358.983L441.424 359.223C441.28 360.17 441.12 361.115 440.944 362.059C440.927 362.151 440.908 362.244 440.891 362.338C440.718 363.267 440.531 364.194 440.33 365.117C440.308 365.22 440.284 365.323 440.26 365.427C440.058 366.339 439.844 367.249 439.617 368.158C439.59 368.268 439.562 368.376 439.533 368.487C439.293 369.389 439.053 370.287 438.813 371.182L438.717 371.515C438.46 372.406 438.189 373.296 437.908 374.179C437.872 374.292 437.834 374.405 437.798 374.515C437.513 375.397 437.216 376.277 436.907 377.155C436.866 377.268 436.823 377.381 436.782 377.496C436.47 378.365 436.15 379.229 435.822 380.088L435.777 380.211L344.934 342.067L441.868 355.971Z" fill="#97999B"/>
<path d="M439.649 322.32C439.681 322.445 439.707 322.56 439.738 322.694C439.892 323.306 440.038 323.918 440.18 324.535C440.245 324.816 440.312 325.097 440.374 325.38C440.515 326.02 440.649 326.666 440.777 327.317C440.828 327.574 440.883 327.83 440.933 328.09C441.07 328.81 441.193 329.53 441.313 330.25C441.344 330.434 441.377 330.619 441.409 330.804C441.553 331.721 441.684 332.64 441.802 333.562C441.882 334.187 441.955 334.814 442.021 335.441V335.527C442.081 336.108 442.136 336.689 442.184 337.27L442.203 337.51C442.249 338.066 442.29 338.626 442.325 339.19V339.365C442.441 341.245 442.497 343.125 442.496 345.005V345.086C442.496 345.694 442.489 346.302 442.474 346.908V346.978C442.453 347.971 442.405 348.965 442.349 349.958C442.333 350.302 442.316 350.642 442.292 350.986C442.222 352.056 442.141 353.126 442.035 354.197V354.245C441.981 354.792 441.921 355.339 441.855 355.886V355.98L344.895 342.06L439.649 322.32Z" fill="#53565A"/>
<path d="M378.634 255.6H378.658C380.409 256.202 382.139 256.855 383.85 257.561L384.154 257.688C384.874 257.988 385.594 258.293 386.295 258.61C386.511 258.703 386.722 258.804 386.936 258.9C387.534 259.171 388.136 259.445 388.719 259.728L389.478 260.098C390.03 260.369 390.577 260.643 391.122 260.923L391.916 261.336C392.456 261.619 392.991 261.912 393.526 262.207L394.285 262.627C394.858 262.951 395.43 263.285 395.996 263.621C396.195 263.741 396.399 263.861 396.598 263.976C397.366 264.44 398.126 264.914 398.878 265.399L399.015 265.488C399.61 265.875 400.215 266.27 400.789 266.669C401.005 266.818 401.221 266.967 401.434 267.118C401.878 267.425 402.318 267.737 402.757 268.051L403.381 268.505C403.986 268.95 404.586 269.401 405.183 269.858L405.507 270.115C406.011 270.506 406.508 270.902 407.002 271.315C407.211 271.486 407.42 271.656 407.626 271.829C408.042 272.171 408.454 272.518 408.862 272.87C409.054 273.034 409.244 273.195 409.434 273.351C410 273.842 410.56 274.341 411.114 274.848C411.243 274.966 411.37 275.088 411.5 275.208C411.942 275.616 412.381 276.026 412.813 276.444C413.01 276.631 413.204 276.821 413.396 277.01C413.79 277.392 414.176 277.778 414.562 278.167L415.066 278.676C415.59 279.214 416.107 279.757 416.619 280.306L417.027 280.755C417.418 281.179 417.807 281.609 418.189 282.041C418.369 282.242 418.549 282.447 418.726 282.653C419.093 283.075 419.457 283.501 419.818 283.93C419.962 284.1 420.109 284.268 420.25 284.441C420.73 285.017 421.203 285.6 421.669 286.19C421.806 286.363 421.942 286.541 422.079 286.716C422.422 287.158 422.766 287.602 423.102 288.051L423.582 288.706C423.922 289.166 424.261 289.632 424.594 290.098C424.714 290.266 424.834 290.434 424.954 290.602C425.386 291.213 425.81 291.83 426.226 292.452C426.363 292.656 426.495 292.862 426.632 293.069C426.928 293.518 427.22 293.97 427.508 294.422C427.659 294.662 427.81 294.902 427.959 295.142C428.264 295.622 428.564 296.122 428.859 296.614L429.174 297.134C429.551 297.774 429.919 298.414 430.278 299.054C430.414 299.294 430.546 299.534 430.681 299.774C430.921 300.216 431.161 300.655 431.401 301.099L431.826 301.903C432.08 302.396 432.33 302.889 432.574 303.382C432.702 303.636 432.829 303.89 432.954 304.147C433.238 304.733 433.518 305.321 433.791 305.911C433.93 306.211 434.065 306.511 434.199 306.811C434.379 307.212 434.559 307.615 434.734 308.011C434.874 308.33 435.01 308.647 435.145 308.971C435.332 309.411 435.512 309.852 435.69 310.294C435.886 310.783 436.08 311.274 436.27 311.767C436.402 312.11 436.537 312.451 436.664 312.797C436.688 312.857 436.707 312.917 436.729 312.977C436.914 313.471 437.089 313.97 437.264 314.467C437.379 314.796 437.504 315.122 437.607 315.449C437.754 315.882 437.897 316.318 438.034 316.754C438.159 317.135 438.282 317.519 438.402 317.904C438.531 318.325 438.657 318.745 438.778 319.164C438.894 319.553 439.006 319.942 439.117 320.333C439.242 320.782 439.357 321.23 439.482 321.682C439.537 321.895 439.599 322.106 439.654 322.32L344.914 342.041L378.634 255.6Z" fill="black"/>
<path d="M325.889 252.528C328.009 252.048 330.147 251.644 332.302 251.316C342.835 251.239 349.678 251.201 349.678 251.201C352.816 251.392 355.965 251.339 359.095 251.04C360.147 251.175 361.193 251.319 362.237 251.484C362.4 251.511 362.561 251.544 362.717 251.571C363.473 251.698 364.229 251.83 364.983 251.971L365.991 252.173C366.557 252.287 367.122 252.404 367.685 252.526C367.896 252.571 368.107 252.61 368.316 252.658C368.525 252.706 368.765 252.768 368.991 252.821C369.395 252.914 369.8 253.011 370.205 253.114C370.61 253.216 370.994 253.313 371.357 253.404C371.868 253.536 372.379 253.675 372.891 253.817C373.191 253.901 373.491 253.983 373.791 254.057C374.386 254.227 374.979 254.407 375.569 254.59L376.234 254.794C376.989 255.031 377.741 255.279 378.49 255.538L378.624 255.581L344.911 342.039L315.809 255.555C319.097 254.321 322.465 253.31 325.889 252.528V252.528Z" fill="#2E66FF"/>
<path d="M237.613 317.374C242.357 297.498 252.84 279.456 267.757 265.491C273.127 260.267 279.062 255.658 285.452 251.748C290.797 251.686 296.135 251.631 301.324 251.58L328.242 331.563H235.739C235.958 326.788 236.585 322.041 237.613 317.374V317.374Z" fill="#2E66FF"/>
<path d="M13.0104 101.203C16.7736 81.0267 21.636 60.6603 30.0744 42.0771C30.4296 41.2899 30.7929 40.5067 31.1641 39.7275C34.41 32.8219 38.2458 26.2094 42.6288 19.9635C47.1146 12.9746 53.2243 7.17443 60.4368 3.05786C63.7275 1.38074 67.3153 0.365568 70.9969 0.0698646C72.1574 -0.0172964 73.3227 -0.0229102 74.484 0.0530646C77.9055 0.231423 81.2265 1.27074 84.1393 3.07466C91.7641 7.92027 96.3649 18.0915 96.4345 27.1251C96.5041 36.1587 93.6144 44.9307 90.54 53.4267C81.948 77.1675 71.6521 100.289 63.8017 124.289C55.9513 148.289 50.5536 173.475 52.1856 198.672C68.2488 160.752 98.0448 129.252 134.107 109.339C136.771 107.871 139.466 106.459 142.195 105.113C158.446 89.9499 179.635 79.3083 200.249 82.6083C220.189 86.1353 238.941 94.5577 254.822 107.119C270.081 119.203 283.383 133.569 294.259 149.71C294.672 150.303 295.087 150.895 295.495 151.491L296.316 152.703C302.945 162.473 308.796 171.792 312.466 182.895C312.744 183.736 313.01 184.589 313.262 185.453C313.277 185.501 313.294 185.549 313.306 185.597C318.674 185.635 324.034 185.819 329.386 186.149C330.264 186.204 331.138 186.274 332.026 186.336C340.123 186.912 348.19 187.809 356.225 189.027C368.988 190.985 382.994 194.691 389.851 205.63C392.473 210.056 393.97 215.059 394.21 220.198C394.224 220.38 394.243 220.563 394.255 220.743C394.313 221.779 394.332 222.823 394.306 223.863C394.314 227.926 393.293 231.926 391.337 235.488C388.009 240.456 383.197 244.246 377.587 246.317C371.712 248.846 365.476 250.439 359.107 251.038C355.977 251.336 352.828 251.39 349.69 251.199C349.69 251.199 342.847 251.237 332.314 251.314C323.834 251.376 312.962 251.463 301.332 251.578C296.143 251.628 290.806 251.683 285.461 251.746C269.311 251.931 253.116 252.166 240.888 252.451C233.313 252.448 225.747 252.988 218.249 254.067C201.029 256.968 186.751 267.667 176.066 281.479C171.597 287.082 167.891 293.254 165.046 299.832C159.557 313.083 158.983 327.785 158.666 342.125C157.79 381.749 158.291 421.371 160.171 460.992C160.596 469.913 161.866 480.329 171.814 483.286C174.271 483.977 176.849 484.122 179.368 483.711C181.887 483.3 184.286 482.343 186.396 480.907C203.818 469.363 218.316 453.365 236.501 443.028C244.164 438.67 252.492 434.71 261.31 434.83C273.194 434.811 286.68 434.83 298.567 434.801C304.759 434.66 310.953 434.929 317.11 435.605C318.47 435.783 319.826 435.989 321.173 436.255C323.891 436.761 326.539 437.592 329.059 438.73C330.977 439.598 332.743 440.768 334.291 442.195C336.377 444.238 338.025 446.683 339.134 449.383C341.373 454.728 341.964 460.619 340.834 466.301C340.526 467.927 340.09 469.525 339.53 471.082C337.723 476.245 334.49 480.791 330.206 484.193C317.726 493.889 300.91 494.184 286.67 500.928C286.325 501.091 285.979 501.262 285.636 501.435L285.127 501.675C267.334 510.838 252.998 525.435 239.527 540.238C226.056 555.041 212.959 570.492 196.649 582.094C180.338 593.695 168.617 599.419 150.403 598.668L6.55205 599.988C5.82072 599.995 5.09532 599.857 4.41774 599.581C3.74015 599.306 3.12382 598.899 2.60433 598.385C2.08484 597.87 1.67247 597.257 1.39108 596.582C1.10968 595.907 0.964812 595.183 0.964843 594.451V226.541C0.987746 184.474 5.02119 142.505 13.0104 101.203V101.203ZM232.771 189.888C233.597 189.759 234.42 189.629 235.241 189.504C234.761 188.59 234.259 187.695 233.741 186.804C229.541 179.585 224.05 173.199 217.541 167.964C210.65 161.976 201.993 158.402 192.886 157.783C183.835 157.582 176.467 163.097 170.566 170.427C159.046 184.728 150.547 201.574 143.299 218.443C169.234 201.264 201.934 194.715 232.771 189.888Z" fill="#96999B"/>
<path d="M331.466 197.52L331.656 197.741C331.613 197.76 331.553 197.71 331.466 197.52Z" fill="black"/>
<path d="M388.286 225.557H388.356C388.313 225.567 388.298 225.564 388.286 225.557Z" fill="black"/>
<path d="M339.146 205.118L339.129 205.049L339.146 205.118Z" fill="black"/>
<path d="M353.349 223.162L353.378 223.339L353.349 223.162Z" fill="black"/>
<path d="M339.71 211.09C339.287 210.521 338.99 210.61 338.716 210.346C338.738 210.401 338.757 210.456 338.783 210.509C338.027 209.403 337.809 209.088 337.19 208.313C336.969 207.862 337.259 207.562 336.698 206.885C336.712 207.219 336.539 206.902 336.359 206.626C336.453 206.818 336.436 206.907 336.1 206.609C336.106 206.519 336.093 206.428 336.062 206.343C336.047 206.343 336.031 206.343 336.019 206.357C335.779 205.863 335.867 205.913 336.019 206.117C336.035 206.091 336.074 206.091 336.158 206.129C335.656 205.776 335.299 204.795 335.008 204.893C334.673 204.23 334.375 203.549 334.115 202.853C333.875 202.22 333.647 201.617 333.419 200.967C333.218 200.895 333.232 201.245 333.352 201.634L332.983 200.727C332.788 200.832 333.11 201.291 333.201 201.581C332.823 201.102 332.557 200.543 332.423 199.947C332.256 199.312 331.997 198.705 331.655 198.144L331.713 197.816L331.655 197.751C331.742 197.72 331.747 197.388 331.701 197.192C331.461 197.084 331.293 197.367 331.055 196.731C330.856 196.444 330.722 196.116 330.664 195.771L330.508 194.585C330.652 194.936 330.715 194.784 330.731 194.609C330.635 194.288 330.395 194.16 330.395 193.889L330.139 193.935C330.412 193.988 330.127 193.016 330.191 192.869C329.951 192.74 330.191 193.414 330.076 193.536C329.863 192.892 329.694 192.234 329.572 191.566C329.594 190.817 329.839 191.633 329.98 191.244C329.956 190.583 329.827 189.929 329.599 189.308L329.875 189.485C329.895 188.577 329.715 187.676 329.347 186.845C329.347 186.605 329.371 186.365 329.39 186.154C330.268 186.209 331.142 186.279 332.03 186.341C332.071 186.531 332.116 186.728 332.147 186.912C332.267 187.575 332.303 188.213 332.375 188.868C332.515 190.427 332.779 191.972 333.165 193.488C334.365 196.731 335.164 197.374 336.571 200.633C337.003 201.353 337.418 202.131 337.823 202.906C338.229 203.681 338.716 204.399 339.143 205.112C339.261 205.995 340.43 206.873 340.751 207.807L341.126 207.975C341.224 208.313 341.439 208.606 341.733 208.8L341.762 208.75C341.982 209.11 342.223 209.458 342.482 209.792L342.513 209.736L342.878 210.197V210.065C343.304 210.778 343.858 211.406 344.512 211.918L344.299 212.04C345.623 213.027 345.765 213.761 347.092 214.498L347.114 214.44C347.541 215.146 348.179 215.7 348.938 216.024C349.684 216.387 350.349 216.896 350.894 217.522C350.733 217.33 351.05 217.476 351.064 217.419C351.77 217.954 352.545 218.496 352.315 218.907C352.864 219.257 352.838 219.065 353.003 218.95C352.895 219.125 353.349 219.471 353.791 219.725L353.623 219.543L354.868 220.304L354.436 220.508C355.173 220.784 354.827 220.184 355.437 220.623L355.283 220.906C356.204 221.14 357.147 221.278 358.096 221.319C359.075 221.727 360.107 222.056 361.111 222.492C362.114 222.929 363.177 223.212 364.209 223.57C365.255 223.887 366.321 224.108 367.36 224.321C368.383 224.471 369.417 224.537 370.451 224.52L370.648 224.302C370.749 223.976 371.699 224.885 371.877 224.573L372.331 224.758C372.463 224.7 372.741 224.648 372.513 224.556C372.773 224.55 373.03 224.616 373.255 224.748L373.718 224.554C374.522 224.492 375.33 224.5 376.132 224.578C376.958 224.67 377.793 224.66 378.616 224.547C379.231 224.384 379.855 224.262 380.486 224.18C381.187 224.05 381.95 223.94 382.727 223.868C383.505 223.796 384.278 223.647 385.015 223.565C385.751 223.484 386.455 223.409 387.011 223.282C387.853 223.158 388.679 222.946 389.476 222.648C390.283 222.312 391.075 221.89 391.876 221.487C392.678 221.084 393.417 220.584 394.202 220.21H394.219C394.233 220.392 394.252 220.575 394.264 220.755C394.322 221.792 394.341 222.836 394.315 223.875L393.791 224.1C393.311 224.295 392.815 224.46 392.337 224.626C391.549 224.952 390.708 225.133 389.855 225.159L389.954 225.209C389.234 225.113 389.119 225.411 388.367 225.476C388.339 225.524 388.293 225.555 388.305 225.567C387.836 225.571 387.37 225.652 386.927 225.807C386.516 225.931 386.094 226.019 385.667 226.068V226.253L384.259 226.527L384.775 226.371C384.496 225.922 383.779 226.93 382.687 226.745C381.727 226.94 380.608 226.052 379.651 226.349C379.154 226.155 380.107 226.692 379.379 226.572C379.379 226.836 379.727 226.709 379.567 226.932C378.847 226.868 378.436 227.297 377.555 227.194L377.531 227.403C376.384 227.091 375.388 227.72 374.625 227.384C373.459 227.24 373.823 227.988 372.609 227.537L372.117 227.777C371.587 227.794 371.762 227.42 371.171 227.523C371.193 227.698 370.423 227.621 370.751 227.804C370.058 227.834 369.364 227.743 368.702 227.535C367.926 227.346 367.128 227.265 366.331 227.295C366.016 226.889 365.116 226.916 364.891 226.611C364.814 226.752 363.16 226.284 364.055 226.796C364.132 226.839 364.281 226.863 364.295 226.796L364.37 227.014C363.292 227.201 362.651 226.352 361.684 226.164C361.984 226.179 362.356 226.299 362.14 226.097L361.25 225.879L361.387 226.092C360.934 226.013 360.486 225.909 360.045 225.783L360.285 225.648C359.623 225.526 359.277 225.78 358.665 225.243C358.401 224.972 359.356 225.192 358.715 224.89C358.274 224.799 357.707 224.717 357.134 224.556C356.56 224.396 355.967 224.196 355.43 223.988C355.627 223.817 355.341 223.7 355.075 223.524L354.952 223.695C353.971 222.934 354.335 223.935 353.368 223.157L353.313 222.802C352.555 221.926 352.593 222.893 351.801 221.842C352.202 222.101 352.221 221.559 351.667 221.362L351.698 221.602C351.431 221.415 351.386 221.285 351.184 221.201C351.292 221.398 351.122 221.504 350.738 221.216L350.879 221.6L350.299 220.8C349.598 220.601 348.82 219.78 348.422 219.855C348.422 219.855 347.14 219.063 347.049 218.614C347.176 218.945 346.471 218.506 346.523 218.823C346.177 218.234 345.667 217.757 345.057 217.45L345.105 217.529C343.665 216.584 343.106 215.4 341.858 214.5C342.076 214.383 341.416 213.905 341.771 213.833C341.559 213.526 341.304 213.25 341.015 213.012C340.761 212.772 340.507 212.564 340.295 212.367C339.842 211.964 339.537 211.606 339.71 211.09Z" fill="black"/>
<path d="M304.403 182.16L304.163 182.261C304.163 182.22 304.223 182.182 304.403 182.16Z" fill="black"/>
<path d="M294.978 185.691H294.992L295.054 185.712L294.978 185.691Z" fill="black"/>
<path d="M273.887 182.683L273.784 182.547L273.887 182.683Z" fill="black"/>
<path d="M233.743 186.804C234.021 186.737 234.31 186.73 234.591 186.785C234.563 186.735 234.52 186.694 234.469 186.668C234.418 186.642 234.359 186.633 234.303 186.641C234.984 186.627 235.918 186.641 235.937 186.353C237.569 186.096 239.227 186.047 240.871 186.209L240.792 186.142C241.411 186.382 241.558 186.108 242.232 186.192C242.263 186.154 242.309 186.13 242.299 186.115C242.971 186.355 244.176 185.974 244.699 186.046L244.714 185.859L245.995 185.775L245.515 185.861C245.729 186.341 246.451 185.448 247.409 185.688C248.271 185.544 249.264 186.567 250.14 186.238C250.591 186.432 249.727 185.89 250.38 186.012C250.38 185.748 250.063 185.875 250.21 185.652C250.851 185.717 251.22 185.287 252.012 185.393L252.027 185.184C253.073 185.465 253.918 184.752 254.623 185.047C255.684 185.124 255.274 184.383 256.399 184.687L256.798 184.375C257.261 184.289 257.16 184.685 257.667 184.505C257.621 184.335 258.31 184.311 257.993 184.171C259.143 183.804 260.393 184.371 261.91 183.787C262.27 184.099 263.031 183.838 263.302 184.071C263.331 183.919 264.857 183.924 263.959 183.675C263.883 183.653 263.751 183.675 263.765 183.725L263.645 183.533C264.497 183.084 265.26 183.624 266.127 183.502C265.875 183.588 265.529 183.595 265.769 183.715L266.575 183.631L266.395 183.473L267.595 183.288L267.444 183.509C268.025 183.36 268.207 182.991 268.884 183.238C269.199 183.382 268.347 183.559 268.973 183.581C269.944 183.315 270.929 183.108 271.925 182.962C271.846 183.202 272.117 183.175 272.405 183.202L272.424 182.995C273.511 183.211 272.787 182.515 273.864 182.679L274.068 182.95C275.052 183.293 274.548 182.494 275.657 182.979C275.235 182.979 275.487 183.442 275.998 183.319L275.856 183.13C276.144 183.154 276.245 183.231 276.435 183.178C276.257 183.082 276.327 182.897 276.749 182.907L276.451 182.667L277.272 182.983C277.875 182.743 278.863 182.947 279.101 182.655C279.101 182.655 280.416 182.443 280.738 182.729C280.462 182.556 281.187 182.441 280.978 182.232C281.54 182.473 282.171 182.496 282.749 182.297L282.67 182.275C283.486 182.151 284.315 182.138 285.135 182.237C285.075 182.148 285.015 182.059 284.95 181.959L284.875 181.992C284.674 181.287 284.635 180.835 285.046 180.36C284.566 180.271 285.017 179.779 284.868 179.611L284.83 179.626C285.209 179.211 284.554 178.723 284.899 178.325C284.863 178.339 284.729 178.339 284.717 178.435C284.796 178.135 284.938 177.73 284.664 177.689C284.796 176.969 284.736 175.947 285.228 175.529L285.149 175.553C285.475 175.313 285.233 175.219 285.42 174.943C285.387 174.924 285.37 174.9 285.355 174.903C285.682 174.663 285.502 174.079 285.655 173.866L285.475 173.827L285.588 173.266L285.6 173.484C286.107 173.484 285.339 173.004 285.735 172.649C285.735 172.255 286.899 172.047 286.721 171.619C286.985 171.473 286.315 171.718 286.541 171.468C286.284 171.413 286.356 171.571 286.162 171.468C286.332 171.214 285.975 170.967 286.207 170.657L286.008 170.607C286.459 170.235 285.922 169.716 286.332 169.493C286.594 169.073 285.804 169.059 286.296 168.667L286.056 168.427C286.056 168.214 286.419 168.358 286.337 168.101C286.164 168.075 286.263 167.784 286.073 167.878C285.934 167.299 286.714 166.939 286.44 166.155C286.805 166.095 286.699 165.706 286.973 165.675C286.834 165.617 287.127 164.995 286.719 165.286C286.685 165.312 286.675 165.37 286.719 165.382H286.515C286.246 164.902 286.92 164.748 286.973 164.359C287.004 164.489 286.942 164.631 287.105 164.573L287.184 164.218L286.999 164.242L287.064 163.695L287.244 163.827C287.218 163.543 286.906 163.347 287.278 163.15C287.475 163.071 287.472 163.474 287.616 163.229C287.558 162.764 287.567 162.293 287.643 161.83C287.851 161.945 287.883 161.83 287.971 161.727L287.784 161.645C288.211 161.287 287.419 161.328 287.784 160.954L288.079 160.971C288.605 160.707 287.76 160.606 288.439 160.349C288.343 160.515 288.833 160.589 288.826 160.349L288.622 160.335C288.703 160.227 288.797 160.217 288.79 160.123C288.663 160.157 288.507 160.059 288.61 159.883L288.331 159.912L288.811 159.713C288.718 159.379 289.128 159.075 288.912 158.866C288.912 158.866 289.008 158.261 289.342 158.254C289.121 158.292 289.179 157.961 288.939 157.961C289.193 157.899 289.524 157.548 289.397 157.294L289.359 157.315C289.426 156.595 290.129 156.399 290.122 155.729C290.326 155.856 290.34 155.511 290.583 155.712C291.101 155.275 290.535 154.421 291.468 154.637C291.641 154.397 291.425 154.241 291.449 154.09L291.372 154.126C291.594 153.841 291.777 153.529 291.919 153.197C292.092 153.065 292.483 153.243 292.565 152.89C292.359 152.904 292.457 152.796 292.522 152.681C292.457 152.741 292.387 152.734 292.371 152.527C292.422 152.53 292.473 152.52 292.519 152.499C292.519 152.499 292.5 152.479 292.483 152.475C292.644 152.314 292.673 152.371 292.644 152.475C292.671 152.475 292.695 152.506 292.721 152.559C292.637 152.251 293.047 152.016 292.8 151.839C293.185 151.402 293.609 151 294.065 150.639C293.967 150.507 293.782 150.545 293.647 150.639L293.902 150.339C293.712 150.226 293.674 150.461 293.573 150.54C293.532 150.123 293.969 149.981 294.221 149.7C294.634 150.293 295.049 150.886 295.457 151.481L296.278 152.693C295.957 153.242 295.608 153.774 295.231 154.287C294.751 154.395 294.821 155.064 294.387 155.261L294.495 155.482C294.348 155.551 294.219 155.657 294.255 155.823L294.31 155.842C294.087 155.945 294.07 156.18 293.957 156.233L294.012 156.252L293.88 156.451H293.974C293.703 156.663 293.521 156.968 293.46 157.306L293.254 157.183C293.223 157.903 292.673 157.903 292.714 158.58L292.769 158.597C291.876 159.034 292.711 159.857 291.859 160.344C291.965 160.284 291.958 160.428 292.015 160.443C291.819 160.75 291.641 161.088 291.202 160.923C291.108 161.163 291.259 161.163 291.418 161.268C291.226 161.194 291.07 161.379 290.988 161.568L291.094 161.506L290.832 162.036L290.508 161.796C290.508 162.13 290.926 162.036 290.736 162.276L290.436 162.166C290.35 162.595 290.724 162.994 290.811 163.457C290.56 164.303 290.228 165.123 289.819 165.905C289.44 166.678 289.252 167.531 289.272 168.391L289.491 168.516C289.822 168.624 288.888 168.826 289.193 168.96L288.996 169.107C289.047 169.174 289.09 169.296 289.186 169.222C289.164 169.392 289.107 169.385 288.977 169.483L289.152 169.723C289.183 170.419 288.624 170.897 288.603 171.622C288.722 172.182 288.679 172.765 288.478 173.302C288.312 173.871 288.119 174.432 287.897 174.982C287.623 175.646 287.608 176.39 287.854 177.065C288.078 177.749 288.067 178.488 287.823 179.165C287.871 179.211 287.755 179.319 287.715 179.316V180.543L287.674 181.402C287.655 181.792 287.606 182.181 287.527 182.563C288.703 182.563 289.623 181.906 290.103 182.712C290.739 182.734 290.844 182.472 291.168 182.398L291.015 182.355C291.839 182.386 292.664 182.37 293.487 182.307C293.931 182.379 294.017 182.808 294.802 182.676C294.54 182.513 294.862 182.532 295.157 182.523C294.967 182.501 294.917 182.441 295.289 182.311C295.355 182.361 295.431 182.397 295.512 182.417C295.512 182.403 295.529 182.393 295.512 182.374C296.007 182.417 295.923 182.475 295.695 182.506C295.707 182.532 295.695 182.568 295.62 182.619C296.124 182.379 297.046 182.583 297.096 182.283C298.579 182.302 299.647 182.563 300.883 182.645C301.018 182.489 300.725 182.362 300.365 182.311L301.241 182.343C301.227 182.124 300.735 182.232 300.463 182.194C301.495 181.81 302.623 182.489 303.823 182.129L304.083 182.295L304.155 182.263C304.155 182.357 304.431 182.475 304.611 182.503C304.779 182.307 304.587 182.062 305.191 182.057C305.857 181.965 306.536 182.015 307.181 182.203C306.845 182.244 306.955 182.347 307.102 182.412C307.404 182.412 307.582 182.218 307.81 182.295L307.831 182.035C307.719 182.275 308.628 182.275 308.741 182.386C308.909 182.189 308.261 182.23 308.191 182.086H310.008C310.659 182.266 309.895 182.326 310.21 182.554C310.797 182.671 311.401 182.683 311.993 182.59L311.789 182.83C312.029 182.866 312.25 182.89 312.456 182.904C312.735 183.746 313 184.599 313.253 185.463C311.539 185.436 309.977 185.124 307.45 185.057C304.952 185.395 302.436 185.591 299.916 185.645C298.299 185.739 296.556 185.698 294.982 185.7C294.216 185.374 292.901 185.779 292.001 185.525L291.665 185.736C291.35 185.627 291.008 185.62 290.688 185.717L290.71 185.772C290.312 185.72 289.911 185.693 289.51 185.691L289.531 185.746H288.972L289.073 185.823C288.293 185.709 287.501 185.714 286.723 185.837L286.771 185.597C285.235 185.94 284.643 185.475 283.26 185.861L283.282 185.916C281.479 185.376 280.512 186.502 278.657 186.005C278.897 186.067 278.566 186.132 278.587 186.19C277.745 186.171 276.847 186.19 276.804 185.71C276.195 185.751 276.324 185.885 276.247 186.07C276.247 185.863 275.703 185.813 275.225 185.83L275.448 185.895L274.075 185.911L274.315 185.508C273.595 185.667 274.162 185.988 273.461 185.943V185.621C272.594 185.859 271.753 186.181 270.948 186.581C266.895 186.605 262.846 186.869 258.823 187.371L258.677 187.611C258.634 187.968 257.602 187.181 257.477 187.517L257.028 187.395C256.911 187.467 256.659 187.558 256.882 187.618C256.638 187.66 256.387 187.628 256.162 187.527L255.747 187.783C254.172 188.093 252.783 187.783 251.117 188.023C248.487 188.538 245.804 188.729 243.127 188.592C240.007 188.369 236.599 190.157 233.405 189.907C233.342 189.927 233.276 189.932 233.211 189.921C233.146 189.911 233.084 189.886 233.031 189.847L232.771 189.883C233.597 189.754 234.42 189.624 235.241 189.499C234.768 188.59 234.262 187.695 233.743 186.804Z" fill="black"/>
<path d="M129.876 114.447L129.73 114.783C129.699 114.751 129.725 114.658 129.876 114.447Z" fill="black"/>
<path d="M82.3643 190.351C82.3471 190.374 82.3286 190.396 82.3091 190.416C82.3426 190.366 82.3547 190.354 82.3643 190.351Z" fill="black"/>
<path d="M124 127.258V127.244L124.074 127.186L124 127.258Z" fill="black"/>
<path d="M73.1319 211.44C73.4631 210.343 73.7511 209.455 74.0727 208.678C74.3897 207.938 74.7925 207.238 75.2727 206.592C74.9319 206.179 75.9543 204.842 76.0191 204.29L75.964 204.322C76.8424 203.182 76.7943 201.554 77.6223 200.45C77.5485 200.465 77.48 200.499 77.4242 200.549C77.3684 200.599 77.3273 200.664 77.3055 200.736C77.7543 199.865 78.4023 198.686 78.1791 198.509C79.0681 196.307 80.1609 194.193 81.4431 192.194L81.3303 192.254C81.9663 191.609 81.8439 191.275 82.3911 190.478C82.3911 190.416 82.3911 190.346 82.3743 190.351C82.9914 189.372 83.5399 188.351 84.016 187.296L83.872 187.174L84.6927 185.52L84.4312 186.163C84.9856 186.163 84.7432 184.757 85.6504 183.706C86.1592 182.556 87.7311 181.901 88.0959 180.629C88.5759 180.182 87.5079 180.946 88.0959 180.197C87.8751 180.053 87.7528 180.511 87.6736 180.197C88.1944 179.438 88.1079 178.74 88.7727 177.814L88.6119 177.679C89.6175 176.549 89.6728 175.106 90.4456 174.408C91.3072 173.15 90.3879 173.225 91.4823 172.022L91.528 171.348C91.8064 170.731 92.0535 171.084 92.2887 170.359C92.1135 170.316 92.6127 169.457 92.2599 169.764C92.8407 168.146 94.2831 166.951 94.9743 164.777C95.5071 164.52 95.8839 163.442 96.2823 163.253C96.1815 163.126 97.3695 161.28 96.4695 162.218C96.3927 162.3 96.3039 162.458 96.3591 162.485L96.1192 162.518C96.412 161.213 97.4728 160.625 98.0584 159.509C97.9264 159.864 97.6576 160.282 97.9456 160.066L98.5192 159.046L98.2504 159.168L99.0543 157.618L99.1119 157.932C99.4551 157.142 99.304 156.698 100.05 156.024C100.415 155.736 99.8799 156.866 100.396 156.125C100.954 154.793 101.585 153.492 102.287 152.23C102.414 152.47 102.616 152.134 102.87 151.817L102.719 151.668C103.78 150.506 102.64 150.948 103.646 149.767L104.03 149.688C105.105 148.728 104.066 148.826 105.35 147.818C104.997 148.315 105.59 148.298 105.899 147.622L105.633 147.677C105.885 147.348 106.031 147.276 106.149 147.024C105.923 147.173 105.837 146.978 106.199 146.486L105.767 146.695L106.706 145.93C107.015 145.07 108.011 144.038 107.98 143.58C107.98 143.58 108.916 141.9 109.42 141.708C109.053 141.924 109.571 141.002 109.221 141.13C109.898 140.594 110.431 139.898 110.771 139.104L110.687 139.181C111.726 137.261 113.056 136.301 113.93 134.549C114.074 134.758 114.551 133.829 114.65 134.22C116.02 132.73 116.282 130.879 117.46 130.831C118.038 130.111 117.918 129.826 118.156 129.415L117.988 129.562C119.056 128.22 119.356 127.822 120.086 126.778C120.532 126.319 120.933 126.492 121.54 125.527C121.178 125.717 121.485 125.364 121.744 125.026C121.557 125.227 121.456 125.266 121.701 124.74C121.804 124.696 121.898 124.635 121.982 124.56C121.982 124.548 121.982 124.524 121.958 124.522C122.438 123.991 122.404 124.123 122.224 124.399C122.255 124.399 122.265 124.445 122.241 124.555C122.51 123.835 123.498 122.928 123.314 122.678C124.672 121.025 125.81 119.976 127.017 118.663C127.017 118.423 126.654 118.663 126.297 119.021L127.127 118.061C126.947 117.934 126.578 118.541 126.299 118.826C126.957 117.43 128.51 116.626 129.35 115.046L129.714 114.869L129.758 114.768C129.825 114.83 130.168 114.6 130.355 114.415C130.355 114.101 130 114.151 130.552 113.477C131.09 112.679 131.754 111.973 132.518 111.386C132.23 111.78 132.412 111.727 132.599 111.61C132.882 111.281 132.897 110.966 133.175 110.76L133.002 110.563C133.082 110.851 133.936 109.858 134.121 109.802C134.133 109.488 133.559 110.215 133.379 110.206L134.135 109.325C136.799 107.856 139.494 106.445 142.223 105.098C141.337 106.242 140.375 107.324 139.343 108.338C138.088 109.646 136.703 110.978 134.908 112.98C133.427 114.811 132.64 116.1 131.771 117.329C130.725 118.839 129.599 120.291 128.397 121.68C127.019 123.552 125.435 125.465 124.014 127.243C123.069 127.884 122.246 129.643 121.254 130.507L121.122 131.023C120.755 131.321 120.458 131.696 120.254 132.122H120.316C119.807 132.569 119.445 133.222 119.193 133.442L119.255 133.454L118.775 134.086L118.922 134.021C118.148 134.841 117.472 135.749 116.908 136.726L116.762 136.517C115.715 138.504 114.842 138.895 113.961 140.729H114.026C112.053 142.469 112.161 144.314 110.212 146.167C110.452 145.927 110.238 146.352 110.301 146.362C109.581 147.322 108.844 148.39 108.438 148.152C107.958 148.891 108.17 148.831 108.261 149.026C108.09 148.91 107.613 149.506 107.238 150.091L107.478 149.851L106.374 151.486L106.252 150.95C105.794 151.91 106.511 151.43 105.902 152.227L105.638 152.045C105.125 153.194 104.695 154.379 104.351 155.59C102.897 158.105 101.231 160.618 99.616 163.104C98.0594 165.507 96.6805 168.02 95.4903 170.623L95.5839 170.947C95.8239 171.204 94.4224 172.01 94.6096 172.349L94.1727 172.829C94.1463 173.014 94.0288 173.374 94.2472 173.136C94.1037 173.45 93.8961 173.73 93.6376 173.959L93.5367 174.614C92.6175 176.719 91.2903 178.214 90.2991 180.432C89.6461 182.204 88.8432 183.918 87.8991 185.554C86.8863 187.416 85.8399 189.298 85.0479 190.663C84.449 191.641 83.9281 192.664 83.4903 193.723C83.0487 194.813 82.66 195.953 82.264 197.083C81.5511 199.339 80.6295 201.524 79.5112 203.609C79.4653 203.786 79.3603 203.943 79.2135 204.053L77.6559 207.893L76.5303 210.564C75.8967 212.081 75.0904 213.946 74.3704 215.335C72.9304 218.11 71.8192 219.017 73.2688 211.337L73.1319 211.44Z" fill="black"/>
<path d="M103.635 149.76L103.444 149.799L103.635 149.76Z" fill="black"/>
<path d="M77.6302 10.0803L77.8367 10.2603C77.7959 10.2723 77.7286 10.2315 77.6302 10.0803Z" fill="black"/>
<path d="M83.7409 18.9913V18.9769L83.7529 18.9001L83.7409 18.9913Z" fill="black"/>
<path d="M31.1678 39.7276C31.499 39.9676 31.8494 40.2076 32.2406 40.4908L32.2525 40.3852C32.7807 40.8247 33.2817 41.296 33.7525 41.7964C34.1657 42.1955 34.5168 42.6542 34.7942 43.1572C35.2142 42.9412 35.8526 43.9684 36.2462 44.086V44.0332C36.383 44.2493 36.5598 44.4375 36.767 44.5876C36.9832 44.7237 37.2095 44.8433 37.4438 44.9452C37.9106 45.1217 38.3315 45.4015 38.675 45.7636C38.682 45.7063 38.6724 45.6483 38.6473 45.5963C38.6222 45.5444 38.5826 45.5008 38.5334 45.4708C39.0878 45.8788 39.8654 46.4308 40.0406 46.2244C40.4124 46.462 40.7996 46.6745 41.1998 46.8604C41.6174 47.062 42.0302 47.2972 42.4454 47.482C43.1595 47.7777 43.8355 48.158 44.459 48.6148L44.4134 48.5212C44.8934 49.0012 45.1334 48.8044 45.7478 49.1596C45.7934 49.1356 45.8438 49.1332 45.8414 49.1164C46.5953 49.4624 47.3894 49.7131 48.2054 49.8628L48.275 49.6876L49.5662 49.954L49.0862 49.9084C49.1798 50.4388 50.1134 49.7812 51.023 50.1724C51.9014 50.2276 52.7942 51.3268 53.7686 51.106C54.227 51.346 53.3654 50.7148 54.0446 50.9092C54.0638 50.65 53.7302 50.7388 53.9006 50.5348C54.5606 50.6428 54.959 50.2108 55.7726 50.35L55.7894 50.1436C56.2759 50.2457 56.7818 50.2023 57.2438 50.0188C57.6235 49.8635 58.0372 49.8106 58.4438 49.8652C59.5334 49.7932 59.0126 49.1308 60.1886 49.2604L60.527 48.8668C60.9638 48.6868 60.947 49.0924 61.4126 48.8116C61.3286 48.6532 62.003 48.4876 61.6526 48.418C62.195 48.1273 62.7772 47.9178 63.3806 47.7964C64.0772 47.6241 64.7214 47.2847 65.2574 46.8076C65.7374 46.978 66.3014 46.3756 66.6542 46.4788C66.6182 46.3324 68.0126 45.6628 67.0814 45.8356C66.9998 45.8524 66.887 45.922 66.9254 45.9676L66.731 45.8476C67.2998 45.0988 68.171 45.1276 68.891 44.6116C68.7158 44.8108 68.411 44.9908 68.687 44.974C68.914 44.8188 69.1313 44.6497 69.3374 44.4676L69.0974 44.4388L69.9926 43.6084V43.8748C70.403 43.4236 70.331 43.0252 71.0174 42.7924C71.3534 42.7108 70.7774 43.3852 71.2958 43.0084C71.5358 42.6796 71.8694 42.2884 72.1838 41.8612C72.4982 41.434 72.8222 40.978 73.1438 40.5916C73.2494 40.8172 73.4462 40.6228 73.655 40.4308L73.523 40.2724C74.4302 39.6244 73.4294 39.6772 74.2838 39.0052L74.1134 38.9884L74.6294 39.0388C75.5294 38.4988 74.591 38.3668 75.671 37.8172C75.3926 38.1436 75.911 38.242 76.151 37.7572H75.911C76.1198 37.546 76.2398 37.5172 76.307 37.318C76.127 37.4092 76.019 37.2388 76.2686 36.8932L75.911 37.0036L76.631 36.5092C76.799 35.8828 77.4854 35.1364 77.351 34.774C77.351 34.774 77.8478 33.5404 78.2174 33.37C77.939 33.538 78.1598 32.8348 77.8742 32.9404C78.1101 32.7497 78.3026 32.5108 78.4388 32.2397C78.5749 31.9686 78.6517 31.6715 78.6638 31.3684L78.6158 31.4308C78.8918 29.962 79.6814 29.0716 79.667 27.6868C79.8902 27.7924 79.8782 27.0652 80.147 27.2908C80.2669 26.9747 80.3373 26.642 80.3558 26.3044C80.3558 25.9876 80.3222 25.6876 80.3102 25.4212C80.279 24.886 80.3222 24.4804 80.8118 24.2428C80.8646 23.5924 80.5958 23.4676 80.5502 23.134L80.4974 23.2876C80.5836 22.471 80.5763 21.6473 80.4758 20.8324C80.5334 20.3788 80.9822 20.2612 80.7518 19.462C80.6174 19.7452 80.603 19.4116 80.5598 19.1116C80.5598 19.3084 80.5046 19.3756 80.3342 18.9988C80.3777 18.9253 80.4054 18.8436 80.4158 18.7588C80.4014 18.7588 80.3894 18.742 80.3726 18.7588C80.3606 18.25 80.4254 18.3268 80.483 18.5548C80.507 18.5404 80.543 18.5548 80.6006 18.6172C80.3342 18.1372 80.327 17.1772 80.0342 17.1772C79.9694 16.8028 79.9286 16.4572 79.8926 16.114C79.8566 15.7708 79.7942 15.4612 79.7534 15.154C79.6995 14.5286 79.5895 13.9093 79.4246 13.3036C79.2326 13.222 79.2086 13.5436 79.2806 13.9132L79.019 13.0492C78.815 13.1332 79.079 13.5772 79.1366 13.8508C78.8194 13.3878 78.6215 12.8535 78.5606 12.2956C78.4419 11.7006 78.1963 11.1383 77.8406 10.6468L77.8886 10.33L77.8286 10.2772C77.9126 10.2412 77.8886 9.93399 77.8286 9.75399C77.5718 9.68439 77.4422 9.96999 77.1566 9.41799C76.933 9.18039 76.7686 8.89343 76.6766 8.58039L76.2734 7.56279C76.487 7.83879 76.5134 7.68759 76.4942 7.52439C76.3286 7.25559 76.0718 7.20999 76.0142 6.96039L75.7742 7.08039C76.0574 7.03719 75.5342 6.26199 75.5342 6.12039C75.2726 6.08919 75.6902 6.60039 75.6182 6.75159L74.531 5.22759C74.2526 4.59399 74.8046 5.16519 74.771 4.77879C74.4674 4.2293 74.0731 3.73512 73.6046 3.31719H73.9166C73.4683 2.56604 72.8191 1.95508 72.0422 1.55319C71.6342 0.989193 71.279 0.509193 70.9694 0.0915932C72.13 0.00443213 73.2952 -0.00118166 74.4566 0.0747932C74.9152 0.527339 75.3448 1.00829 75.743 1.51479C76.1702 2.11479 76.619 2.71479 77.0702 3.43479L77.7686 4.56039C78.0278 4.94919 78.2822 5.37399 78.539 5.83959C79.0718 6.60759 79.523 7.22679 79.8782 7.80999C80.2334 8.39319 80.6126 8.86839 80.8934 9.40599C81.1742 9.94359 81.4886 10.4692 81.779 11.11C82.0944 11.8745 82.3653 12.6566 82.5902 13.4524C82.8943 14.3561 83.1348 15.28 83.3102 16.2172L83.5646 17.626L83.7182 19.0132C83.6486 19.5614 83.6486 20.1162 83.7182 20.6644C83.8044 21.2493 83.7947 21.8443 83.6894 22.426L83.8838 22.8172C83.7601 23.1778 83.7368 23.5652 83.8166 23.938L83.8742 23.9164C83.7398 24.4372 83.7542 25.0324 83.663 25.2868L83.723 25.27L83.6438 25.9036L83.735 25.8028C83.5146 26.6765 83.359 27.5654 83.2694 28.462L83.0462 28.3516C83.0232 29.0457 82.8761 29.7301 82.6118 30.3724C82.3838 30.9801 82.2158 31.6087 82.1102 32.2492H82.1726C81.6839 32.9789 81.334 33.7925 81.1406 34.6492C80.9525 35.528 80.5266 36.3383 79.9094 36.9916C80.0942 36.7972 79.9646 37.15 80.0246 37.1596C79.499 37.9612 78.911 38.7964 78.5174 38.5588C78.1646 39.1444 78.3422 39.1108 78.443 39.2788C78.2726 39.1612 77.8574 39.598 77.5334 40.0228L77.7422 39.8692C77.4182 40.2652 77.1254 40.6852 76.7822 41.0692L76.6694 40.6012C76.2446 41.2852 76.9094 41.05 76.3406 41.5876L76.1006 41.3764C75.4574 42.2812 75.359 43.0756 74.759 44.0356C73.1286 45.7095 71.2576 47.1307 69.2078 48.2524C67.1726 49.39 65.1278 50.3524 63.2078 51.3316L63.1118 51.6292C63.1526 52.0108 61.8182 51.4876 61.7678 51.8476H61.247C61.1318 51.9484 60.8654 52.0876 61.1246 52.1044C60.8666 52.2109 60.581 52.2303 60.311 52.1596L59.8766 52.4812C59.4533 52.6139 59.022 52.7197 58.5854 52.798C58.1558 52.8484 57.7286 52.8676 57.299 52.8892C56.4446 52.9588 55.5782 52.9132 54.6278 53.0044C53.959 53.1565 53.2732 53.221 52.5878 53.1964C51.7721 53.197 50.9578 53.1272 50.1542 52.9876C48.6374 52.7353 47.1493 52.3333 45.7118 51.7876C44.891 51.4374 44.0475 51.1431 43.187 50.9068C42.323 50.6092 41.4014 50.3908 40.5086 50.074C39.6055 49.7841 38.728 49.4197 37.8853 48.9844C37.4711 48.769 37.0703 48.5286 36.6853 48.2644C36.3173 47.9935 35.967 47.6993 35.6366 47.3836C35.5118 47.3596 35.327 47.098 35.3534 47.0668C34.8974 46.7716 34.4845 46.4164 34.0477 46.1068C33.6084 45.7861 33.187 45.4416 32.7853 45.0748L32.3054 44.6308C31.8991 44.2687 31.5167 43.8807 31.1606 43.4692C30.791 43.0756 30.4117 42.6124 30.0493 42.1372C30.4189 41.31 30.7918 40.5068 31.1678 39.7276Z" fill="black"/>
<path d="M282.559 483.375L282.391 483.075C282.446 483.07 282.492 483.142 282.559 483.375Z" fill="black"/>
<path d="M331.924 456.891C331.924 456.915 331.948 456.941 331.956 456.965C331.927 456.917 331.922 456.9 331.924 456.891Z" fill="black"/>
<path d="M277.984 470.59V470.609L277.955 470.7L277.984 470.59Z" fill="black"/>
<path d="M278.698 466.368L278.581 465.843C278.778 465.408 278.889 464.94 278.907 464.463L278.847 464.48C279.111 463.856 279.234 463.112 279.38 462.8H279.318C279.392 462.538 279.466 462.279 279.558 462.024L279.438 462.135C279.918 461.06 280.316 459.934 280.657 458.924L280.844 459.096C281.479 457.505 282.243 455.969 283.129 454.503H283.066C283.295 454.289 283.51 454.06 283.71 453.819C283.904 453.596 284.098 453.389 284.264 453.171C284.6 452.739 284.876 452.302 285.157 451.858C285.442 451.403 285.778 450.982 286.158 450.603C286.574 450.149 287.06 449.765 287.598 449.463C287.29 449.619 287.624 449.28 287.566 449.254C288.567 448.52 289.599 447.699 289.909 448.104C290.629 447.612 290.422 447.586 290.418 447.372C290.53 447.545 291.214 447.192 291.793 446.823L291.488 446.931C292.045 446.578 292.659 446.333 293.24 446.031L293.084 446.554C293.941 445.971 293.084 446.012 294.02 445.628L294.147 445.923C294.699 445.63 295.222 445.285 295.707 444.891C296.18 444.471 296.702 444.111 297.262 443.818C297.958 443.592 298.654 443.324 299.382 443.163C300.109 443.002 300.841 442.856 301.575 442.714C303.053 442.507 304.542 442.397 306.034 442.385C308.89 442.394 311.742 442.575 314.576 442.928L314.862 442.733C315.054 442.376 316.198 443.607 316.474 443.34L317.038 443.662C317.226 443.648 317.607 443.681 317.326 443.523C317.671 443.585 317.992 443.741 318.253 443.974H318.915C319.457 444.127 319.99 444.313 320.509 444.531C321.003 444.771 321.469 445.04 321.949 445.304C322.923 445.8 323.792 446.47 324.865 447.027C325.651 447.387 326.405 447.816 327.116 448.308C327.95 448.909 328.751 449.554 329.516 450.24C330.262 450.996 331.035 451.736 331.676 452.501C332.317 453.267 332.917 453.968 333.356 454.616C333.951 455.544 334.683 456.406 335.374 457.332C336.116 458.225 336.831 459.166 337.554 460.119C337.93 460.599 338.242 461.093 338.576 461.59C338.91 462.087 339.236 462.586 339.507 463.109C340.066 464.11 340.505 465.174 340.815 466.277C340.508 467.903 340.072 469.501 339.512 471.058C339.147 470.693 339.032 469.488 338.773 469.138L338.751 469.196C338.657 468.541 338.416 467.917 338.046 467.369C337.882 467.084 337.724 466.798 337.585 466.508C337.432 466.228 337.322 465.929 337.256 465.617C337.22 465.677 337.201 465.745 337.201 465.815C337.201 465.885 337.22 465.954 337.256 466.013C336.918 465.183 336.488 464.016 336.19 464.093C335.271 462.152 333.55 459.74 333.049 458.391V458.513C332.835 457.692 332.475 457.676 332.036 456.905C331.976 456.891 331.923 456.855 331.918 456.872C331.626 455.996 330.303 454.966 329.917 454.383L329.754 454.476C329.389 454.042 328.957 453.672 328.554 453.276L329.048 453.677C329.142 453.423 328.846 453.257 328.448 453.027C327.96 452.769 327.527 452.419 327.174 451.995C326.713 451.585 326.342 451.084 326.084 450.524C325.789 449.969 325.334 449.515 324.778 449.22C324.426 448.695 324.99 449.83 324.373 449.187C324.207 449.391 324.613 449.554 324.318 449.602C324.032 449.344 323.691 449.155 323.322 449.05C322.913 448.914 322.533 448.704 322.201 448.431L322.064 448.589C321.6 448.155 321.031 447.848 320.413 447.699C319.91 447.572 319.437 447.346 319.023 447.034C317.773 446.408 317.955 447.274 316.731 446.434L316.117 446.554C315.519 446.439 315.786 446.112 315.097 446.074C315.097 446.254 314.24 445.985 314.583 446.249C313.794 446.184 313.015 446.023 312.265 445.769C311.375 445.545 310.452 445.484 309.541 445.589C309.123 445.244 308.101 445.424 307.777 445.162C307.748 445.246 307.237 445.21 306.879 445.272C306.522 445.335 306.315 445.383 306.879 445.512C306.978 445.532 307.148 445.512 307.136 445.46L307.275 445.664C306.763 445.839 306.216 445.884 305.682 445.796C305.154 445.684 304.612 445.667 304.078 445.745C304.4 445.632 304.846 445.584 304.534 445.491L303.495 445.668L303.735 445.805C303.224 445.916 302.713 446.009 302.206 446.129C302.262 446.04 302.322 445.964 302.382 445.889C301.645 446.146 301.472 446.568 300.567 446.465C300.145 446.391 301.208 446.028 300.402 446.146C299.91 446.307 299.329 446.609 298.722 446.888L297.786 447.298C297.471 447.437 297.178 447.61 296.886 447.742C296.907 447.478 296.59 447.622 296.238 447.716L296.281 447.92C294.898 448.198 295.995 448.5 294.709 448.92L294.879 448.992L294.366 448.781C293.086 449.021 293.972 449.41 292.554 449.698C293.022 449.427 292.527 449.175 292.011 449.624L292.251 449.696C291.92 449.866 291.771 449.866 291.586 450.036C291.826 450 291.848 450.207 291.378 450.478H291.824C291.473 450.558 291.129 450.664 290.794 450.795C290.314 451.464 289.165 452.038 289.162 452.506C289.162 452.506 288.894 452.832 288.562 453.161C288.289 453.458 287.964 453.702 287.602 453.881C287.953 453.742 287.439 454.515 287.773 454.45C287.365 454.659 286.371 455.528 286.311 456.111L286.386 456.044C285.424 457.395 284.63 458.858 284.024 460.402C283.825 460.234 283.618 461.136 283.419 460.82C282.459 462.43 283.03 464.124 281.953 464.537C281.734 465.348 281.97 465.552 281.931 465.977L282.02 465.792C281.759 466.815 281.588 467.859 281.511 468.912C281.382 469.481 280.93 469.541 280.974 470.592C281.158 470.259 281.113 470.688 281.101 471.072C281.134 470.832 281.202 470.748 281.302 471.267C281.243 471.353 281.201 471.45 281.178 471.552C281.192 471.552 281.202 471.576 281.221 471.567C281.142 472.217 281.098 472.107 281.074 471.807C281.048 471.824 281.014 471.807 280.969 471.701C281.185 472.385 280.954 473.604 281.269 473.679C281.269 475.642 281.118 477.08 281.247 478.743C281.425 478.906 281.502 478.503 281.487 478.023L281.602 479.189C281.818 479.144 281.629 478.505 281.622 478.143C282.157 479.458 281.73 481.04 282.404 482.58L282.31 482.95L282.361 483.039C282.27 483.056 282.231 483.444 282.258 483.689C282.498 483.869 282.682 483.569 282.872 484.359C283.164 485.211 283.339 486.099 283.393 486.999C283.232 486.572 283.172 486.742 283.153 486.948C283.266 487.344 283.518 487.515 283.53 487.841L283.789 487.803C283.503 487.721 283.856 488.9 283.803 489.077C284.043 489.24 283.767 488.42 283.873 488.28C284.353 489.85 284.113 489.065 284.605 490.63C284.701 491.523 284.322 490.558 284.242 491.028C284.381 491.831 284.631 492.61 284.984 493.344L284.672 493.157C284.873 494.261 285.296 495.313 285.915 496.248C286.27 497.78 286.511 499.335 286.635 500.902C286.29 501.065 285.944 501.236 285.601 501.408C285.143 500.747 284.734 500.052 284.379 499.33C283.495 497.686 282.802 495.947 282.313 494.146C281.833 492.444 281.408 490.613 280.738 488.081C280.018 485.89 279.538 484.498 279.111 483.063C278.59 481.314 278.256 479.515 278.115 477.696C277.825 475.337 277.77 472.954 277.952 470.583C278.367 469.546 278.19 467.602 278.698 466.368Z" fill="black"/>
</g>
<defs>
<clipPath id="clip0_1406_69971">
<rect width="441.562" height="600" fill="white" transform="matrix(-1 0 0 1 442.524 0)"/>
</clipPath>
</defs>
</svg>
