<svg width="406" height="466" viewBox="0 0 406 466" fill="none" xmlns="http://www.w3.org/2000/svg">
<g clip-path="url(#clip0_118_5711)">
<path d="M266.463 342.747C256.595 383.942 246.267 424.884 236.252 466H405.162C397.996 415.876 388.854 366.088 377.738 316.636C369.441 279.255 355.169 243.46 335.472 210.634C327.33 197.189 318.395 183.854 314.401 168.649C312.616 161.406 312.77 153.819 314.848 146.654C315.98 143.22 316.851 139.705 317.455 136.139C318.044 129.397 316.1 122.678 312.003 117.294C306.844 110.386 300.07 103.825 291.535 102.649C285.51 101.818 279.424 103.799 273.352 103.462C270.997 103.331 268.662 102.852 266.303 102.869C263.916 102.754 261.579 103.574 259.786 105.154C258.912 106.065 258.328 107.215 258.107 108.458C257.887 109.701 258.039 110.982 258.546 112.139C259.111 113.307 260 114.288 261.107 114.965C262.214 115.641 263.492 115.984 264.789 115.952C260.252 122.083 257.295 129.239 256.18 136.786C255.854 137.243 255.515 137.694 255.142 138.147C253.653 139.95 251.175 141.772 250.259 143.894C248.827 147.21 252.206 146.934 255.09 146.634C254.936 149.309 254.874 151.993 254.846 154.677C254.846 155.21 254.835 155.745 254.832 156.278C254.824 157.623 254.821 158.965 254.822 160.304C253.32 160.526 251.896 161.117 250.677 162.023C249.458 162.929 248.481 164.122 247.834 165.497C246.758 168.404 246.119 171.455 245.935 174.549C241.148 215.686 223.034 262.39 216.452 303.351C215.78 306.275 215.413 309.26 215.357 312.26C215.401 315.413 216.185 318.513 217.645 321.307C217.411 321.554 217.191 321.814 216.986 322.087C216.688 322.478 216.429 322.899 216.212 323.341C215.547 324.64 215.404 326.145 215.813 327.546C216.169 328.686 216.813 329.715 217.684 330.532C218.554 331.348 219.621 331.925 220.781 332.206C220.811 332.296 220.846 332.393 220.878 332.471C221.122 333.162 221.429 333.83 221.794 334.465C223.087 336.669 225.034 338.413 227.365 339.455C227.85 339.682 228.347 339.883 228.854 340.057C229.426 340.244 230.003 340.415 230.588 340.555C233.994 341.263 237.488 341.455 240.951 341.125C245.004 340.868 249.037 340.354 253.026 339.586C257.589 338.71 262.314 340.201 266.925 340.777L266.695 341.726C266.628 342.063 266.545 342.402 266.463 342.747ZM269.708 184.529C275.443 190.481 280.031 197.442 283.24 205.063C276.362 212.614 273.128 222.625 269.33 232.109C266.165 239.996 262.346 247.581 258.419 255.126C257.842 256.236 257.264 257.343 256.684 258.448L256.167 259.436C256.707 240.555 257.608 221.432 257.382 202.546L256.84 203.094C261.162 198.02 263.728 191.683 264.156 185.028C264.195 185.364 264.301 185.688 264.467 185.981C264.634 186.275 264.858 186.532 265.126 186.737C265.394 186.942 265.7 187.091 266.027 187.175C266.353 187.259 266.694 187.276 267.027 187.226C267.689 187.087 268.296 186.757 268.773 186.276C269.249 185.796 269.575 185.185 269.708 184.521V184.529Z" fill="#CCCCCC"/>
<path d="M228.916 185.66C228.761 185.168 228.463 184.733 228.059 184.412C227.655 184.09 227.165 183.898 226.65 183.858C225.807 183.956 225.019 184.328 224.407 184.916C215.659 191.745 207.68 199.505 200.61 208.062C201.496 205.301 201.502 202.906 202.388 200.145C202.728 199.316 202.862 198.416 202.779 197.523C202.723 197.079 202.512 196.67 202.183 196.367C201.855 196.064 201.43 195.887 200.984 195.867C200.072 195.933 199.494 196.841 199.061 197.65C187.275 220.018 182.501 245.318 173.99 269.126C171.553 275.941 168.808 282.639 166.064 289.334C165.95 289.616 165.747 289.949 165.448 289.904C165.148 289.86 165.394 289.246 165.554 289.502C145.944 264.759 127.703 239.964 110.101 213.762L109.914 213.494C109.909 213.517 109.899 213.539 109.887 213.559C109.834 213.641 109.738 213.708 109.65 213.648C109.473 213.527 109.51 213.26 109.57 213.054L109.589 212.99C109.775 212.332 109.961 211.685 110.164 211.024C111.768 205.707 113.768 200.518 116.146 195.5C117.302 192.847 118.815 190.364 120.645 188.123C125.577 182.473 133.363 180.398 140.722 178.963C142.115 178.801 143.454 178.328 144.641 177.58C147.508 175.433 147.586 170.567 146.713 167.091C143.594 166.065 140.645 164.581 137.962 162.686C137.074 162.058 136.115 161.069 136.488 160.047C139.82 159.491 143.187 159.173 146.564 159.095C146.151 156.888 145.939 154.435 145.527 152.229C147.413 151.747 149.835 151.297 151.723 150.82C149.476 147.845 147.631 144.586 146.237 141.127C143.866 134.926 143.367 127.623 138.674 122.933C140.243 123.639 142.057 122.351 143.701 121.859C146.678 121.151 149.391 119.606 151.52 117.406C152.559 116.287 153.223 114.871 153.42 113.355C153.617 111.84 153.337 110.301 152.619 108.953C151.866 107.956 150.893 107.147 149.777 106.588C148.661 106.029 147.431 105.736 146.183 105.73C144.171 105.604 142.155 105.915 140.275 106.642C142.297 104.64 140.915 101.007 138.785 99.1297C137.648 98.2692 136.34 97.6642 134.948 97.356C133.556 97.0478 132.115 97.0437 130.721 97.3439C122.129 98.6823 115.964 105.997 108.909 111.085C101.188 116.655 91.7218 119.898 85.1959 126.834C81.3603 130.911 78.7834 136.031 75.0243 140.18C64.3835 151.924 46.5278 153.842 33.9562 163.48C29.4849 166.918 25.8111 171.286 23.1883 176.282C20.5654 181.278 19.0556 186.784 18.7631 192.421C18.5571 198.063 19.6686 203.675 22.0087 208.811C24.3487 213.948 27.8531 218.467 32.2434 222.01C41.0968 228.948 51.5475 228.693 62.1082 224.827C31.1202 282.236 12.0816 345.34 6.14316 410.324C4.49723 428.836 2.58872 447.418 0.821777 465.987H172.795L142.773 341.925L142.358 340.212L142.812 340.374C145.019 341.151 154.816 344.587 160.203 346.087C166.982 347.964 173.991 348.88 181.024 348.809C182.37 348.885 183.714 348.624 184.934 348.05C187.882 346.406 188.922 342.644 189.717 339.353C191.222 333.159 198.213 284.695 200.803 257.281C201.907 245.588 203.161 233.345 209.688 223.589C214.31 216.692 218.318 209.982 222.697 202.899C225.71 198.627 227.853 193.804 229.006 188.704C229.233 187.698 229.202 186.651 228.916 185.66Z" fill="#53565A"/>
<path d="M109.838 213.372L109.92 213.494C109.938 213.43 109.918 213.374 109.838 213.372Z" fill="#53565A"/>
<path d="M183.52 48.578C183.21 49.8767 182.432 51.015 181.335 51.7747C180.491 52.258 179.543 52.5274 178.571 52.5595C177.094 52.6899 175.607 52.441 174.252 51.8362C172.892 51.2222 171.808 50.1241 171.211 48.7551C170.54 46.6212 170.605 44.3231 171.398 42.2311C166.691 41.2804 162.114 40.7846 157.346 40.2179C155.556 53.1764 153.613 66.1132 151.516 79.0283C156.869 80.0199 162.231 81.2296 167.584 82.2213C166.911 85.9899 165.824 89.6726 164.343 93.2021C167.456 90.1906 170.208 86.8264 172.544 83.1775C180.126 84.6911 187.626 86.0593 195.26 87.3175C196.17 82.1877 196.967 76.9424 197.645 71.7773C197.699 71.3709 197.136 71.2796 196.727 71.2983C195.124 71.3766 193.34 71.8928 192.039 70.9552C191.37 70.4018 190.9 69.6444 190.702 68.7986C190.042 66.6017 190.153 64.2449 191.016 62.1199C191.397 61.0915 192.054 60.1884 192.916 59.5103C193.349 59.1773 193.858 58.9572 194.398 58.8697C194.937 58.7822 195.49 58.83 196.006 59.0089C196.936 59.5215 197.729 60.2511 198.317 61.1357C198.504 61.4071 198.78 61.6047 199.097 61.6949C199.693 61.7937 199.933 60.8822 200.002 60.2839L201.508 47.2154C195.801 46.2107 190.043 45.247 184.286 44.5871C184.191 45.9432 183.934 47.2831 183.52 48.578Z" fill="#CCCCCC"/>
<path d="M243.102 0L197.858 0.203135V0.212465C198.335 0.212465 198.808 0.212465 199.284 0.212465C199.565 5.40892 199.577 10.6164 199.321 15.8141C198.182 14.7927 197.234 13.4152 195.763 12.9939C194.828 12.816 193.859 12.9638 193.019 13.4127C192.179 13.8616 191.517 14.5846 191.144 15.4618C190.446 17.2469 190.357 19.2132 190.892 21.0538C191.11 22.415 191.743 23.6753 192.706 24.6607C193.2 25.136 193.844 25.4234 194.527 25.4731C195.21 25.5228 195.889 25.3317 196.447 24.9329C196.908 24.5247 197.18 23.9431 197.607 23.4976C197.798 23.2564 198.067 23.0881 198.367 23.0203C198.667 22.9525 198.982 22.9894 199.258 23.1248C199.437 23.298 199.576 23.508 199.666 23.7403C199.756 23.9727 199.795 24.2218 199.779 24.4706C200.199 29.3211 200.358 34.1906 200.258 39.0582C200.149 39.0958 200.039 39.1269 199.927 39.1515C205.376 39.1123 210.824 38.8737 216.274 38.7488C216.651 38.5955 217.021 38.4225 217.38 38.2306C217.404 38.1747 217.436 38.1225 217.462 38.0685C217.425 36.7283 216.937 35.388 216.933 34.0478C216.896 33.5092 216.967 32.9685 217.142 32.4578C217.371 31.9804 217.717 31.5683 218.147 31.2593C219.475 30.2739 221.035 29.6491 222.675 29.4456C224.666 29.0491 226.732 29.3902 228.49 30.4055C229.348 30.9344 230.012 31.7278 230.381 32.6666C230.751 33.6055 230.806 34.6389 230.538 35.6117C230.29 36.121 230.088 36.652 229.937 37.198C229.844 37.7572 230.277 38.13 230.825 38.2772C235.293 38.199 239.948 38.0778 244.417 37.9995C243.949 25.1752 243.577 12.8206 243.102 0Z" fill="#CCCCCC"/>
<path d="M255.263 77.2386C252.265 64.6455 248.95 52.125 245.316 39.6772C239.803 41.1162 234.517 42.4732 229.283 43.8153C229.877 42.7277 230.221 41.5207 230.287 40.283C230.328 39.5408 230.21 38.7984 229.94 38.1061C229.669 37.4137 229.254 36.7875 228.721 36.2698C227.949 35.6217 227.027 35.1793 226.038 34.9837C224.913 34.7053 223.744 34.6527 222.599 34.829C221.454 35.0053 220.355 35.4069 219.365 36.0107C218.712 36.4131 218.151 36.95 217.721 37.5858C217.626 37.7395 217.541 37.8995 217.468 38.0648C217.468 38.1114 217.468 38.1599 217.468 38.2065C217.438 38.2092 217.408 38.2161 217.38 38.227C217.097 38.9954 216.983 39.8157 217.044 40.6323C217.106 41.4489 217.343 42.2427 217.738 42.9597C218.408 44.1672 219.309 45.2312 220.389 46.0912C214.744 47.5358 209.052 48.9991 203.094 50.5518C202.794 50.5997 202.508 50.7139 202.258 50.886C202.007 51.0582 201.798 51.284 201.645 51.5471C202.714 55.7933 203.8 60.0352 204.902 64.2727C204.576 63.6449 204.076 63.1252 203.461 62.7768C202.847 62.4283 202.144 62.2661 201.439 62.3099C200.654 62.394 199.902 62.6744 199.253 63.1251C198.605 63.5759 198.079 64.1827 197.726 64.8896C197.036 66.3224 196.856 67.948 197.214 69.4975C197.499 71.0416 198.267 72.4549 199.407 73.5331C199.979 74.0638 200.661 74.4622 201.404 74.7002C202.147 74.9382 202.933 75.01 203.707 74.9105C204.411 74.7839 205.078 74.4987 205.656 74.0763C206.235 73.6539 206.709 73.1055 207.045 72.4724C208.512 78.0284 210.002 83.5775 211.513 89.1198C213.17 88.9549 214.805 88.6188 216.392 88.1169C216.907 87.9715 228.047 85.4347 239.293 82.607C241.9 85.9864 244.713 88.7899 247.646 92.0407C245.998 88.7619 245.618 84.8102 244.689 81.2295C248.562 80.2211 252.235 79.2182 255.253 78.3142C255.384 77.9682 255.388 77.5868 255.263 77.2386Z" fill="#2E66FF"/>
<path d="M182.384 39.6249C187.845 39.5411 193.103 39.3566 198.564 39.2745C199.023 39.2821 199.482 39.2396 199.932 39.1477C200.044 39.1232 200.155 39.0921 200.264 39.0546C200.364 34.1869 200.204 29.3175 199.785 24.4669C199.8 24.2182 199.762 23.969 199.672 23.7367C199.582 23.5043 199.443 23.2943 199.264 23.1211C198.987 22.9857 198.673 22.9488 198.372 23.0166C198.072 23.0844 197.804 23.2528 197.612 23.4939C197.186 23.9394 196.914 24.521 196.452 24.9292C195.895 25.328 195.216 25.5192 194.533 25.4695C193.85 25.4198 193.205 25.1323 192.712 24.657C191.749 23.6716 191.115 22.4114 190.898 21.0502C190.363 19.2095 190.451 17.2433 191.15 15.4582C191.523 14.581 192.184 13.8579 193.025 13.409C193.865 12.9601 194.833 12.8123 195.769 12.9903C197.24 13.4115 198.189 14.789 199.327 15.8105C199.583 10.6127 199.57 5.40527 199.29 0.208814C198.813 0.208814 198.34 0.208814 197.863 0.208814C184.037 0.121206 170.43 0.915247 156.587 0.767991L156.669 39.3733C162.124 39.5168 167.407 39.4385 172.868 39.487C172.124 40.7838 171.573 42.1814 171.229 43.6363C171.056 44.345 171.04 45.0831 171.183 45.7985C171.326 46.5139 171.625 47.1891 172.058 47.7762C172.797 48.4626 173.686 48.9684 174.653 49.2543C175.62 49.5401 176.64 49.5982 177.634 49.424C178.834 49.39 180.019 49.1373 181.129 48.6784C181.683 48.4475 182.186 48.1076 182.606 47.6789C183.027 47.2502 183.358 46.7414 183.579 46.1825C183.834 45.2391 183.885 44.2523 183.728 43.2877C183.753 41.9415 183.273 40.6347 182.384 39.6249Z" fill="#2E66FF"/>
<path d="M256.063 156.276C256.347 156.228 256.627 156.157 256.899 156.063C256.994 155.877 257.253 155.989 257.374 155.812L257.454 155.899C257.495 155.838 257.549 155.791 257.612 155.834V155.862C257.674 155.773 257.77 155.797 257.798 155.752V155.782L257.89 155.748V155.793C257.941 155.745 258.002 155.708 258.068 155.684C258.134 155.66 258.205 155.649 258.275 155.653L258.238 155.538C258.53 155.607 258.565 155.338 258.839 155.439V155.469C259.057 155.087 259.364 155.554 259.584 155.18C259.556 155.226 259.618 155.236 259.621 155.264C259.753 155.193 259.899 155.135 259.835 154.904C259.938 154.88 259.938 154.952 259.977 155.038C259.967 154.995 259.974 154.95 259.997 154.913C260.02 154.876 260.057 154.849 260.1 154.839L260.074 154.889L260.29 154.786L260.189 154.611C260.323 154.628 260.288 154.833 260.388 154.751L260.34 154.594C260.513 154.576 260.683 154.781 260.882 154.85C261.573 154.703 262.137 154.061 262.842 154.104L262.913 154.209C262.991 154.373 262.986 153.894 263.068 154.041L263.108 153.935C263.14 153.957 263.194 153.974 263.174 154.024C263.241 154.005 263.231 153.977 263.258 153.907L263.369 153.983C263.658 153.959 263.796 153.677 264.077 153.599C264.488 153.672 265.008 153.213 265.293 152.937C265.654 152.477 266.523 152.831 266.866 152.302C266.894 152.317 266.907 152.244 266.897 152.225L267.346 152.009C267.451 151.955 267.551 151.893 267.646 151.823C267.825 151.703 267.984 151.556 268.117 151.387C268.357 151.051 268.281 150.686 267.143 150.488L267.134 150.447C266.86 150.499 266.709 150.561 266.646 150.82C266.505 150.622 266.445 150.9 266.354 150.861V150.84C266.302 151.081 265.993 150.863 265.937 151.081C265.937 151.06 265.905 151.003 265.937 150.982C265.853 151.06 265.741 151.168 265.669 151.055C265.447 151.208 265.09 151.319 265.034 151.595V151.554C265.011 151.741 264.929 151.629 264.864 151.741C264.851 151.728 264.84 151.722 264.838 151.715C264.805 151.901 264.566 151.867 264.516 151.962L264.471 151.88L264.285 151.99L264.365 151.974C264.445 152.22 264.153 151.897 264.081 152.108C263.935 152.136 264.026 152.714 263.836 152.667C263.818 152.807 263.818 152.462 263.755 152.591C263.699 152.469 263.768 152.494 263.7 152.404C263.628 152.505 263.488 152.348 263.406 152.483L263.36 152.387C263.278 152.63 263.014 152.387 262.988 152.591C262.859 152.736 262.766 152.346 262.673 152.604L262.557 152.499C262.477 152.499 262.569 152.686 262.464 152.648C262.436 152.565 262.34 152.622 262.355 152.525C262.126 152.464 262.057 152.846 261.736 152.712C261.736 152.898 261.589 152.84 261.595 152.978C261.563 152.909 261.349 153.055 261.429 152.852C261.429 152.835 261.457 152.829 261.466 152.852L261.448 152.749C261.248 152.617 261.235 152.935 261.09 152.952C261.14 152.971 261.191 152.952 261.178 153.023L261.047 153.053V152.962L260.844 152.978L260.904 153.07C260.794 153.049 260.707 152.883 260.649 153.07C260.629 153.167 260.781 153.178 260.694 153.241C260.52 153.2 260.342 153.181 260.163 153.185C260.213 153.295 260.163 153.305 260.133 153.342L260.096 153.243C259.971 153.429 259.968 153.042 259.835 153.202V153.129L259.854 153.351C259.761 153.595 259.712 153.165 259.623 153.489C259.684 153.452 259.72 153.702 259.623 153.675V153.571C259.584 153.607 259.58 153.651 259.543 153.638C259.556 153.579 259.517 153.495 259.456 153.528L259.467 153.396L259.39 153.608C259.264 153.53 259.145 153.703 259.066 153.577C259.066 153.577 258.839 153.567 258.832 153.731C258.848 153.625 258.724 153.621 258.728 153.504C258.701 153.623 258.564 153.754 258.47 153.655L258.48 153.64C258.212 153.582 258.107 153.897 257.862 153.808C257.899 153.923 257.77 153.886 257.834 154.031C257.647 154.237 257.357 153.813 257.377 154.3C257.281 154.347 257.234 154.214 257.177 154.201L257.195 154.171C257.075 154.232 256.945 154.271 256.812 154.287C256.75 154.347 256.782 154.568 256.642 154.538C256.668 154.445 256.618 154.47 256.57 154.479C256.599 154.46 256.601 154.427 256.529 154.378C256.526 154.401 256.517 154.423 256.502 154.442V154.421C256.428 154.466 256.449 154.492 256.488 154.496C256.489 154.515 256.497 154.533 256.51 154.548C256.406 154.451 256.279 154.598 256.242 154.451C256.007 154.527 255.869 154.717 255.668 154.805C255.655 154.772 255.653 154.736 255.662 154.702C255.672 154.668 255.694 154.639 255.722 154.619L255.584 154.669C255.568 154.557 255.657 154.593 255.696 154.565C255.499 154.41 255.374 154.796 255.149 154.662L255.121 154.755L255.106 154.742C255.107 154.767 255.103 154.792 255.093 154.816C255.084 154.839 255.069 154.861 255.05 154.878C255.009 154.786 255.02 154.654 254.924 154.675C254.912 154.668 254.898 154.665 254.884 154.665C254.884 155.198 254.873 155.733 254.87 156.266C255.331 156.287 255.531 156.444 256.063 156.276Z" fill="#202020"/>
<path d="M258.284 258.377C258.307 258.377 258.325 258.339 258.335 258.237L258.284 258.377Z" fill="#202020"/>
<path d="M256.754 263.791L256.741 263.756L256.754 263.791Z" fill="#202020"/>
<path d="M263.646 286.224C263.475 285.62 263.893 285.764 263.601 285.149C263.638 285.056 263.665 284.962 263.693 284.873C263.657 284.593 263.482 284.709 263.484 284.392C263.575 284.392 263.471 283.993 263.592 284.154C263.592 283.419 263.045 282.821 263.015 281.863C262.788 281.728 262.739 281.262 262.57 281.166C262.631 281.119 262.277 280.301 262.601 280.729C262.629 280.767 262.652 280.841 262.622 280.845L262.739 280.869C262.75 280.31 262.324 280.021 262.181 279.533C262.203 279.686 262.279 279.872 262.167 279.769L262.017 279.324L262.13 279.385L261.933 278.709L261.868 278.837C261.799 278.498 261.925 278.321 261.65 278.013C261.508 277.879 261.628 278.366 261.464 278.041C261.371 277.589 261.233 276.91 261.067 276.364C260.972 276.455 260.924 276.308 260.847 276.164L260.939 276.112C260.596 275.585 261.078 275.825 260.769 275.292L260.855 275.318L260.596 275.24C260.224 274.789 260.708 274.893 260.25 274.407C260.339 274.628 260.064 274.593 260.019 274.291L260.138 274.332C260.069 274.183 260.012 274.146 259.998 274.034C260.08 274.11 260.155 274.034 260.066 273.816L260.235 273.931L259.926 273.559C259.926 273.186 259.652 272.701 259.755 272.528C259.755 272.528 259.721 272.341 259.673 272.144C259.645 271.966 259.57 271.799 259.455 271.661C259.581 271.786 259.526 271.381 259.661 271.475C259.462 271.207 259.368 270.875 259.395 270.543L259.416 270.582C259.393 270.203 259.331 269.829 259.229 269.463C259.125 269.117 259.08 268.756 259.097 268.395C258.982 268.444 259.002 268.034 258.859 268.151C258.621 267.374 259.034 266.68 258.533 266.433C258.481 266.073 258.613 265.996 258.624 265.806L258.656 265.892C258.587 265.436 258.547 264.976 258.537 264.514C258.479 264.265 258.25 264.237 258.287 263.78C258.38 263.924 258.358 263.739 258.351 263.569C258.369 263.678 258.403 263.709 258.453 263.485C258.425 263.449 258.403 263.407 258.39 263.363C258.39 263.363 258.403 263.351 258.412 263.363C258.369 263.081 258.343 263.131 258.338 263.264C258.323 263.264 258.306 263.264 258.284 263.31C258.384 263.014 258.248 262.492 258.399 262.453C258.34 261.605 258.181 260.999 258.116 260.289C258.194 260.209 258.263 260.374 258.302 260.58L258.271 260.078C258.382 260.078 258.334 260.365 258.36 260.52C258.546 259.923 258.174 259.288 258.36 258.587L258.274 258.44L258.291 258.399C258.243 258.399 258.183 258.24 258.168 258.136C258.269 258.039 258.393 258.149 258.393 257.8C258.442 257.419 258.42 257.033 258.328 256.66C258.306 256.846 258.254 256.788 258.222 256.702C258.222 256.529 258.324 256.432 258.289 256.296L258.421 256.285C258.295 256.348 258.308 255.826 258.256 255.759C258.358 255.666 258.328 256.033 258.401 256.08L258.427 255.148C257.85 256.258 257.271 257.365 256.692 258.47C256.599 259.279 256.577 260.096 256.627 260.909C256.613 261.862 256.695 262.878 256.761 263.806C256.947 264.24 256.826 265.029 257.003 265.541L256.919 265.75C256.994 265.93 257.018 266.128 256.989 266.321L256.96 266.311C257.055 266.574 257.034 266.88 257.086 267.01H257.055L257.098 267.335L257.051 267.282C257.163 267.732 257.225 268.192 257.237 268.654L257.355 268.606C257.323 269.538 257.617 269.821 257.587 270.677H257.556C258.051 271.663 257.66 272.382 258.241 273.361C258.17 273.24 258.196 273.434 258.165 273.432C258.336 273.903 258.505 274.409 258.738 274.343C258.842 274.688 258.755 274.647 258.68 274.716C258.781 274.681 258.913 274.968 259.012 275.231L258.932 275.121L259.224 275.866L259.358 275.654C259.444 276.071 259.172 275.84 259.345 276.202L259.498 276.142C259.583 276.653 259.628 277.171 259.632 277.689C260.621 279.788 261.388 281.985 261.918 284.245L261.817 284.362C261.65 284.439 262.19 284.871 262.054 284.985L262.186 285.209C262.171 285.281 262.16 285.428 262.1 285.317C262.11 285.45 262.155 285.579 262.231 285.689L262.154 285.947C262.175 286.39 262.27 286.791 262.322 287.205C262.414 287.633 262.453 288.072 262.439 288.51C262.382 288.839 262.347 289.173 262.333 289.507C262.298 289.88 262.281 290.286 262.272 290.698C262.262 291.11 262.216 291.526 262.199 291.917L262.108 292.983C262.035 294.769 260.76 296.525 260.447 298.307C260.43 298.34 260.419 298.376 260.416 298.413C260.413 298.45 260.417 298.488 260.429 298.523L259.833 300.07C259.434 301.089 259.089 302.128 258.798 303.183C258.5 304.417 258.654 304.997 260.46 302.396L260.483 302.449C260.856 301.835 261.089 301.146 261.168 300.432C261.43 300.432 261.453 299.729 261.6 299.554L261.611 299.58C261.635 298.993 262.145 298.538 262.169 297.968C262.193 297.992 262.209 298.022 262.215 298.056C262.221 298.089 262.217 298.123 262.203 298.154C262.309 297.77 262.419 297.233 262.56 297.248C262.9 296.336 263.102 295.378 263.158 294.406L263.186 294.456C263.117 294.083 263.266 294.01 263.281 293.613C263.303 293.597 263.318 293.57 263.326 293.578C263.344 293.103 263.4 292.631 263.495 292.165H263.588L263.665 291.406L263.609 291.686C263.359 291.557 263.856 291.138 263.73 290.568C263.789 290.047 263.288 289.498 263.396 288.979C263.277 288.726 263.592 289.203 263.501 288.825C263.633 288.814 263.584 289.011 263.687 288.905C263.618 288.532 263.838 288.288 263.72 287.827L263.823 287.805C263.579 287.173 263.899 286.607 263.646 286.224Z" fill="#202020"/>
<path d="M277.761 274.414L277.698 274.541C277.72 274.541 277.743 274.509 277.761 274.414Z" fill="#202020"/>
<path d="M276.203 290.848L276.27 290.907L276.203 290.848Z" fill="#202020"/>
<path d="M290.736 321.428L290.473 321.337C290.475 321.361 290.54 321.391 290.736 321.428Z" fill="#202020"/>
<path d="M222.835 315.966L222.787 316.006C222.805 315.995 222.821 315.982 222.835 315.966Z" fill="#202020"/>
<path d="M266.916 318.282C268.545 318.624 269.753 318.496 271.209 318.85C271.157 318.721 271.928 318.897 271.756 318.716C273.306 318.781 274.497 319.419 275.117 319.029C275.515 319.087 275.905 319.19 276.279 319.337H276.11C277.413 319.488 277.795 319.538 278.759 319.691C279.24 319.61 279.732 319.61 280.213 319.691C279.921 319.735 280.277 319.773 280.601 319.821C280.392 319.804 280.323 319.821 280.738 319.95C280.82 319.933 280.903 319.925 280.986 319.927C280.986 319.927 281.005 319.944 280.986 319.952C281.53 320.002 281.44 319.961 281.193 319.911C281.206 319.899 281.193 319.879 281.114 319.844C281.656 320.041 282.677 320.071 282.721 320.231C284.349 320.444 285.531 320.472 286.89 320.623C287.03 320.723 286.704 320.742 286.307 320.71L287.268 320.831C287.242 320.941 286.709 320.809 286.41 320.787C287.527 321.141 288.787 320.973 290.098 321.346L290.389 321.303L290.465 321.329C290.465 321.283 290.779 321.268 290.979 321.283C291.152 321.409 290.93 321.504 291.593 321.603C292.313 321.754 293.044 321.837 293.779 321.851C293.407 321.775 293.541 321.741 293.705 321.732C293.956 321.81 294.212 321.872 294.472 321.918L294.483 322.054C294.373 321.909 295.369 322.054 295.5 322.026C295.671 322.153 294.972 322.026 294.878 322.086L296.87 322.388C297.592 322.403 296.762 322.243 297.117 322.183C297.776 322.223 298.431 322.316 299.074 322.462L298.866 322.31C299.768 322.359 300.661 322.518 301.525 322.783C310.417 323.264 303.573 321.795 303.573 321.795C300.485 321.178 297.366 320.732 294.23 320.459C290.636 319.827 289.716 319.447 285.963 318.958C284.183 318.66 282.271 318.423 280.522 318.188C279.668 318.237 278.23 317.847 277.229 317.853L276.856 317.696C276.493 317.707 276.129 317.665 275.778 317.569L275.804 317.545C275.289 317.545 274.726 317.417 274.469 317.42L274.495 317.394L273.879 317.32L273.991 317.294C273.444 317.266 272.894 317.208 272.365 317.133C272.458 316.915 272.551 316.677 272.671 316.388L272.704 316.431C272.909 315.791 272.963 315.113 272.862 314.449C273.114 314.386 272.972 313.754 273.075 313.564L273.092 313.584C272.971 313.044 273.375 312.535 273.278 312.015C273.304 312.031 273.325 312.054 273.337 312.082C273.35 312.11 273.354 312.141 273.348 312.171C273.363 311.799 273.371 311.297 273.512 311.288C273.661 310.408 273.703 309.513 273.639 308.622L273.674 308.665C273.563 308.328 273.702 308.249 273.674 307.886L273.713 307.849C273.696 307.413 273.72 306.976 273.784 306.544H273.879L273.94 305.852L273.89 306.108C273.646 305.987 274.114 305.604 274.01 305.084C274.099 304.622 273.596 304.072 273.779 303.593C273.687 303.347 273.948 303.821 273.898 303.465C274.032 303.465 273.961 303.636 274.084 303.56C274.063 303.211 274.287 303.017 274.25 302.588H274.354C274.233 302.018 274.616 301.573 274.48 301.187C274.464 300.613 274.832 300.846 274.702 300.232L274.87 300.022C274.924 299.774 274.721 299.82 274.821 299.55C274.907 299.578 274.935 299.207 274.998 299.381C275.212 298.765 274.959 298.076 275.292 297.272C275.143 297.071 275.292 296.665 275.184 296.514C275.261 296.501 275.298 295.677 275.402 296.167C275.411 296.21 275.402 296.281 275.371 296.271L275.466 296.34C275.715 295.889 275.465 295.466 275.551 295C275.501 295.136 275.488 295.323 275.432 295.187L275.499 294.752L275.573 294.853L275.704 294.21L275.586 294.286C275.68 293.975 275.873 293.886 275.773 293.509C275.709 293.336 275.587 293.792 275.601 293.453C275.765 292.935 275.901 292.409 276.009 291.876C275.884 291.912 275.907 291.766 275.899 291.613H276.005C275.931 291.021 276.259 291.427 276.214 290.845L276.082 290.726C275.94 290.185 276.331 290.474 276.121 289.869C276.11 290.096 275.879 289.947 275.957 289.682L276.048 289.766C276.048 289.609 276.011 289.552 276.048 289.453C276.091 289.55 276.188 289.518 276.197 289.291L276.305 289.457L276.173 289.006C276.32 288.689 276.249 288.148 276.408 288.029C276.408 288.029 276.562 287.326 276.428 287.143C276.506 287.298 276.59 286.91 276.689 287.035C276.586 286.723 276.598 286.384 276.722 286.079L276.731 286.122C276.947 285.33 276.732 284.724 276.968 284.017C276.843 284.036 276.955 283.661 276.791 283.738C276.73 282.97 277.268 282.411 276.826 282.083C276.843 281.738 276.987 281.693 277.033 281.523L277.048 281.607C277.067 281.171 277.109 280.735 277.173 280.302C277.156 280.06 276.94 279.997 277.044 279.579C277.115 279.727 277.121 279.551 277.139 279.393C277.139 279.495 277.169 279.531 277.255 279.329C277.232 279.292 277.216 279.25 277.21 279.206C277.21 279.206 277.223 279.206 277.232 279.206C277.232 278.938 277.201 278.981 277.175 279.102C277.162 279.102 277.143 279.102 277.115 279.137C277.26 278.877 277.199 278.371 277.353 278.356C277.417 277.555 277.329 276.968 277.353 276.306C277.441 276.241 277.489 276.405 277.497 276.601L277.525 276.127C277.636 276.144 277.556 276.405 277.562 276.552C277.81 276.015 277.521 275.378 277.767 274.74L277.694 274.595L277.715 274.558C277.668 274.558 277.622 274.399 277.62 274.3C277.728 274.218 277.841 274.334 277.875 274.008C277.955 273.654 277.966 273.288 277.906 272.93C277.867 273.117 277.821 273.044 277.797 272.962C277.811 272.8 277.921 272.718 277.893 272.589H278.027C277.895 272.638 277.946 272.149 277.899 272.082C278.007 272.002 277.953 272.345 278.02 272.394L278.12 271.415C278.065 271.055 277.99 271.463 277.895 271.283C277.867 270.96 277.893 270.635 277.973 270.321L277.843 270.418C277.801 269.973 277.87 269.524 278.044 269.113C277.618 264.705 276.86 268.052 276.86 268.052C276.564 269.565 276.436 271.106 276.476 272.647C276.171 273.982 275.942 275.333 275.789 276.694C275.665 277.564 275.603 278.504 275.527 279.361C275.653 279.788 275.393 280.48 275.482 280.983L275.359 281.156C275.401 281.332 275.389 281.516 275.326 281.686L275.298 281.671C275.307 281.89 275.304 282.11 275.288 282.329L275.261 282.314L275.236 282.616L275.201 282.56C275.224 282.986 275.189 283.414 275.097 283.831L275.222 283.814C274.985 284.634 275.197 284.97 274.946 285.706L274.918 285.691C275.119 286.685 274.518 287.183 274.7 288.195C274.678 288.068 274.631 288.239 274.603 288.226C274.583 288.683 274.542 289.17 274.778 289.205C274.736 289.535 274.67 289.466 274.575 289.498C274.678 289.507 274.687 289.8 274.661 290.057L274.637 289.934L274.581 290.679L274.795 290.558C274.691 290.944 274.544 290.629 274.546 291.009L274.71 291.024C274.564 291.486 274.377 291.933 274.151 292.361C273.816 294.53 273.946 296.924 273.406 298.916L273.274 298.991C273.088 299.008 273.46 299.584 273.295 299.64L273.347 299.886C273.307 299.949 273.257 300.083 273.231 299.962C273.204 300.092 273.215 300.227 273.261 300.352L273.121 300.572C272.935 301.422 273.056 302.18 272.902 303.081C272.589 304.501 272.448 305.954 272.481 307.409C272.546 309.099 271.602 310.941 271.699 312.676C271.688 312.71 271.686 312.746 271.69 312.781C271.695 312.816 271.708 312.85 271.727 312.88L271.513 314.431C271.513 314.431 271.327 315.922 271.295 317.089C269.742 316.764 269.061 316.902 267.601 316.548L267.625 316.522C265.631 316.572 264.564 315.897 262.51 315.94C262.765 315.94 262.41 315.866 262.434 315.838C261.503 315.752 260.507 315.651 260.464 315.886C259.786 315.802 259.922 315.747 259.844 315.644C259.844 315.748 259.243 315.72 258.714 315.663L258.962 315.653L257.442 315.506L257.718 315.737C256.921 315.584 257.541 315.474 256.766 315.43L256.757 315.592C255.651 315.437 255.025 315.116 253.964 314.876C249.496 314.317 244.642 314.252 240.49 313.64L240.315 313.502C240.248 313.316 239.142 313.674 238.995 313.502L238.503 313.547C238.369 313.506 238.082 313.45 238.328 313.428C238.065 313.397 237.799 313.404 237.539 313.448L237.064 313.303C235.293 313.096 233.779 313.18 231.886 313.07C230.389 312.898 228.876 312.921 227.386 313.139C225.807 313.347 224.276 313.823 222.857 314.546C222.455 314.76 222.072 314.999 221.658 315.249C221.238 315.523 220.848 315.842 220.495 316.199C220.123 316.573 219.809 317 219.564 317.467C219.272 317.998 219.138 318.601 219.178 319.206C219.252 319.873 219.57 320.488 220.072 320.932C220.542 321.328 221.11 321.589 221.716 321.689C222.683 321.828 223.667 321.796 224.623 321.596C224.761 321.598 224.898 321.569 225.023 321.51L228.22 321.281C228.22 321.281 231.221 321.055 233.569 320.755C233.444 320.965 233.304 321.165 233.15 321.353C232.587 321.714 232.045 322.107 231.526 322.53C231.18 322.774 230.845 323.078 230.513 323.324C230.445 323.585 230.052 323.603 229.929 323.853L229.8 323.806C229.784 323.849 229.755 323.885 229.718 323.91C229.681 323.936 229.637 323.95 229.592 323.95V323.922C229.521 324.043 229.382 324.066 229.346 324.125V324.097C229.305 324.125 229.262 324.146 229.221 324.17V324.121C229.075 324.267 228.89 324.367 228.689 324.41L228.748 324.518C228.322 324.518 228.274 324.832 227.873 324.772V324.742C227.516 325.188 227.129 324.714 226.738 325.096C226.79 325.05 226.702 325.037 226.702 325.009C226.497 325.07 226.272 325.121 226.293 325.359C226.132 325.378 226.155 325.298 226.127 325.208C226.138 325.313 226.002 325.367 225.877 325.383L225.931 325.339C225.814 325.361 225.695 325.376 225.576 325.391L225.652 325.587C225.466 325.534 225.598 325.346 225.416 325.4V325.564C225.144 325.531 224.993 325.283 224.751 325.145C223.681 325.199 222.615 324.992 221.644 324.541V324.41C221.688 324.239 221.293 324.567 221.316 324.395L221.178 324.429C221.159 324.386 221.109 324.33 221.178 324.313C221.079 324.269 221.066 324.295 220.975 324.313L220.912 324.164C220.558 323.922 220.143 323.959 219.761 323.715C219.194 323.257 218.546 322.91 217.851 322.692C217.531 322.577 217.25 322.375 217.037 322.11C216.739 322.502 216.479 322.922 216.263 323.365C216.377 323.429 216.504 323.464 216.635 323.467L216.596 323.488C216.821 323.462 216.782 323.594 216.989 323.639V323.68C217.223 323.661 217.449 323.959 217.611 323.985L217.568 324.069L217.892 324.256L217.786 324.164C217.959 323.978 217.938 324.449 218.255 324.444C218.458 324.6 218.953 324.235 219.117 324.463C219.281 324.414 218.931 324.584 219.135 324.589C219.078 324.71 219.02 324.623 219.011 324.738C219.197 324.768 219.21 325.001 219.454 325.02L219.417 325.119C219.759 325.08 219.862 325.482 220.115 325.398C220.429 325.439 220.182 325.771 220.556 325.7L220.619 325.875C220.74 325.948 220.774 325.751 220.891 325.875C220.85 325.957 221.048 326.008 220.934 326.062C221.219 326.312 221.66 326.108 222.034 326.457C222.178 326.317 222.373 326.479 222.478 326.368C222.478 326.444 222.924 326.487 222.636 326.586C222.61 326.586 222.572 326.586 222.582 326.554L222.528 326.647C222.744 326.901 223.023 326.647 223.273 326.727C223.202 326.679 223.099 326.668 223.18 326.612C223.258 326.632 223.336 326.653 223.416 326.668L223.351 326.746L223.705 326.85L223.669 326.739C223.835 326.821 223.88 327.005 224.098 326.878C224.196 326.804 223.946 326.716 224.135 326.703C224.416 326.835 224.714 326.927 225.021 326.979C224.995 326.858 225.077 326.863 225.162 326.841V326.945C225.488 326.807 225.284 327.177 225.611 327.057L225.663 326.91C225.944 326.696 225.834 327.121 226.142 326.817C226.015 326.843 226.066 326.591 226.222 326.63L226.192 326.735C226.276 326.705 226.3 326.664 226.36 326.677C226.315 326.738 226.347 326.826 226.473 326.793L226.401 326.929L226.62 326.712C226.82 326.793 227.093 326.623 227.192 326.744C227.192 326.744 227.602 326.727 227.657 326.558C227.6 326.67 227.827 326.658 227.789 326.781C227.871 326.658 228.141 326.483 228.292 326.561L228.274 326.58C228.758 326.58 228.962 326.181 229.391 326.177C229.329 326.075 229.549 326.049 229.441 325.928C229.756 325.624 230.271 325.902 230.186 325.4C230.338 325.292 230.433 325.4 230.53 325.376L230.502 325.419C230.696 325.282 230.898 325.157 231.107 325.046C231.193 324.936 231.098 324.744 231.316 324.664C231.303 324.779 231.372 324.714 231.443 324.664C231.405 324.707 231.407 324.744 231.534 324.731C231.535 324.702 231.543 324.673 231.556 324.647C231.556 324.647 231.567 324.647 231.571 324.664C231.673 324.558 231.636 324.548 231.571 324.574C231.571 324.561 231.552 324.55 231.521 324.541C231.707 324.554 231.862 324.308 231.962 324.42C232.226 324.154 232.465 323.866 232.677 323.558C232.757 323.596 232.737 323.7 232.677 323.79L232.863 323.603C232.932 323.691 232.791 323.745 232.744 323.812C233.098 323.762 233.116 323.281 233.48 323.171V323.055H233.506C233.472 323.02 233.489 322.921 233.517 322.869C233.619 322.908 233.669 323.04 233.79 322.915C233.956 322.889 234.042 322.61 234.135 322.448C234.053 322.503 234.038 322.448 234.044 322.39C234.103 322.328 234.209 322.362 234.23 322.284L234.33 322.371C234.219 322.308 234.392 322.114 234.375 322.054C234.479 322.086 234.343 322.209 234.375 322.276L234.725 321.888C234.779 321.685 234.612 321.827 234.587 321.683C234.677 321.545 234.714 321.366 234.898 321.283L234.772 321.249C234.811 321.136 234.874 321.034 234.958 320.949C235.041 320.864 235.142 320.798 235.254 320.757C235.282 320.666 235.3 320.589 235.321 320.507C236.429 320.293 236.81 320.063 235.433 319.864C235.455 319.433 235.308 319.305 235.138 319.305C234.92 319.338 234.715 319.432 234.546 319.575C234.466 319.628 234.388 319.686 234.315 319.749C233.671 319.693 232.856 319.64 231.834 319.594L231.91 319.549C230.549 319.531 229.191 319.667 227.86 319.954C227.65 319.728 226.421 320.043 225.998 319.998L226.036 319.976C225.502 320.089 224.956 320.138 224.41 320.119C223.892 320.107 223.374 320.139 222.861 320.215C222.897 320.18 222.94 320.154 222.988 320.137C223.035 320.121 223.085 320.115 223.135 320.119C222.789 320.157 222.44 320.157 222.094 320.119C221.796 320.08 221.614 319.989 221.616 319.92C221.472 319.889 221.336 319.83 221.216 319.746C221.095 319.662 220.992 319.555 220.913 319.432C220.833 319.308 220.779 319.17 220.753 319.026C220.727 318.881 220.73 318.733 220.761 318.589C220.948 317.947 221.265 317.351 221.692 316.837L221.668 316.913C221.786 316.719 221.946 316.554 222.137 316.431L222.401 316.265C222.53 316.193 222.654 316.115 222.774 316.03C222.815 316.03 222.861 316.013 222.859 316.03C223.014 315.898 223.185 315.788 223.37 315.702C223.579 315.589 223.796 315.493 224.021 315.417C224.466 315.23 224.922 315.13 225.179 315.018L225.239 315.1C225.673 314.971 226.116 314.869 226.563 314.777L226.058 314.857C226.185 314.567 227.099 314.803 228.072 314.55C229.003 314.492 229.966 313.903 230.971 314.041C231.448 313.925 230.551 314.227 231.262 314.147C231.282 314.281 230.929 314.225 231.109 314.334C231.806 314.287 232.241 314.498 233.103 314.455L233.133 314.561C234.263 314.43 235.241 314.837 236.001 314.706C237.166 314.706 236.756 315.079 237.978 314.951L238.436 315.126C238.952 315.184 238.819 314.982 239.387 315.096C239.344 315.182 240.104 315.225 239.76 315.282C241.043 315.53 242.405 315.292 244.089 315.685C244.474 315.547 245.323 315.728 245.612 315.625C245.651 315.704 247.328 315.797 246.356 315.869C246.273 315.869 246.125 315.86 246.139 315.83L246.014 315.922C246.918 316.059 247.832 316.121 248.747 316.108C248.466 316.045 248.086 316.015 248.347 315.97L249.237 316.076L249.051 316.143L250.374 316.33L250.203 316.205C250.716 316.392 251.261 316.477 251.806 316.455C252.149 316.404 251.207 316.248 251.896 316.285C252.758 316.451 254.048 316.708 255.154 316.863C255.063 316.733 255.363 316.77 255.672 316.781L255.696 316.887C256.889 316.878 256.102 317.161 257.282 317.186L257.504 317.066C258.582 316.988 258.046 317.35 259.25 317.21C258.785 317.172 259.064 316.956 259.623 317.07L259.466 317.152C259.678 317.146 259.891 317.157 260.101 317.186C259.915 317.217 259.985 317.32 260.451 317.359L260.123 317.446L261.023 317.368C261.685 317.555 262.775 317.564 263.034 317.741C263.625 317.86 264.229 317.908 264.832 317.885C264.529 317.944 265.326 318.082 265.082 318.166C265.735 318.108 266.393 318.167 267.025 318.341L266.916 318.282Z" fill="#202020"/>
<path d="M233.562 322.99L233.476 323.001C233.491 323.016 233.517 323.016 233.562 322.99Z" fill="#202020"/>
<path d="M225.584 327.011L225.557 327.084L225.584 327.011Z" fill="#202020"/>
<path d="M228.621 334.884C228.64 334.909 228.673 334.847 228.672 334.827L229.117 334.802C229.22 334.795 229.323 334.778 229.424 334.75C229.613 334.708 229.793 334.632 229.955 334.525C230.262 334.307 230.291 333.941 229.418 333.326V333.287C229.182 333.229 229.046 333.227 228.91 333.438C228.856 333.201 228.724 333.438 228.66 333.363V333.343C228.541 333.542 228.363 333.222 228.247 333.399C228.247 333.38 228.247 333.315 228.277 333.307C228.184 333.345 228.057 333.406 228.039 333.266C227.811 333.319 227.491 333.279 227.351 333.507L227.361 333.468C227.283 333.621 227.253 333.492 227.16 333.572C227.16 333.554 227.147 333.544 227.148 333.537C227.059 333.688 226.879 333.565 226.806 333.63V333.537L226.62 333.563L226.689 333.582C226.664 333.839 226.549 333.425 226.415 333.582C226.292 333.546 226.152 334.109 226.02 333.98C225.955 334.098 226.082 333.794 225.985 333.876C225.985 333.742 226.031 333.794 226.011 333.69C225.916 333.751 225.866 333.55 225.75 333.637V333.533C225.594 333.719 225.482 333.38 225.378 333.555C225.222 333.632 225.298 333.24 225.128 333.432L225.078 333.289C225.015 333.261 225.019 333.458 224.95 333.384C224.961 333.296 224.862 333.307 224.912 333.227C224.762 333.073 224.557 333.388 224.354 333.13C224.287 333.296 224.19 333.183 224.138 333.307C224.138 333.233 223.918 333.27 224.063 333.121C224.076 333.108 224.093 333.121 224.089 333.142L224.117 333.043C224.019 332.838 223.879 333.115 223.76 333.069C223.792 333.108 223.842 333.106 223.799 333.17L223.687 333.14L223.723 333.058L223.562 332.981V333.091C223.488 333.024 223.488 332.84 223.376 332.976C223.32 333.052 223.43 333.129 223.337 333.149C223.226 333.038 223.101 332.941 222.965 332.862C222.956 332.983 222.918 332.972 222.876 332.989L222.89 332.884C222.715 332.998 222.881 332.65 222.704 332.733L222.732 332.664L222.65 332.869C222.464 333.056 222.622 332.644 222.416 332.892C222.479 332.892 222.395 333.121 222.332 333.063L222.373 332.968C222.328 332.981 222.306 333.019 222.283 332.992C222.319 332.944 222.328 332.853 222.265 332.855L222.332 332.741L222.181 332.896C222.121 332.769 221.956 332.868 221.954 332.72C221.954 332.72 221.788 332.61 221.708 332.75C221.769 332.666 221.678 332.605 221.734 332.502C221.662 332.597 221.498 332.649 221.473 332.519L221.488 332.51C221.319 332.336 221.095 332.566 220.954 332.374C220.939 332.444 220.905 332.444 220.876 332.461C221.12 333.152 221.427 333.82 221.792 334.456C221.87 334.439 221.939 334.394 221.978 334.249C222.069 334.275 222.036 334.34 222.028 334.435C222.032 334.415 222.041 334.396 222.052 334.379C222.064 334.362 222.079 334.347 222.096 334.336C222.113 334.325 222.133 334.317 222.153 334.313C222.174 334.309 222.194 334.31 222.214 334.314L222.173 334.346H222.386V334.144C222.483 334.223 222.365 334.387 222.479 334.361L222.509 334.2C222.652 334.26 222.695 334.523 222.82 334.67C223.135 334.733 223.458 334.746 223.777 334.707C224.088 334.659 224.406 334.714 224.683 334.862L224.698 334.987C224.698 335.173 224.885 334.733 224.885 334.901L224.959 334.823C224.974 334.856 225.013 334.894 224.976 334.933C225.037 334.944 225.041 334.914 225.089 334.862L225.149 334.978C225.391 335.08 225.611 334.886 225.868 334.931C226.173 335.17 226.769 334.968 227.098 334.83C227.56 334.573 228.156 335.235 228.621 334.884Z" fill="#202020"/>
<path d="M234.395 337.658L234.384 337.621C234.198 337.621 234.088 337.654 234.071 337.88C233.945 337.675 233.935 337.921 233.863 337.87V337.85C233.852 338.064 233.606 337.809 233.587 338.003C233.587 337.984 233.557 337.923 233.576 337.91C233.522 337.967 233.453 338.057 233.39 337.932C233.246 338.034 233.002 338.077 232.986 338.325V338.286C232.986 338.45 232.917 338.336 232.88 338.435C232.868 338.418 232.859 338.413 232.857 338.405C232.848 338.569 232.671 338.5 232.647 338.592L232.61 338.504L232.489 338.577H232.543C232.615 338.823 232.39 338.465 232.356 338.651C232.258 338.651 232.356 339.211 232.211 339.132C232.211 339.263 232.189 338.935 232.152 339.045C232.107 338.918 232.152 338.955 232.105 338.858C232.058 338.942 231.954 338.767 231.902 338.879L231.867 338.782C231.818 338.996 231.627 338.709 231.61 338.905C231.522 339.02 231.45 338.629 231.392 338.858L231.31 338.735C231.256 338.735 231.321 338.922 231.25 338.862C231.23 338.776 231.165 338.814 231.174 338.722C231.018 338.62 230.975 338.976 230.757 338.787C230.757 338.974 230.658 338.884 230.66 339.017C230.64 338.944 230.495 339.045 230.55 338.864C230.55 338.849 230.569 338.847 230.575 338.877L230.563 338.773C230.431 338.609 230.42 338.912 230.321 338.901C230.357 338.929 230.39 338.914 230.381 338.987H230.292V338.899L230.156 338.875L230.193 338.976C230.12 338.935 230.065 338.76 230.024 338.924C230.007 339.013 230.109 339.052 230.049 339.099C229.941 339.029 229.823 338.976 229.699 338.942C229.727 339.058 229.7 339.058 229.674 339.088L229.653 338.985C229.562 339.145 229.577 338.763 229.484 338.896V338.821V339.041C229.411 339.263 229.4 338.836 229.325 339.132C229.366 339.108 229.377 339.358 229.316 339.319V339.218C229.288 339.244 229.282 339.285 229.26 339.267C229.271 339.211 229.251 339.121 229.208 339.143L229.223 339.015L229.161 339.201C229.083 339.102 228.994 339.248 228.951 339.11C228.933 339.102 228.914 339.098 228.895 339.1C228.876 339.101 228.857 339.107 228.841 339.117C228.824 339.128 228.811 339.142 228.801 339.159C228.792 339.176 228.787 339.195 228.787 339.214C228.806 339.114 228.726 339.086 228.737 338.97C228.711 339.084 228.61 339.185 228.551 339.069V339.056C228.385 338.948 228.29 339.242 228.137 339.101C228.15 339.22 228.072 339.16 228.098 339.313C227.953 339.479 227.815 339.006 227.774 339.488C227.707 339.514 227.69 339.376 227.655 339.352L227.672 339.328C227.59 339.363 227.5 339.376 227.411 339.365C227.393 339.39 227.381 339.418 227.376 339.447C227.862 339.674 228.359 339.875 228.865 340.049C229.437 340.236 230.014 340.407 230.599 340.547C230.73 340.451 230.879 340.381 231.037 340.343C231.195 340.305 231.36 340.299 231.52 340.325L231.572 340.439C231.628 340.612 231.623 340.148 231.682 340.305L231.71 340.21C231.733 340.238 231.772 340.262 231.759 340.308C231.807 340.308 231.8 340.273 231.818 340.21L231.898 340.303C232.107 340.331 232.202 340.085 232.403 340.059C232.706 340.199 233.071 339.848 233.263 339.634C233.496 339.261 234.174 339.732 234.38 339.289C234.403 339.308 234.406 339.24 234.397 339.222L234.716 339.089C234.79 339.057 234.86 339.016 234.924 338.966C235.051 338.879 235.157 338.765 235.235 338.633C235.393 338.357 235.269 338.021 234.395 337.658Z" fill="#202020"/>
<path d="M359.024 297.173L358.902 297.347C358.924 297.352 358.961 297.311 359.024 297.173Z" fill="#202020"/>
<path d="M339.365 345.626L339.355 345.677C339.365 345.643 339.367 345.632 339.365 345.626Z" fill="#202020"/>
<path d="M349.787 321.072L349.824 321.173L349.787 321.072Z" fill="#202020"/>
<path d="M361.102 287.589C360.1 289.757 359.255 291.993 358.571 294.281C357.475 296.822 356.989 297.414 355.996 300.104C355.464 301.364 354.965 302.736 354.486 303.985C354.412 304.639 353.829 305.61 353.684 306.362L353.481 306.595C353.437 306.868 353.342 307.131 353.2 307.368L353.179 307.342C353.105 307.728 352.898 308.114 352.861 308.306L352.84 308.28L352.677 308.719L352.667 308.63C352.488 309.267 352.255 309.886 351.969 310.483H352.099C351.481 311.644 351.541 312.183 350.941 313.215L350.921 313.189C350.656 314.694 349.83 315.294 349.534 316.834C349.571 316.647 349.444 316.886 349.422 316.86C349.189 317.529 348.921 318.237 349.137 318.338C348.94 318.815 348.91 318.699 348.8 318.727C348.897 318.763 348.768 319.195 348.623 319.572L348.655 319.385L348.255 320.47L348.523 320.334C348.24 320.88 348.24 320.386 348.065 320.949L348.219 321.003C347.862 321.645 347.466 322.265 347.033 322.858C345.685 325.989 344.695 329.539 343.233 332.364L343.067 332.446C342.881 332.435 342.984 333.358 342.784 333.406L342.721 333.779C342.654 333.863 342.535 334.053 342.57 333.869C342.485 334.051 342.433 334.247 342.418 334.448L342.177 334.745C341.591 335.96 341.36 337.101 340.787 338.396C339.81 340.427 338.993 342.53 338.342 344.687C337.938 345.979 337.364 347.212 336.634 348.352C335.912 349.519 335.106 350.557 334.367 351.536C334.288 351.595 334.23 351.679 334.203 351.774C333.671 352.282 333.065 352.706 332.406 353.032C332.406 353.032 332.259 353.113 332.01 353.219C331.678 353.367 331.336 353.491 330.987 353.592C330.117 353.851 329.202 353.921 328.302 353.797L328.116 353.765C327.874 353.655 327.612 353.537 327.308 353.409L327.364 353.381C326.567 353.09 325.723 352.946 324.875 352.956C324.806 352.695 324.003 352.753 323.769 352.624L323.797 352.611C323.108 352.66 322.493 352.186 321.827 352.222C321.851 352.195 321.883 352.175 321.919 352.166C321.954 352.157 321.991 352.159 322.026 352.171C321.562 352.108 320.927 352.033 320.922 351.888C319.822 351.622 318.7 351.46 317.57 351.405L317.626 351.375C317.196 351.442 317.105 351.293 316.645 351.278C316.624 351.254 316.595 351.239 316.6 351.232C316.05 351.191 315.504 351.109 314.966 350.988V350.893L314.096 350.736L314.414 350.822C314.252 351.051 313.793 350.531 313.133 350.566C312.553 350.415 311.83 350.846 311.253 350.6C310.938 350.658 311.547 350.46 311.095 350.462C311.106 350.328 311.314 350.421 311.223 350.294C310.784 350.268 310.551 350.016 310.007 349.998V349.892C309.283 349.938 308.741 349.493 308.248 349.578C307.522 349.519 307.834 349.178 307.056 349.228L306.797 349.041C306.488 348.954 306.539 349.165 306.202 349.027C306.241 348.943 305.773 348.866 305.995 348.825C305.106 348.678 304.225 348.486 303.355 348.249C303.094 348.372 302.59 348.164 302.394 348.249C302.381 348.169 301.346 348.024 301.968 347.983C302.02 347.983 302.109 348.001 302.098 348.028L302.187 347.942C301.629 347.632 301.087 347.826 300.511 347.677C300.679 347.746 300.914 347.785 300.744 347.822L300.201 347.698L300.331 347.636L299.527 347.42L299.618 347.549C299.231 347.412 299.126 347.205 298.648 347.263C298.426 347.304 298.996 347.481 298.568 347.427C298.05 347.241 297.264 346.978 296.6 346.808C296.641 346.939 296.458 346.898 296.264 346.883V346.777C295.52 346.777 296.045 346.497 295.306 346.464L295.151 346.581C294.464 346.652 294.846 346.298 294.071 346.428C294.358 346.469 294.159 346.682 293.82 346.564L293.928 346.484C293.795 346.489 293.663 346.477 293.533 346.447C293.658 346.417 293.622 346.316 293.334 346.275L293.55 346.19L292.976 346.262C292.582 346.076 291.898 346.076 291.755 345.89C291.395 345.773 291.016 345.725 290.638 345.75C290.837 345.692 290.351 345.563 290.515 345.472C290.107 345.533 289.689 345.478 289.31 345.312H289.364C288.378 344.987 287.603 345.125 286.724 344.792C286.741 344.918 286.275 344.756 286.363 344.931C285.393 344.89 284.713 344.275 284.28 344.674C283.848 344.613 283.795 344.462 283.579 344.393H283.688C282.879 344.268 282.647 344.225 282.053 344.093C281.747 344.078 281.656 344.279 281.137 344.124C281.323 344.074 281.105 344.046 280.906 344.005C281.036 344.016 281.081 343.994 280.833 343.882C280.782 343.9 280.728 343.909 280.673 343.908C280.673 343.908 280.664 343.895 280.673 343.886C280.334 343.848 280.386 343.886 280.539 343.93C280.528 343.943 280.539 343.962 280.58 343.996C280.26 343.809 279.619 343.809 279.608 343.651C278.603 343.481 277.858 343.491 277.014 343.379C276.938 343.282 277.145 343.254 277.387 343.274L276.793 343.181C276.819 343.073 277.143 343.181 277.329 343.202C276.664 342.881 275.84 343.084 275.058 342.754L274.871 342.806L274.825 342.782C274.825 342.829 274.62 342.853 274.495 342.844C274.398 342.724 274.549 342.624 274.14 342.547C273.699 342.42 273.242 342.361 272.784 342.372C273.008 342.435 272.924 342.473 272.82 342.488C272.615 342.449 272.516 342.329 272.35 342.339V342.204C272.406 342.342 271.792 342.229 271.706 342.266C271.609 342.147 272.037 342.247 272.105 342.186L270.876 341.955C270.419 341.955 270.93 342.092 270.699 342.163C270.288 342.147 269.881 342.078 269.488 341.957L269.606 342.1C269.042 342.083 268.487 341.956 267.971 341.727C267.481 341.714 267.07 341.71 266.72 341.716C266.638 342.059 266.554 342.4 266.472 342.743L266.578 342.775C268.47 343.274 270.401 343.609 272.35 343.774C274.557 344.285 275.1 344.626 277.417 345.004C278.51 345.246 279.69 345.433 280.768 345.625C281.312 345.556 282.176 345.91 282.807 345.886L283.021 346.033C283.248 346.015 283.475 346.051 283.685 346.137L283.667 346.162C283.993 346.15 284.334 346.266 284.494 346.26L284.475 346.287L284.847 346.352L284.775 346.38C285.316 346.413 285.851 346.505 286.372 346.654L286.356 346.527C287.378 346.874 287.812 346.713 288.726 347.056L288.707 347.083C289.968 347.012 290.556 347.683 291.85 347.642C291.69 347.642 291.904 347.716 291.885 347.742C292.461 347.824 293.071 347.929 293.127 347.698C293.541 347.785 293.449 347.839 293.485 347.942C293.503 347.837 293.872 347.869 294.196 347.929L294.04 347.938L294.971 348.091L294.827 347.862C295.308 348.016 294.904 348.123 295.386 348.171L295.412 348.009C295.982 348.216 296.535 348.466 297.069 348.754C299.787 349.381 302.807 349.571 305.295 350.371L305.382 350.514C305.395 350.701 306.136 350.397 306.2 350.579L306.512 350.559C306.589 350.607 306.758 350.678 306.602 350.687C306.763 350.731 306.931 350.738 307.095 350.708L307.365 350.878C308.428 351.183 309.389 351.159 310.516 351.437C312.291 351.941 314.11 352.277 315.949 352.44C318.082 352.6 320.358 353.795 322.549 353.931C322.632 353.961 322.723 353.961 322.806 353.931L324.75 354.352C326.141 354.651 327.549 354.87 328.965 355.008C329.349 355.111 329.743 355.174 330.14 355.195L330.079 355.239C330.703 355.234 331.322 355.126 331.911 354.917C332.39 354.75 332.836 354.497 333.225 354.171C333.484 354.313 334.249 353.59 334.54 353.426L334.527 353.461C335.098 352.781 335.962 352.343 336.346 351.575C336.355 351.619 336.352 351.664 336.338 351.707C336.325 351.75 336.3 351.788 336.268 351.819C336.629 351.327 337.035 350.617 337.173 350.652C337.957 349.457 338.549 348.147 338.926 346.767L338.939 346.838C339.029 346.443 339.154 346.057 339.312 345.684C339.34 345.662 339.364 345.63 339.369 345.638C339.557 344.991 339.783 344.356 340.047 343.737H340.146L340.531 342.73L340.36 343.103C340.174 342.877 340.816 342.409 340.956 341.612C341.261 340.946 341.021 340.037 341.423 339.375C341.449 338.993 341.485 339.748 341.609 339.207C341.74 339.241 341.593 339.474 341.743 339.393C341.885 338.877 342.198 338.637 342.362 337.995L342.468 338.009C342.615 337.146 343.203 336.564 343.25 335.969C343.501 335.119 343.758 335.537 343.914 334.609L344.181 334.331C344.348 333.975 344.127 334.005 344.354 333.626C344.426 333.684 344.626 333.143 344.609 333.41C345.108 332.549 345.179 331.481 345.886 330.364C345.832 330.038 346.173 329.471 346.132 329.227C346.216 329.227 346.636 328.016 346.504 328.759C346.493 328.823 346.448 328.925 346.424 328.907L346.486 329.026C346.944 328.413 346.895 327.738 347.199 327.071C347.085 327.257 346.985 327.531 346.992 327.324L347.262 326.698L347.288 326.862L347.716 325.941L347.566 326.03C347.804 325.591 348.037 325.497 348.108 324.912C348.124 324.646 347.797 325.285 347.964 324.795C348.281 324.207 348.757 323.326 349.105 322.558C348.964 322.586 349.055 322.371 349.12 322.15L349.226 322.165C349.431 321.275 349.564 321.945 349.785 321.074L349.711 320.875C349.822 320.049 350.074 320.552 350.15 319.616C350.033 319.952 349.874 319.685 350.079 319.298L350.131 319.439C350.161 319.28 350.209 319.124 350.273 318.975C350.273 319.13 350.381 319.102 350.498 318.766L350.524 319.035L350.606 318.343C350.9 317.905 351.083 317.094 351.295 316.951C351.507 316.541 351.654 316.101 351.731 315.646C351.731 315.89 352.001 315.335 352.04 315.54C352.09 315.042 352.254 314.562 352.52 314.138L352.509 314.202C353.094 313.083 353.168 312.151 353.728 311.148C353.596 311.148 353.883 310.623 353.684 310.701C353.984 309.558 354.779 308.837 354.496 308.278C354.61 307.993 354.768 307.727 354.963 307.489L354.939 307.616C355.278 306.684 355.382 306.408 355.67 305.724C355.767 305.364 355.583 305.226 355.883 304.634C355.883 304.865 355.97 304.608 356.069 304.378C356.023 304.529 356.033 304.587 356.212 304.307C356.207 304.245 356.212 304.182 356.227 304.121C356.227 304.121 356.244 304.11 356.25 304.121C356.376 303.726 356.324 303.782 356.24 303.955C356.24 303.94 356.21 303.955 356.164 303.996C356.432 303.64 356.609 302.878 356.769 302.893C357.205 301.726 357.395 300.842 357.73 299.86C357.845 299.782 357.817 300.033 357.73 300.322L357.979 299.631C358.082 299.679 357.881 300.046 357.815 300.264C358.313 299.519 358.327 298.525 358.867 297.638V297.407L358.903 297.357C358.858 297.342 358.886 297.105 358.929 296.958C359.074 296.861 359.134 297.053 359.32 296.585C359.563 296.082 359.743 295.55 359.854 295.002C359.733 295.26 359.716 295.153 359.731 295.028C359.822 294.792 359.968 294.693 360.003 294.495L360.135 294.523C359.983 294.568 360.26 293.858 360.245 293.75C360.39 293.653 360.175 294.147 360.219 294.233L360.778 292.812C360.889 292.27 360.625 292.855 360.616 292.572C360.741 292.086 360.918 291.616 361.143 291.168L360.97 291.285C361.138 290.62 361.411 289.985 361.777 289.405C363.42 282.812 361.102 287.589 361.102 287.589Z" fill="#202020"/>
<path d="M274.652 342.708L274.809 342.789C274.811 342.775 274.773 342.739 274.652 342.708Z" fill="#202020"/>
<path d="M295.284 346.469L295.362 346.411L295.284 346.469Z" fill="#202020"/>
<path d="M319.056 221.242C318.98 221.305 318.898 221.365 318.825 221.428C318.844 221.437 318.909 221.393 319.056 221.242Z" fill="#202020"/>
<path d="M308.627 298.039V298.113C308.632 298.089 308.632 298.063 308.627 298.039Z" fill="#202020"/>
<path d="M311.887 258.192L311.947 258.317L311.887 258.192Z" fill="#202020"/>
<path d="M307.761 318.041L307.796 318.132C307.984 316.598 308.019 315.048 307.902 313.506C308.153 313.299 307.993 311.869 308.088 311.405L308.107 311.45C307.973 310.227 308.367 308.952 308.25 307.774C308.319 307.874 308.347 307.997 308.326 308.117C308.269 307.42 308.318 306.718 308.472 306.035C308.605 303.971 308.635 301.901 308.559 299.833L308.595 299.925C308.551 299.326 308.547 298.724 308.584 298.124C308.604 298.079 308.615 298.022 308.623 298.031C308.515 297.213 308.716 295.664 308.684 295.006L308.781 294.967L308.844 293.352L308.792 293.954C308.548 293.731 309.019 292.741 308.915 291.561C309.006 290.469 308.501 289.309 308.695 288.18C308.608 287.621 308.863 288.668 308.818 287.852C308.954 287.833 308.879 288.236 309.004 288.038C308.987 287.238 309.216 286.733 309.19 285.753L309.297 285.719C309.181 284.426 309.578 283.311 309.455 282.448C309.455 281.121 309.827 281.581 309.708 280.194L309.883 279.669C309.945 279.082 309.74 279.236 309.849 278.588C309.935 278.634 309.976 277.769 310.036 278.157C310.282 276.692 310.058 275.148 310.434 273.223C310.289 272.787 310.473 271.818 310.369 271.493C310.449 271.447 310.54 269.536 310.613 270.645C310.613 270.742 310.604 270.908 310.576 270.893L310.667 271.033C310.806 270.001 310.865 268.96 310.842 267.92C310.782 268.242 310.756 268.666 310.71 268.38L310.805 267.363L310.874 267.583L311.06 266.071L310.933 266.27C311.121 265.679 311.206 265.06 311.185 264.44C311.134 264.054 310.978 265.129 311.015 264.345C311.181 263.359 311.412 261.884 311.574 260.617C311.441 260.723 311.481 260.384 311.492 260.031L311.6 260.002C311.59 258.645 311.877 259.532 311.896 258.19L311.775 257.942C311.689 256.719 312.054 257.316 311.909 255.951C311.875 256.482 311.65 256.177 311.769 255.532L311.851 255.707C311.846 255.465 311.859 255.224 311.888 254.984C311.92 255.204 312.022 255.114 312.063 254.583L312.149 254.956L312.076 253.938C312.263 253.181 312.263 251.944 312.449 251.643C312.566 250.967 312.617 250.28 312.601 249.593C312.655 249.938 312.804 249.034 312.884 249.302C312.833 248.561 312.895 247.816 313.071 247.093V247.19C313.413 245.326 313.313 243.966 313.689 242.307C313.558 242.368 313.745 241.49 313.562 241.688C313.642 239.928 314.307 238.566 313.935 237.872C314.002 237.421 314.115 236.977 314.272 236.549V236.735C314.458 235.244 314.514 234.823 314.691 233.727C314.624 233.18 314.642 232.627 314.744 232.086C314.78 232.416 314.828 232.016 314.895 231.652C314.866 231.887 314.884 231.963 315.031 231.499C315.022 231.407 315.022 231.314 315.031 231.221C315.031 231.221 315.048 231.201 315.055 231.212C315.137 230.603 315.094 230.703 315.027 230.981C315.016 230.964 314.994 230.981 314.955 231.067C315.182 230.461 315.309 229.326 315.48 229.287C315.753 227.755 316.15 226.249 316.666 224.781C316.807 224.656 316.724 225.007 316.586 225.423C316.713 225.089 316.847 224.759 316.983 224.429C317.076 224.483 316.796 225.018 316.686 225.328C317.191 224.068 317.854 222.878 318.658 221.786L318.774 221.49L318.839 221.43C318.792 221.398 318.969 221.113 319.103 220.936C319.321 220.854 319.245 221.081 319.751 220.563C320.207 220.213 320.921 219.465 321.537 219.022C321.192 219.232 321.269 219.115 321.397 218.988C321.699 218.781 321.944 218.789 322.166 218.615L322.257 218.716C322.071 218.653 323.052 218.192 323.16 218.093C323.386 218.093 322.674 218.399 322.624 218.502C322.948 218.339 323.282 218.2 323.626 218.086C323.965 217.957 324.312 217.85 324.665 217.765C325.396 217.476 324.499 217.68 324.834 217.474C325.171 217.378 325.51 217.309 325.862 217.227C326.236 217.162 326.615 217.137 326.994 217.15C326.909 217.111 326.822 217.076 326.733 217.046C327.737 216.893 328.763 216.97 329.733 217.271C331.271 217.438 332.774 217.84 334.19 218.464C334.86 218.712 334.877 218.582 334.648 218.278C334.236 217.847 333.765 217.476 333.25 217.176C333.015 217.026 332.77 216.893 332.516 216.779L332.198 216.626C331.305 216.216 330.356 215.937 329.383 215.799C328.52 215.675 327.645 215.65 326.776 215.724C325.861 215.815 324.958 215.999 324.08 216.272C323.006 216.598 321.978 217.058 321.019 217.642C320.188 218.112 319.413 218.675 318.709 219.32C318.151 219.82 317.636 220.367 317.171 220.955C316.106 222.306 315.293 223.838 314.769 225.477C314.066 227.504 313.561 229.594 313.261 231.719C313.261 232.703 312.84 234.34 312.819 235.479L312.656 235.896C312.656 236.311 312.604 236.724 312.501 237.125L312.477 237.095C312.465 237.682 312.322 238.323 312.317 238.614L312.292 238.586L312.203 239.285L312.179 239.16C312.118 240.152 312 241.139 311.823 242.117L311.955 242.057C311.553 243.988 311.702 244.734 311.33 246.475L311.304 246.447C311.35 248.711 310.641 249.94 310.695 252.274C310.695 251.983 310.62 252.389 310.592 252.363C310.509 253.425 310.406 254.559 310.637 254.6C310.548 255.371 310.492 255.22 310.39 255.31C310.494 255.31 310.462 255.992 310.412 256.594L310.399 256.313L310.261 258.043L310.492 257.724C310.343 258.633 310.227 257.933 310.188 258.814H310.352C310.196 260.076 309.864 260.794 309.635 262.011C309.088 267.105 309.066 272.621 308.444 277.352L308.306 277.553C308.12 277.631 308.479 278.882 308.306 279.044L308.351 279.603C308.31 279.758 308.254 280.083 308.231 279.805C308.2 280.103 308.205 280.404 308.248 280.701L308.101 281.244C307.878 283.255 307.991 284.983 307.824 287.104C307.486 290.468 307.34 293.848 307.384 297.228C307.455 301.127 306.541 305.616 306.679 309.616C306.658 309.771 306.669 309.929 306.71 310.08L306.524 313.722C306.524 313.722 305.739 331.404 307.761 318.041Z" fill="#202020"/>
<path d="M108.782 211.849L108.766 211.743C108.749 211.756 108.747 211.788 108.782 211.849Z" fill="white"/>
<path d="M107.561 207.799L107.589 207.81L107.561 207.799Z" fill="white"/>
<path d="M109.838 213.372L109.92 213.494C109.938 213.43 109.918 213.374 109.838 213.372Z" fill="white"/>
<path d="M92.2118 203.64C92.6121 203.513 92.5192 203.92 92.9232 203.674L93.0982 203.797C93.2844 203.797 93.2154 203.61 93.4221 203.67C93.4221 203.759 93.6791 203.731 93.5655 203.819C93.8004 203.859 94.0414 203.843 94.2694 203.774C94.5398 203.717 94.8211 203.742 95.0774 203.845C95.2133 203.677 95.5111 203.78 95.6154 203.659C95.6266 203.735 96.2149 203.726 95.8668 203.858C95.837 203.868 95.7848 203.858 95.7904 203.832L95.744 203.931C96.0606 204.158 96.364 203.873 96.6954 203.949C96.6023 203.895 96.4682 203.895 96.565 203.834L96.8723 203.895L96.7959 203.97L97.2466 204.093L97.2 203.977C97.416 204.071 97.4624 204.255 97.738 204.164C97.8665 204.108 97.5611 203.978 97.7975 203.996C98.1352 204.176 98.4822 204.337 98.8367 204.481C98.8367 204.354 98.9335 204.393 99.0415 204.404L99.0228 204.507C99.4511 204.507 99.0897 204.773 99.5031 204.792L99.4453 204.85L99.6203 204.678C100.041 204.602 99.723 204.949 100.203 204.844C100.049 204.796 100.222 204.6 100.389 204.723L100.302 204.796C100.412 204.82 100.464 204.796 100.522 204.844C100.44 204.868 100.432 204.965 100.587 205.014L100.436 205.087L100.792 205.038C100.963 205.224 101.35 205.297 101.372 205.465C101.372 205.465 101.788 205.759 101.966 205.685C101.83 205.713 102.05 205.894 101.925 205.95C102.044 205.943 102.161 205.966 102.269 206.016C102.376 206.066 102.469 206.142 102.54 206.237H102.508C102.936 206.624 103.411 206.667 103.756 207.077C103.812 206.964 103.99 207.184 104.029 207.021C104.549 207.251 104.588 207.886 105.057 207.651C105.258 207.801 105.201 207.935 105.279 208.041L105.217 208.019C105.474 208.204 105.713 208.411 105.932 208.639C106.085 208.729 106.262 208.593 106.442 208.854C106.308 208.844 106.409 208.923 106.491 209.007C106.428 208.964 106.388 208.969 106.452 209.12C106.487 209.119 106.522 209.126 106.554 209.141C106.554 209.141 106.554 209.156 106.541 209.159C106.699 209.277 106.696 209.234 106.642 209.159C106.655 209.159 106.662 209.135 106.66 209.098C106.724 209.318 107.051 209.506 106.953 209.627C107.36 210.043 107.764 210.252 108.105 210.61C108.077 210.701 107.952 210.652 107.843 210.561L108.077 210.815C107.988 210.882 107.904 210.699 107.822 210.628C107.926 211.064 108.5 211.176 108.632 211.678L108.762 211.707V211.741C108.801 211.711 108.915 211.765 108.969 211.816C108.928 211.927 108.783 211.939 108.923 212.131C108.958 212.334 109.258 212.55 109.431 212.733C109.375 212.612 109.444 212.619 109.504 212.649C109.569 212.749 109.522 212.859 109.608 212.915L109.501 212.994C109.524 212.966 109.556 212.969 109.591 212.994C109.777 212.336 109.963 211.689 110.166 211.027C109.867 210.405 109.476 209.832 109.008 209.325C108.564 208.784 108.08 208.276 107.561 207.806C107.217 207.7 106.945 207.176 106.558 207.036L106.519 206.863C106.382 206.823 106.265 206.731 106.193 206.608L106.219 206.591C106.033 206.513 105.888 206.343 105.787 206.311L105.813 206.293L105.627 206.153H105.685C105.387 206 105.114 205.803 104.877 205.567L104.824 205.679C104.366 205.193 104.042 205.238 103.631 204.788L103.653 204.768C103.325 204.709 103.026 204.542 102.803 204.294C102.559 204.057 102.246 203.905 101.909 203.86C102.013 203.871 101.909 203.784 101.922 203.761C101.594 203.614 101.224 203.493 101.125 203.705C100.89 203.599 100.961 203.552 100.967 203.454C100.927 203.551 100.704 203.5 100.516 203.426H100.617C100.434 203.356 100.248 203.297 100.058 203.25L100.097 203.472C99.8291 203.321 100.106 203.221 99.8122 203.172L99.7619 203.327C99.3747 203.163 99.2183 202.833 98.831 202.626C97.1352 202.334 95.4185 202.18 93.6978 202.168L93.6214 202.048C93.5805 201.862 93.1969 202.332 93.1262 202.168L92.9491 202.268C92.8951 202.24 92.7816 202.218 92.8709 202.168C92.7646 202.169 92.662 202.207 92.5805 202.276L92.3943 202.182C92.0688 202.178 91.7451 202.231 91.4375 202.337C91.1205 202.436 90.7977 202.515 90.4711 202.574C89.3369 202.678 88.2424 203.045 87.2741 203.646C86.6774 203.988 86.0401 204.252 85.377 204.434C85.036 204.54 84.7056 204.677 84.3901 204.844C84.0764 204.993 83.7935 205.2 83.556 205.454C83.5076 205.454 83.4461 205.569 83.4592 205.584C83.1142 205.801 82.7805 206.035 82.4593 206.285L82.2732 206.436C82.1116 206.56 81.9568 206.693 81.8095 206.833C81.4257 207.18 81.0816 207.568 80.7836 207.991C80.5266 208.378 80.4112 208.69 80.6086 208.772C80.8059 208.854 81.3198 208.684 82.3364 208.254V208.3C82.559 208.161 82.77 208.004 82.9675 207.83C83.1386 207.688 83.2788 207.513 83.3791 207.314C83.5802 207.467 83.7887 207.016 83.9619 207.005V207.029C84.1704 206.667 84.6787 206.708 84.8929 206.388C84.8929 206.41 84.9188 206.472 84.8499 206.516C85.0584 206.356 85.3415 206.125 85.429 206.237C85.6841 206.05 86.0229 205.89 86.3245 205.718C86.5889 205.58 86.8302 205.402 87.0395 205.189L87.0302 205.236C87.1792 205.005 87.2947 205.096 87.5014 204.921C87.5219 204.932 87.5423 204.934 87.5423 204.943C87.7155 204.695 88.2236 204.662 88.3912 204.527L88.4342 204.609C88.5906 204.548 88.7431 204.475 88.9033 204.423C88.84 204.436 88.7767 204.443 88.7171 204.46C88.6985 204.192 89.1304 204.503 89.4283 204.24C89.7578 204.166 89.9645 203.538 90.3592 203.58C90.5007 203.424 90.255 203.804 90.484 203.655C90.5213 203.785 90.3872 203.765 90.4747 203.854C90.7056 203.741 90.8994 203.884 91.1861 203.752L91.2159 203.853C91.5715 203.595 91.9735 203.849 92.2118 203.64Z" fill="white"/>
<path d="M109.98 213.712C110.051 213.771 110.082 213.777 110.101 213.762L109.915 213.493C109.909 213.517 109.899 213.539 109.887 213.559L109.98 213.712Z" fill="white"/>
<path d="M99.67 317.09L99.778 317.228C99.7892 317.21 99.7631 317.169 99.67 317.09Z" fill="white"/>
<path d="M104.126 322.259L104.083 322.244L104.126 322.259Z" fill="white"/>
<path d="M142.816 340.374C142.546 340.215 142.25 340.107 141.941 340.055C141.97 340.034 142.005 340.022 142.041 340.019C142.077 340.016 142.113 340.023 142.146 340.039C141.699 339.899 141.086 339.712 141.105 339.569C140.064 339.119 138.985 338.762 137.882 338.501L137.941 338.484C137.507 338.465 137.446 338.298 136.996 338.193C136.981 338.167 136.955 338.147 136.962 338.141C136.429 337.992 135.908 337.806 135.402 337.582L135.417 337.487L134.592 337.162L134.89 337.31C134.681 337.496 134.331 336.905 133.685 336.79C133.152 336.516 132.358 336.778 131.838 336.408C131.516 336.394 132.156 336.337 131.713 336.24C131.754 336.111 131.937 336.24 131.877 336.104C131.451 335.982 131.28 335.686 130.76 335.544L130.782 335.44C130.066 335.319 129.643 334.749 129.144 334.713C128.453 334.478 128.838 334.225 128.07 334.083L127.867 333.831C127.585 333.671 127.582 333.887 127.289 333.671C127.347 333.6 126.917 333.414 127.139 333.429C126.316 333.055 125.514 332.637 124.737 332.176C124.452 332.227 124.02 331.893 123.806 331.93C123.806 331.852 122.852 331.432 123.465 331.557C123.517 331.569 123.597 331.611 123.579 331.636L123.69 331.576C123.236 331.134 122.666 331.155 122.147 330.849C122.288 330.963 122.503 331.067 122.333 331.054L121.847 330.778L121.99 330.756L121.279 330.32L121.329 330.469C120.996 330.228 120.957 330.001 120.481 329.91C120.257 329.887 120.752 330.219 120.356 330.046C119.907 329.731 119.248 329.235 118.661 328.864C118.661 329 118.498 328.905 118.319 328.832L118.35 328.73C117.637 328.493 118.228 328.396 117.533 328.137L117.626 328.105L117.351 328.2C116.673 328.055 117.148 327.839 116.367 327.721C116.63 327.85 116.367 327.988 116.083 327.773L116.213 327.731C116.081 327.696 115.956 327.641 115.841 327.568C115.969 327.583 115.969 327.475 115.71 327.341H115.941L115.383 327.22C115.073 326.909 114.425 326.683 114.349 326.474C114.349 326.474 113.604 325.949 113.34 325.975C113.549 325.986 113.135 325.697 113.316 325.673C112.909 325.597 112.533 325.402 112.236 325.114L112.288 325.13C111.476 324.48 110.705 324.329 109.996 323.716C109.966 323.839 109.586 323.529 109.607 323.716C108.706 323.343 108.304 322.496 107.758 322.711C107.386 322.491 107.386 322.338 107.211 322.187L107.311 322.222C106.607 321.805 106.406 321.678 105.903 321.335C105.626 321.205 105.459 321.367 105.042 321.011C105.228 321.039 105.042 320.925 104.878 320.81C104.991 320.871 105.043 320.867 104.857 320.666C104.803 320.664 104.75 320.651 104.701 320.629C104.701 320.629 104.701 320.612 104.701 320.606C104.405 320.439 104.436 320.494 104.559 320.595C104.546 320.595 104.546 320.623 104.574 320.672C104.347 320.377 103.761 320.112 103.811 319.969C102.956 319.41 102.254 319.138 101.536 318.681C101.502 318.562 101.703 318.621 101.921 318.742L101.416 318.411C101.485 318.323 101.735 318.562 101.897 318.653C101.422 318.082 100.593 317.928 100.011 317.298L99.8246 317.266L99.7928 317.225C99.7667 317.264 99.5769 317.205 99.4671 317.143C99.428 316.994 99.6066 316.957 99.2659 316.726C98.9155 316.426 98.5267 316.176 98.1097 315.98C98.2866 316.135 98.1934 316.133 98.0929 316.099C97.9253 315.974 97.8881 315.823 97.7354 315.76L97.7988 315.643C97.7895 315.792 97.2848 315.419 97.1917 315.413C97.1564 315.264 97.4991 315.544 97.5847 315.516L96.5774 314.77C96.1622 314.584 96.5662 314.917 96.326 314.88C95.9616 314.686 95.624 314.445 95.3223 314.163L95.3653 314.349C94.8663 314.078 94.4267 313.71 94.0729 313.266C91.6171 311.913 91.1815 311.974 91.3621 312.388C91.6386 312.818 91.9696 313.21 92.347 313.555C93.0044 314.225 93.7304 314.824 94.5125 315.342C95.2573 315.829 96.0617 316.31 97.1192 317.065C98.437 318.231 99.8187 319.324 101.258 320.336C102.18 320.998 103.202 321.641 104.127 322.25C104.654 322.411 105.339 323.056 105.937 323.277L106.084 323.494C106.303 323.564 106.504 323.684 106.669 323.844L106.641 323.861C106.95 323.973 107.227 324.209 107.386 324.265L107.36 324.282L107.691 324.485H107.613C108.107 324.722 108.578 325.003 109.02 325.326L109.05 325.201C109.896 325.891 110.365 325.887 111.108 326.543L111.081 326.562C112.292 326.935 112.642 327.755 113.889 328.15C113.733 328.101 113.915 328.239 113.889 328.258C114.411 328.528 114.958 328.832 115.086 328.631C115.459 328.853 115.347 328.871 115.349 328.979C115.399 328.888 115.746 329.032 116.038 329.19L115.883 329.151L116.734 329.589L116.667 329.324C117.081 329.623 116.667 329.598 117.107 329.794L117.181 329.649C117.666 330.024 118.121 330.435 118.544 330.879C119.764 331.589 121.1 332.184 122.394 332.819C123.668 333.374 124.902 334.018 126.085 334.747L126.133 334.911C126.098 335.097 126.902 334.983 126.919 335.177L127.232 335.235C127.295 335.3 127.442 335.408 127.288 335.38C127.435 335.462 127.598 335.511 127.766 335.522L127.991 335.753C128.961 336.312 129.9 336.538 130.954 337.047C131.742 337.518 132.57 337.919 133.428 338.244C134.385 338.616 135.385 338.941 136.111 339.185C136.644 339.342 137.162 339.542 137.662 339.785C138.181 340.02 138.703 340.283 139.224 340.546C140.227 341.11 141.299 341.545 142.412 341.837C142.49 341.881 142.581 341.895 142.669 341.876L142.792 341.923L142.377 340.21L142.816 340.374Z" fill="white"/>
</g>
<defs>
<clipPath id="clip0_118_5711">
<rect width="404.324" height="466" fill="white" transform="translate(0.838257)"/>
</clipPath>
</defs>
</svg>
