<svg width="393" height="440" viewBox="0 0 393 440" fill="none" xmlns="http://www.w3.org/2000/svg">
<g clip-path="url(#clip0_1339_61333)">
<path d="M356.845 353.632C341.108 327.01 323.611 301.326 310.494 273.319C295.571 241.418 286.58 207.066 283.961 171.943C281.932 144.575 298.948 121.336 303.928 94.3484C305.817 85.5847 306.018 76.5411 304.521 67.702C300.952 49.9964 287.292 35.494 271.168 27.3628C255.043 19.2316 236.657 16.7324 218.608 16.1798C209.347 15.8964 199.973 16.083 190.959 13.9428C174.528 10.0427 159.486 -1.47305 142.68 0.153193C138.557 0.477021 134.564 1.74128 131.005 3.84883C127.447 5.95637 124.419 8.85122 122.153 12.3113C117.874 19.3619 117.978 29.1299 123.242 35.4782C128.507 41.8265 139.06 44.4911 145.528 39.3783C133.418 60.3223 130.22 85.0292 124.717 108.589C122.917 116.276 120.724 124.154 115.743 130.282C111.432 135.594 105.331 139.206 100.928 144.44C98.1852 147.701 96.3535 153.064 99.5752 155.862C100.496 156.583 101.559 157.1 102.695 157.379C108.373 159.083 113.78 158.293 119.449 156.552C114.729 167.697 111.55 179.433 110 191.437C108.512 203.354 110.628 216.244 118.349 225.442C123.804 231.954 131.545 236.074 139.264 239.617C146.376 242.826 153.962 244.854 161.726 245.62C162.835 262.844 163.176 281.046 154.95 296.217C142.069 319.977 113.111 329.481 93.8146 348.403C82.0012 359.983 74.0553 374.885 67.0859 389.891C62.2109 400.387 57.7235 411.05 53.6239 421.883C55.3535 401.037 49.2726 379.933 56.659 360.365C62.0396 346.109 74.1257 334.423 76.1526 319.322C77.108 312.208 75.7444 304.675 78.4206 298.016C79.7491 294.716 81.9924 291.856 83.5232 288.649C85.054 285.442 85.7842 281.486 84.0071 278.402C83.3683 277.327 82.4695 276.43 81.3933 275.794C80.3172 275.157 79.0982 274.802 77.8488 274.761C77.6236 274.761 77.3983 274.771 77.1731 274.785L35.3127 342.288C34.5741 343.495 33.6034 344.542 32.457 345.37L22.9117 352.106L21.5041 353.102L15.3687 357.431C15.0273 357.673 14.7071 357.474 14.7704 357.06L15.9564 349.423L16.2731 347.384L16.2942 347.241V347.229L17.9762 336.384C18.2086 334.989 18.7158 333.654 19.4683 332.457L20.934 330.093C22.689 330.393 24.4939 330.142 26.1006 329.375C27.7074 328.608 29.0372 327.361 29.9075 325.808C31.3321 322.72 31.832 319.286 31.3467 315.92C31.301 315.144 31.2359 314.368 31.1708 313.593L31.4048 313.213C32.0771 314.5 33.0776 315.587 34.3049 316.363C35.5323 317.138 36.9428 317.576 38.3936 317.631C39.9156 317.459 41.3586 316.862 42.557 315.908C43.7555 314.954 44.6609 313.682 45.1695 312.236C46.143 309.33 46.4668 306.244 46.1178 303.199C45.8997 299.269 45.4686 295.356 44.8862 291.461L45.0252 291.24C45.3525 291.421 45.7012 291.561 46.0633 291.655C47.2467 291.874 48.465 291.814 49.621 291.479C51.2396 291.2 52.7651 290.528 54.0637 289.522C56.5746 287.334 56.6819 283.626 56.4461 280.37C56.3019 278.408 56.0995 276.45 55.8391 274.497C55.8145 274.305 55.7828 274.117 55.7564 273.925C55.5312 272.291 55.2725 270.663 54.9664 269.042C54.6669 266.158 53.5015 263.432 51.6233 261.223C46.3149 255.971 39.803 262.02 38.7455 267.383C38.505 269.244 38.6245 271.135 39.0974 272.951L39.2962 273.979C38.0523 273.498 36.7136 273.312 35.3856 273.436C34.0576 273.561 32.7767 273.993 31.6441 274.697C26.3656 277.853 25.4612 283.284 26.0137 289.05C25.4936 288.565 24.8997 288.165 24.2542 287.866C22.6148 287.244 20.8287 287.118 19.1184 287.504C17.408 287.89 15.8488 288.77 14.635 290.036C12.4759 292.48 11.3472 295.666 11.4854 298.926C11.5945 301.057 11.7863 303.183 12.0133 305.306C9.7742 304.601 7.38053 304.552 5.11425 305.163C4.16728 305.516 3.33705 306.125 2.71609 306.923C0.931197 309.032 -0.0317722 311.714 0.00465922 314.477V439.993H392.999C387.453 409.575 372.584 380.252 356.845 353.632ZM283.122 85.4235C282.568 92.3341 280.33 99.0036 276.602 104.848C272.875 110.693 267.772 115.535 261.74 118.95C250.567 125.131 237.167 125.852 224.449 124.71C216.781 123.973 209.167 122.756 201.651 121.067C192.035 119.249 182.722 116.085 173.988 111.667C169.339 109.074 165.251 105.581 161.963 101.393C158.676 97.2051 156.253 92.4047 154.838 87.2715C152.315 77.25 155.765 65.3718 160.757 56.3237C165.924 46.9534 175.537 40.6597 185.742 37.4037C195.959 34.1865 206.689 32.9172 217.374 33.6618C229.406 34.4589 241.237 37.1453 252.434 41.6223C257.483 43.524 262.259 46.0853 266.637 49.2396C272.132 53.4641 276.508 58.9713 279.382 65.2793C282.256 71.5873 283.541 78.5038 283.123 85.4235H283.122Z" fill="#75787B"/>
<path d="M97.7206 235.361L97.7294 235.386L97.7153 235.359C97.6255 235.02 97.1241 235.007 96.9763 234.677L96.8003 234.74C96.7475 234.627 96.6701 234.525 96.5434 234.538L96.5294 234.576C96.452 234.4 96.2725 234.376 96.2356 234.291L96.2197 234.33L96.0701 234.221V234.286C95.9108 234.073 95.6896 233.914 95.4367 233.832L95.5405 233.696C95.0021 233.598 95.0127 233.2 94.506 233.158L94.4901 233.196C94.2139 232.512 93.54 232.987 93.2356 232.316C93.2743 232.401 93.1634 232.376 93.1476 232.415C92.9329 232.239 92.6919 232.063 92.8573 231.769C92.6813 231.671 92.662 231.769 92.574 231.871C92.6496 231.746 92.5283 231.605 92.3981 231.519L92.4315 231.604L92.0672 231.331L92.2837 231.139C92.0356 231.084 92.0602 231.398 91.8948 231.222L92.0145 231.028C91.7048 230.896 91.3617 231.095 90.9992 231.076C89.7993 230.479 88.8597 229.245 87.584 228.964L87.4485 229.083C87.3007 229.288 87.343 228.591 87.1846 228.765L87.1178 228.589C87.0597 228.606 86.9612 228.603 86.9946 228.689C86.8749 228.629 86.8925 228.592 86.8485 228.478L86.6462 228.538C86.1307 228.374 85.8967 227.887 85.3882 227.658C85.1175 227.616 84.8589 227.517 84.6298 227.367L83.7501 228.798C83.7694 228.788 83.787 228.781 83.7905 228.772C83.8697 229.06 84.3184 229.124 84.4204 229.284L84.4961 229.178L84.848 229.421L84.6949 229.365C84.5612 229.701 85.0891 229.337 85.2386 229.694C85.5131 229.803 85.3706 230.634 85.7207 230.636C85.7594 230.854 85.7489 230.338 85.8685 230.558C85.9706 230.402 85.8421 230.407 85.9653 230.307C86.1025 230.483 86.3612 230.317 86.5213 230.558L86.604 230.439C86.7641 230.842 87.255 230.6 87.3219 230.933C87.5647 231.215 87.7442 230.681 87.9148 231.109L88.1383 231.012C88.2878 231.063 88.1119 231.276 88.3142 231.282C88.3688 231.171 88.5535 231.308 88.5254 231.155C88.9617 231.188 89.0743 231.797 89.6849 231.778C89.6602 232.042 89.9576 232.051 89.9383 232.25C90.0034 232.165 90.3957 232.5 90.2602 232.155C90.2479 232.126 90.2075 232.107 90.1899 232.144L90.2321 232.003C90.6227 231.92 90.6174 232.403 90.8901 232.515C90.7916 232.515 90.7001 232.441 90.7142 232.566L90.957 232.686L90.9693 232.554L91.3546 232.698L91.2298 232.799C91.4391 232.834 91.6274 232.651 91.7136 232.947C91.74 233.098 91.4497 233.024 91.6063 233.17C91.9515 233.216 92.2907 233.299 92.618 233.418C92.5054 233.547 92.5863 233.594 92.6496 233.665L92.7323 233.545C92.9382 233.897 93.0086 233.336 93.2321 233.654L93.2567 233.552L93.2321 233.654L93.1846 233.862C93.3148 234.272 93.4854 233.686 93.5927 234.214C93.4854 234.12 93.3728 234.457 93.5558 234.49L93.5892 234.347C93.6561 234.421 93.6543 234.488 93.723 234.495C93.7124 234.4 93.8021 234.304 93.9112 234.397V234.196L94.0098 234.548C94.2631 234.522 94.4496 234.851 94.622 234.724C94.622 234.724 95.0531 234.865 95.0302 235.103C95.0302 234.942 95.259 235.022 95.2801 234.851C95.3013 235.039 95.5299 235.319 95.7288 235.249L95.7165 235.219C96.232 235.331 96.3411 235.851 96.8302 235.905C96.7264 236.041 96.9781 236.081 96.8179 236.238C97.1118 236.658 97.7733 236.291 97.5798 236.951C97.7452 237.09 97.8754 236.951 97.988 236.97L97.9616 236.914C98.1668 237.09 98.3925 237.24 98.6337 237.362C98.7287 237.494 98.5915 237.772 98.8572 237.841C98.8449 237.691 98.9258 237.767 99.012 237.816C98.968 237.767 98.9733 237.72 99.1264 237.714C99.1241 237.751 99.132 237.788 99.1493 237.82C99.1493 237.82 99.1633 237.809 99.1669 237.797C99.2865 237.917 99.2425 237.936 99.1669 237.912C99.1537 237.936 99.1317 237.955 99.1053 237.964C99.3323 237.915 99.51 238.216 99.6332 238.044C99.7035 238.098 99.7705 238.157 99.8337 238.219L98.5757 240.249C98.3065 240.073 98.0478 239.879 97.7892 239.705L97.798 239.73L97.7856 239.703C97.6924 239.362 97.1856 239.351 97.0326 239.015L96.8567 239.077C96.8039 238.964 96.7247 238.862 96.5962 238.874L96.5822 238.913C96.503 238.737 96.3217 238.711 96.283 238.624L96.2672 238.663L96.1159 238.554V238.619C95.9527 238.405 95.7281 238.245 95.4719 238.161L95.5757 238.024C95.0303 237.924 95.0479 237.524 94.52 237.48L94.5042 237.519C94.2191 236.831 93.5417 237.304 93.2285 236.628C93.2672 236.713 93.1564 236.687 93.1406 236.725C92.9224 236.54 92.676 236.373 92.8414 236.076C92.6655 235.975 92.6444 236.076 92.5546 236.178C92.6303 236.053 92.5071 235.91 92.3787 235.826L92.4139 235.912L92.0426 235.636L92.2608 235.446C92.011 235.389 92.0373 235.703 91.8702 235.527L91.9881 235.331C91.6749 235.199 91.3283 235.396 90.9623 235.377C89.743 234.772 88.7823 233.531 87.4908 233.237L87.357 233.357C87.2092 233.559 87.2444 232.86 87.0861 233.035L87.0175 232.859C86.9594 232.876 86.8591 232.873 86.8943 232.959C86.7729 232.899 86.7905 232.862 86.7447 232.746L86.5389 232.807C86.011 232.631 85.777 232.149 85.2597 231.915C84.3926 231.63 83.6182 231.116 83.0181 230.428C82.9603 230.363 82.8961 230.304 82.8263 230.252L55.7299 273.937C55.7563 274.129 55.788 274.317 55.8126 274.509C56.073 276.461 56.2753 278.419 56.4196 280.382C56.6554 283.635 56.5481 287.343 54.0373 289.534C52.7386 290.54 51.2131 291.212 49.5945 291.491C48.4385 291.826 47.2202 291.887 46.0368 291.667C45.6748 291.573 45.326 291.433 44.9987 291.252L44.8597 291.474C45.4333 295.368 45.8643 299.281 46.0913 303.211C46.4402 306.257 46.1165 309.342 45.1429 312.249C44.6344 313.694 43.729 314.966 42.5306 315.921C41.3321 316.875 39.8892 317.472 38.3671 317.643C36.9163 317.588 35.5058 317.151 34.2785 316.375C33.0512 315.599 32.0506 314.513 31.3783 313.225L31.1443 313.606C31.2059 314.38 31.271 315.156 31.3203 315.932C31.8055 319.298 31.3056 322.732 29.881 325.82C29.0107 327.374 27.6809 328.62 26.0741 329.387C24.4674 330.155 22.6626 330.406 20.9075 330.106L19.4418 332.469C18.6892 333.666 18.1821 335.001 17.9498 336.396L16.2677 347.241L16.3293 347.303L16.2607 347.276V347.253L16.2395 347.396C16.331 347.396 16.5193 347.313 16.521 347.496C16.6794 347.563 16.3363 348.292 16.5791 348.26C16.5439 348.436 16.6882 348 16.7076 348.177C16.8237 348.031 16.7322 348.049 16.8483 347.95C16.8905 348.095 17.1228 347.922 17.165 348.112L17.2583 348.001C17.2583 348.33 17.6665 348.075 17.6102 348.353C17.6964 348.572 17.9814 348.095 17.9726 348.447L18.1574 348.341C18.2489 348.371 18.0624 348.572 18.1996 348.557C18.27 348.455 18.3598 348.557 18.3844 348.427C18.6817 348.411 18.5797 348.923 19.0143 348.844C18.9193 349.075 19.1234 349.054 19.0512 349.226C19.1216 349.147 19.2993 349.402 19.3063 349.112C19.3063 349.089 19.2835 349.075 19.2588 349.112L19.331 348.987C19.6301 348.878 19.4841 349.293 19.6424 349.362C19.5738 349.362 19.5298 349.32 19.5052 349.423L19.6389 349.503L19.6864 349.388L19.9134 349.474L19.7972 349.573C19.9345 349.582 20.121 349.397 20.0928 349.65C20.0664 349.779 19.8852 349.744 19.9521 349.853C20.1685 349.856 20.383 349.894 20.5873 349.965C20.4711 350.089 20.5169 350.115 20.538 350.175L20.6312 350.062C20.6717 350.349 20.8864 349.856 20.9497 350.108L20.9972 350.016L20.9497 350.108L20.8547 350.284C20.8248 350.625 21.1169 350.108 21.0395 350.543C20.9902 350.474 20.8142 350.773 20.9304 350.784L20.9972 350.657C21.0219 350.715 20.9972 350.772 21.0482 350.772C21.0676 350.691 21.1591 350.596 21.2084 350.668L21.2717 350.492L21.2366 350.789C21.4125 350.743 21.4547 351.006 21.6131 350.879C21.6131 350.879 21.8735 350.958 21.789 351.164C21.8295 351.027 21.965 351.073 22.0371 350.923C21.9966 351.083 22.0741 351.301 22.2359 351.219V351.196C22.565 351.24 22.4875 351.676 22.8148 351.674C22.7039 351.801 22.8676 351.812 22.7092 351.961C22.7183 352.002 22.7405 352.039 22.7722 352.066C22.8039 352.093 22.8436 352.108 22.8852 352.111L32.4305 345.375C33.5769 344.547 34.5476 343.5 35.2862 342.294L77.1467 274.791L100.583 236.998C100.032 236.859 99.5135 236.611 99.0595 236.268C98.5959 235.992 98.1488 235.689 97.7206 235.361V235.361ZM79.9671 243.633C80.0147 244.267 79.4674 244.26 79.0451 244.735C78.8393 245.249 79.0451 245.534 78.6422 245.967C78.5061 246.208 78.342 246.433 78.1531 246.636V246.636C77.8768 246.62 77.9771 246.935 77.722 246.958L77.8135 247.079C77.7273 247.088 77.6551 247.115 77.6938 247.197L77.7308 247.215C77.6006 247.229 77.6129 247.335 77.5549 247.34L77.5918 247.359L77.5284 247.43L77.5865 247.445C77.5183 247.465 77.4574 247.504 77.4119 247.558C77.3664 247.613 77.3383 247.679 77.3314 247.75L77.1889 247.655C77.2223 247.973 76.8704 247.878 76.9478 248.193L76.9848 248.213C76.4569 248.243 77.0129 248.769 76.4921 248.818C76.5572 248.818 76.559 248.876 76.5959 248.894C76.4833 248.991 76.3865 249.107 76.098 248.941C76.0505 249.033 76.1455 249.066 76.2511 249.142C76.2102 249.111 76.1587 249.098 76.1079 249.104C76.0571 249.111 76.0111 249.138 75.9801 249.179H76.047L75.8886 249.355L75.6739 249.179C75.6739 249.323 75.9484 249.374 75.8323 249.441L75.6352 249.325C75.5895 249.492 75.8393 249.753 75.9027 249.978C75.6458 250.61 74.7783 250.943 74.8083 251.687L74.9437 251.798C75.1531 251.933 74.5355 251.761 74.7238 251.898H74.5883C74.6165 251.939 74.6358 252 74.7027 251.997C74.6781 252.06 74.6411 252.041 74.5514 252.044L74.6499 252.185C74.62 252.477 74.2452 252.521 74.1572 252.794C74.2611 253.245 73.6892 253.646 73.3584 253.875C72.7778 254.13 73.3373 255.149 72.7021 255.387C72.725 255.42 72.6335 255.416 72.6089 255.402L72.3977 255.835C72.3977 255.835 71.3033 257.9 70.4059 255.323L70.3532 255.306C70.3708 255.012 70.4288 254.853 70.7579 254.836C70.4816 254.64 70.837 254.63 70.7737 254.522L70.7473 254.514C71.0517 254.505 70.7279 254.119 71.0059 254.102C70.9813 254.102 70.8986 254.051 70.8757 254.079C70.9707 254.003 71.1115 253.903 70.9479 253.801C71.1238 253.595 71.2382 253.224 71.5954 253.232L71.5426 253.215C71.7748 253.236 71.6341 253.121 71.7819 253.079C71.7625 253.062 71.7555 253.047 71.745 253.044C71.9807 253.056 71.9314 252.791 72.0529 252.761L71.942 252.69L72.0757 252.514L72.0599 252.597C72.3836 252.754 71.9473 252.343 72.2253 252.328C72.2605 252.18 73.0153 252.447 72.9396 252.229C73.1156 252.252 72.6739 252.146 72.8393 252.12C72.6792 252.023 72.7127 252.104 72.5983 252.006C72.7267 251.958 72.5209 251.759 72.6951 251.712L72.5719 251.634C72.8869 251.62 72.5719 251.261 72.8429 251.282C73.0347 251.192 72.5297 250.964 72.8675 250.95L72.7338 250.789C72.7443 250.707 72.9695 250.863 72.9308 250.74C72.8217 250.682 72.9009 250.596 72.7743 250.582C72.7056 250.314 73.2106 250.378 73.0576 249.99C73.2933 250.063 73.2335 249.88 73.4094 249.934C73.3214 249.874 73.5256 249.702 73.2546 249.712C73.2335 249.712 73.2247 249.733 73.2546 249.753L73.1226 249.696C72.9625 249.434 73.3848 249.542 73.4218 249.394C73.4411 249.455 73.4007 249.499 73.5045 249.515L73.5572 249.388L73.4376 249.353L73.4798 249.144L73.5942 249.242C73.5766 249.119 73.376 248.961 73.6135 248.971C73.742 248.989 73.7402 249.147 73.8335 249.087C73.7971 248.896 73.7942 248.701 73.8247 248.508C73.962 248.607 73.9795 248.565 74.0323 248.542L73.9091 248.463C74.173 248.412 73.6663 248.246 73.8933 248.174L73.7983 248.137L74.0851 248.25C74.4141 248.25 73.8669 248.023 74.2962 248.074C74.2399 248.121 74.5566 248.264 74.5461 248.156L74.4141 248.105C74.4634 248.079 74.5215 248.095 74.5127 248.053C74.4335 248.038 74.3367 247.963 74.3842 247.914L74.2083 247.866L74.4968 247.882C74.4194 247.716 74.6728 247.672 74.5144 247.53C74.5144 247.53 74.5426 247.291 74.7537 247.354C74.6165 247.324 74.6323 247.194 74.4792 247.144C74.6393 247.171 74.8311 247.088 74.7256 246.949H74.7027C74.6869 246.65 75.1144 246.694 75.0546 246.4C75.1953 246.493 75.176 246.344 75.3484 246.479C75.6493 246.386 75.1725 245.893 75.8006 246.155C75.8833 246.083 75.7285 245.969 75.725 245.905H75.6827C75.7882 245.819 75.871 245.708 75.9238 245.582C76.017 245.552 76.2915 245.698 76.2915 245.546C76.1648 245.522 76.2106 245.487 76.2352 245.444C76.2036 245.46 76.1596 245.444 76.1209 245.349C76.1492 245.359 76.1792 245.362 76.2088 245.358C76.2011 245.352 76.1928 245.347 76.1842 245.342C76.2616 245.293 76.288 245.325 76.2845 245.367C76.3073 245.379 76.3276 245.396 76.3443 245.416C76.2493 245.263 76.4728 245.217 76.295 245.101C76.471 244.913 76.7384 244.871 76.9126 244.735C76.8791 244.704 76.8374 244.682 76.7923 244.673C76.7472 244.664 76.7005 244.668 76.6575 244.684L76.7648 244.578C76.6293 244.501 76.6452 244.605 76.5889 244.628C76.4569 244.351 76.9865 244.452 76.888 244.154L77.0164 244.181L77.0041 244.16C77.0626 244.19 77.1299 244.198 77.1941 244.184C77.0903 244.089 76.9214 244.027 76.9795 243.945C76.9056 243.809 77.1554 243.783 77.2663 243.73C77.2663 243.79 77.3314 243.811 77.3859 243.815C77.4141 243.774 77.312 243.681 77.3859 243.677L77.2294 243.579C77.3684 243.684 77.4563 243.561 77.532 243.579C77.4282 243.485 77.3912 243.588 77.2962 243.545L77.4722 243.297C77.6481 243.274 77.6129 243.403 77.7765 243.44C77.8557 243.375 78.014 243.36 77.9736 243.211L78.0968 243.322C78.2956 243.232 78.3326 243.13 78.2516 242.943C80.0745 242.48 79.9671 243.632 79.9671 243.632V243.633Z" fill="#2E66FF"/>
<path d="M83.491 229.214L83.7514 228.793L83.491 229.214Z" fill="#2E66FF"/>
<path d="M108.284 208.081L107.249 207.439C103.16 204.901 96.7922 207.766 93.0251 213.84L89.8246 219.002L89.8967 219.053L89.8123 219.021L89.7454 219.129C89.8316 219.201 90.1729 219.046 90.2908 219.324C90.5653 219.433 90.4245 220.266 90.7764 220.269C90.8151 220.486 90.8028 219.97 90.9243 220.19C91.0245 220.033 90.8961 220.039 91.021 219.938C91.1583 220.114 91.4169 219.951 91.5788 220.192L91.6615 220.072C91.8234 220.474 92.3143 220.234 92.3829 220.567C92.6257 220.848 92.8052 220.315 92.9776 220.743L93.2011 220.646C93.3524 220.697 93.1764 220.91 93.377 220.917C93.4316 220.804 93.6181 220.942 93.5882 220.79C94.0263 220.822 94.1406 221.433 94.7529 221.413C94.7283 221.677 95.0256 221.686 95.008 221.885C95.0731 221.802 95.4673 222.135 95.3301 221.79C95.3177 221.762 95.2773 221.742 95.2597 221.779L95.3019 221.639C95.6925 221.556 95.6908 222.038 95.9635 222.151C95.865 222.151 95.7717 222.079 95.7875 222.202L96.0321 222.323L96.0427 222.191L96.428 222.336L96.3049 222.436C96.5142 222.471 96.7042 222.288 96.7887 222.584C96.8169 222.735 96.5265 222.661 96.6831 222.807C97.0296 222.854 97.37 222.937 97.6984 223.057C97.5858 223.186 97.6667 223.233 97.73 223.304L97.8145 223.184C98.0221 223.536 98.0889 222.974 98.3159 223.293L98.2667 223.499C98.3986 223.911 98.5693 223.323 98.6784 223.851C98.5693 223.758 98.4584 224.094 98.6414 224.127L98.6749 223.985C98.7417 224.059 98.74 224.125 98.8104 224.132C98.7998 224.039 98.8878 223.941 98.9969 224.034V223.835L99.0971 224.187C99.3523 224.162 99.5388 224.492 99.713 224.363C99.713 224.363 100.144 224.506 100.123 224.743C100.114 224.583 100.352 224.662 100.371 224.49C100.394 224.68 100.623 224.96 100.823 224.889L100.811 224.859C101.328 224.972 101.437 225.493 101.93 225.548C101.826 225.683 102.08 225.724 101.919 225.88C102.213 226.301 102.877 225.935 102.685 226.595C102.848 226.734 102.98 226.595 103.093 226.614L103.067 226.558C103.273 226.734 103.5 226.884 103.742 227.007C103.837 227.139 103.7 227.417 103.966 227.487C103.955 227.337 104.036 227.411 104.122 227.462C104.077 227.413 104.084 227.364 104.237 227.359C104.234 227.396 104.242 227.433 104.26 227.466C104.26 227.457 104.274 227.454 104.277 227.441C104.399 227.563 104.355 227.58 104.277 227.558C104.277 227.575 104.254 227.593 104.216 227.61C104.444 227.559 104.624 227.862 104.743 227.69C105.067 227.985 105.373 228.3 105.658 228.633C105.753 228.562 105.718 228.43 105.635 228.332L105.855 228.508L105.504 229.075L105.877 228.473C105.887 228.379 105.759 228.346 105.701 228.283C105.788 228.274 105.875 228.297 105.947 228.348L105.917 228.399L108.847 223.673C112.635 217.598 112.373 210.612 108.284 208.081Z" fill="#2E66FF"/>
<path d="M102.913 229.349L102.923 229.375L102.909 229.347C102.816 229.006 102.307 228.995 102.152 228.659L101.977 228.721C101.924 228.608 101.843 228.504 101.714 228.517L101.7 228.555C101.621 228.379 101.438 228.353 101.399 228.269L101.384 228.307L101.232 228.196V228.263C101.068 228.048 100.842 227.887 100.585 227.802L100.687 227.667C100.141 227.566 100.159 227.165 99.6311 227.121L99.6171 227.16C99.3285 226.472 98.6493 226.945 98.3344 226.267C98.3749 226.352 98.2622 226.325 98.2464 226.364C98.0282 226.179 97.7801 226.012 97.9438 225.715C97.7678 225.614 97.7467 225.715 97.6587 225.817C97.7326 225.692 97.6095 225.549 97.4828 225.465L97.5179 225.551L97.145 225.275L97.3631 225.083C97.1115 225.028 97.1379 225.342 96.9708 225.166L97.0886 224.97C96.7737 224.836 96.4271 225.035 96.0611 225.014C94.8295 224.409 93.8705 223.166 92.5737 222.871L92.4383 222.99C92.2905 223.193 92.3257 222.494 92.1655 222.668L92.0969 222.492C92.0389 222.51 91.9385 222.506 91.9737 222.592C91.8523 222.531 91.8699 222.494 91.8224 222.38L91.6183 222.439C91.0905 222.272 90.8512 221.781 90.3321 221.547C89.7455 221.406 89.2081 221.108 88.7767 220.686L89.5016 219.518L85.0906 226.63L85.5709 225.857C85.6149 226.105 85.6536 226.37 85.8489 226.37C85.8859 226.586 85.8789 226.072 85.9967 226.292C86.097 226.135 85.9703 226.141 86.0935 226.04C86.2272 226.216 86.4841 226.051 86.6424 226.29L86.7252 226.171C86.8783 226.57 87.3674 226.329 87.429 226.66C87.6665 226.94 87.8495 226.408 88.0149 226.836L88.2348 226.739C88.3843 226.79 88.2066 227.001 88.4108 227.007C88.4653 226.896 88.6483 227.033 88.6219 226.88C89.053 226.912 89.1498 227.517 89.7638 227.496C89.7357 227.758 90.0295 227.767 90.0084 227.964C90.0735 227.881 90.4606 228.212 90.3286 227.869C90.3163 227.841 90.2776 227.821 90.2583 227.857L90.3022 227.718C90.6893 227.633 90.6805 228.114 90.9497 228.224C90.8512 228.224 90.7615 228.154 90.7738 228.277L91.0148 228.397L91.0271 228.265L91.4054 228.408L91.2823 228.506C91.4899 228.541 91.6782 228.358 91.7591 228.652C91.7855 228.804 91.4987 228.73 91.6518 228.874C91.9922 228.919 92.3267 229.001 92.6494 229.119C92.5368 229.247 92.6177 229.295 92.6793 229.363L92.7638 229.244C92.9644 229.596 93.0365 229.034 93.2564 229.351L93.2072 229.557C93.3321 229.967 93.5063 229.381 93.6083 229.909C93.5028 229.817 93.3902 230.152 93.5679 230.183L93.6031 230.041C93.6699 230.115 93.6664 230.182 93.735 230.189C93.7262 230.095 93.8142 229.999 93.9216 230.09L93.9303 229.891L94.0254 230.243C94.277 230.217 94.4564 230.544 94.6306 230.419C94.6306 230.419 95.0546 230.558 95.03 230.796C95.03 230.636 95.257 230.713 95.2781 230.542C95.2975 230.733 95.5227 231.009 95.7198 230.938L95.7074 230.909C96.2177 231.018 96.3198 231.535 96.8036 231.588C96.6998 231.723 96.9496 231.764 96.7895 231.921C97.0763 232.338 97.7326 231.97 97.5373 232.624C97.6974 232.762 97.8294 232.616 97.9403 232.64L97.9138 232.586C98.1155 232.76 98.3377 232.909 98.5754 233.029C98.6687 233.16 98.5297 233.438 98.7918 233.506C98.7813 233.357 98.8622 233.431 98.9449 233.48C98.9027 233.432 98.908 233.383 99.0611 233.378C99.0578 233.414 99.0645 233.451 99.0804 233.483C99.089 233.477 99.0957 233.469 99.0998 233.459C99.2177 233.58 99.1737 233.598 99.0998 233.575C99.0866 233.6 99.0646 233.619 99.0382 233.628C99.2634 233.577 99.4376 233.876 99.566 233.705C99.8825 233.998 100.181 234.31 100.458 234.64C100.553 234.569 100.52 234.437 100.441 234.341L100.667 234.516C100.745 234.381 100.571 234.355 100.511 234.282C100.935 234.24 100.991 234.86 101.456 234.865L101.465 235.015H101.494C101.512 234.988 101.544 234.976 101.6 234.997L101.494 235.015C101.483 235.053 101.48 235.093 101.487 235.133C101.493 235.172 101.509 235.209 101.533 235.242C101.639 235.162 101.686 235.018 101.813 235.066L104.646 230.5C104.54 230.435 104.431 230.359 104.311 230.271C103.828 229.991 103.361 229.683 102.913 229.349V229.349Z" fill="#2E66FF"/>
<path d="M20.7702 353.258L20.7473 353.292C20.7473 352.73 20.135 353.206 20.1157 352.655C20.1157 352.723 20.047 352.713 20.0259 352.746C19.9872 352.715 19.9558 352.675 19.9335 352.63C19.9113 352.586 19.8988 352.537 19.897 352.487C19.8952 352.437 19.904 352.387 19.9229 352.341C19.9418 352.294 19.9703 352.253 20.0066 352.218C19.9098 352.151 19.8658 352.243 19.7761 352.336C19.7939 352.316 19.8074 352.292 19.8159 352.266C19.8244 352.24 19.8277 352.213 19.8255 352.186C19.8234 352.159 19.8159 352.133 19.8035 352.109C19.7911 352.085 19.774 352.063 19.7532 352.046V352.116L19.5773 351.917L19.7867 351.731C19.6283 351.708 19.5544 351.975 19.4875 351.84L19.6283 351.664C19.4524 351.581 19.1479 351.785 18.8963 351.805C18.2207 351.407 17.9128 350.435 17.0928 350.312L16.9626 350.428C16.799 350.618 17.0313 350.013 16.8676 350.18V350.038C16.8219 350.059 16.7533 350.066 16.7515 350.136C16.6846 350.097 16.7075 350.064 16.7092 349.969L16.5474 350.041C16.2465 349.953 16.1955 349.594 15.9474 349.43L14.7615 357.067C14.6981 357.481 15.0184 357.68 15.3597 357.438L21.4951 353.109L21.0535 353.42C21.0296 353.367 20.9892 353.322 20.9383 353.293C20.8873 353.264 20.8285 353.252 20.7702 353.258Z" fill="#2E66FF"/>
<path d="M200.483 79.8231C200.107 79.8195 199.731 79.8477 199.359 79.9075C197.641 77.3638 195.138 75.4516 192.233 74.4621C192.353 73.8057 192.368 73.1343 192.277 72.4733C192.212 71.8883 191.981 71.3342 191.612 70.8757C191.243 70.4172 190.751 70.0733 190.194 69.8843C189.651 69.7733 189.089 69.7987 188.558 69.9582C188.167 70.0529 187.792 70.2029 187.444 70.4036C186.903 70.7839 186.45 71.2762 186.116 71.8471C185.782 72.418 185.575 73.0542 185.508 73.7124C182.702 74.0448 180.085 75.296 178.064 77.271C177.853 77.477 177.661 77.697 177.466 77.917C176.75 77.5151 175.952 77.2804 175.133 77.2305C174.578 77.194 174.023 77.2912 173.514 77.5138C173.004 77.7365 172.556 78.0781 172.206 78.51C171.825 79.1132 171.629 79.8149 171.642 80.5284C171.655 81.2419 171.877 81.9359 172.28 82.5246C172.829 83.3407 173.557 84.0208 174.408 84.5134C174.094 86.2665 174.146 88.0653 174.559 89.7975C174.972 91.5297 175.738 93.1581 176.809 94.5807C177.028 94.857 177.263 95.121 177.504 95.378C177.122 95.9188 176.89 96.5511 176.831 97.2108C176.772 97.8705 176.889 98.5341 177.169 99.1341C177.45 99.7341 177.884 100.249 178.427 100.627C178.971 101.005 179.605 101.233 180.265 101.286C181.084 101.289 181.892 101.109 182.632 100.758C183.372 100.407 184.023 99.8946 184.539 99.2587C185.933 99.5585 187.365 99.6433 188.785 99.5104C190.367 99.3486 191.909 98.9145 193.343 98.2273C193.938 98.7383 194.587 99.1827 195.279 99.5526C196.187 100.05 197.24 100.216 198.258 100.023C198.98 99.8338 199.62 99.4136 200.081 98.8262C200.542 98.2388 200.797 97.5166 200.809 96.77C200.517 95.3328 200.098 93.9245 199.556 92.5619C200.118 91.5982 200.546 90.5618 200.827 89.4819C201.058 88.5783 201.192 87.6526 201.226 86.7205C202.086 86.3817 202.826 85.7948 203.351 85.0344C203.775 84.4162 203.986 83.6764 203.952 82.9274C203.918 82.1785 203.64 81.4612 203.161 80.8843C202.443 80.1926 201.481 79.8114 200.483 79.8231V79.8231ZM193.678 87.5407C193.394 88.6393 192.788 89.6282 191.939 90.3807C191.09 91.1332 190.036 91.6151 188.911 91.7646C187.784 91.8774 186.647 91.6798 185.623 91.1931C184.6 90.7064 183.729 89.9492 183.105 89.0032C182.629 88.35 182.32 87.5908 182.203 86.7912C182.086 85.9916 182.165 85.1755 182.433 84.4133C182.702 83.6511 183.152 82.9658 183.744 82.4163C184.337 81.8668 185.054 81.4697 185.834 81.2592C189.807 79.9585 194.721 82.9981 193.678 87.5407Z" fill="#2E66FF"/>
<path d="M262.876 79.0856C262.395 77.7812 261.559 76.6377 260.461 75.785C259.363 74.9322 258.049 74.4044 256.666 74.2614C256.343 71.4317 255.606 68.6648 254.479 66.0493C255.786 64.6775 256.735 63.0049 257.242 61.1794C257.638 59.5204 257.481 57.7771 256.793 56.2162C256.106 54.6552 254.926 53.3625 253.435 52.5358C251.943 51.709 250.222 51.3938 248.534 51.6383C246.846 51.8827 245.285 52.6735 244.089 53.8895C240.565 51.9941 236.613 51.0353 232.612 51.1051C232.19 49.8958 231.487 48.804 230.561 47.9194C229.634 47.0348 228.512 46.3827 227.284 46.0166C226.057 45.6505 224.761 45.5808 223.501 45.8134C222.242 46.046 221.056 46.5743 220.04 47.3546C219.514 47.745 219.058 48.221 218.689 48.7626C218.244 49.5787 217.968 50.4763 217.877 51.4016C217.786 52.327 217.883 53.2611 218.161 54.1482C217.019 54.6952 215.931 55.3487 214.912 56.1C212.54 57.9063 210.558 60.1734 209.084 62.7651C206.893 62.5158 204.688 63.1042 202.912 64.4124C202.113 64.8813 201.418 65.5087 200.87 66.256C200.323 67.0033 199.934 67.8547 199.727 68.758C199.613 69.9916 199.849 71.2323 200.408 72.3378C200.867 73.5206 201.608 74.5736 202.566 75.4056C203.523 76.2376 204.669 76.8234 205.905 77.1126C206.2 80.8315 207.196 84.461 208.839 87.8099C207.886 88.9751 207.194 90.3325 206.813 91.7893C206.42 93.4342 206.572 95.162 207.246 96.7129C207.92 98.2638 209.079 99.5539 210.549 100.389C212.019 101.224 213.721 101.559 215.397 101.343C217.074 101.128 218.636 100.373 219.847 99.1936C223.429 100.733 227.326 101.396 231.215 101.13C231.535 102.438 232.177 103.647 233.082 104.645C233.987 105.643 235.126 106.399 236.397 106.845C237.669 107.291 239.031 107.413 240.361 107.199C241.691 106.985 242.946 106.443 244.014 105.621C244.54 105.231 244.997 104.755 245.365 104.213C246.688 102.184 246.183 99.5703 245.465 97.2031C247.907 96.007 250.093 94.3483 251.903 92.319C252.842 91.2069 253.642 89.9854 254.288 88.6811C256.453 88.8993 258.623 88.3068 260.377 87.018C261.176 86.5496 261.871 85.9225 262.418 85.1755C262.965 84.4284 263.354 83.5773 263.56 82.6743C263.675 81.4374 263.437 80.1934 262.876 79.0856ZM243.801 78.8005C243.463 80.9008 242.64 82.8931 241.397 84.619C240.26 85.9022 238.813 86.8719 237.194 87.4351C235.172 88.2156 233.001 88.5351 230.84 88.3707C228.679 88.2063 226.582 87.562 224.701 86.4846C222.841 85.3731 221.293 83.8073 220.202 81.9338C219.112 80.0603 218.515 77.9406 218.467 75.7733C218.478 73.6052 219.105 71.4848 220.274 69.6591C221.443 67.8335 223.106 66.3777 225.071 65.4614C234.85 61.2321 246.287 67.8762 243.801 78.8005V78.8005Z" fill="#2E66FF"/>
<path d="M237.152 78.3535C237.283 78.3201 237.077 77.9716 237.261 78.0772C237.162 77.7294 236.94 77.4293 236.637 77.2325C236.323 77.0199 236.043 76.7611 235.806 76.4651C235.539 76.5724 235.261 76.2891 235.074 76.3964C235.103 76.2803 234.371 76.1166 234.853 76.0444C234.893 76.0444 234.955 76.0673 234.935 76.1042L235.037 75.9898C234.703 75.5692 234.195 75.8737 233.818 75.7734C233.931 75.8402 234.089 75.8543 233.968 75.9335C233.844 75.9036 233.723 75.879 233.603 75.8579L233.695 75.7488C233.519 75.6995 233.332 75.6572 233.155 75.622L233.218 75.7752C232.966 75.6802 232.878 75.4231 232.588 75.6273C232.458 75.7417 232.82 75.8332 232.556 75.8737C232.171 75.7386 231.773 75.6425 231.369 75.5869C231.407 75.7541 231.305 75.7488 231.202 75.784L231.188 75.6396C230.8 75.8455 231.04 75.3228 230.672 75.4812L230.705 75.3791L230.603 75.6818C230.264 75.9582 230.449 75.3791 230.076 75.7452C230.213 75.7311 230.113 76.0708 229.945 75.9898L230.003 75.8544C229.908 75.872 229.87 75.9283 229.812 75.8913C229.877 75.8227 229.868 75.6924 229.736 75.6959L229.849 75.5358C229.757 75.6079 229.662 75.6819 229.565 75.7488C229.412 75.5728 229.09 75.6678 229.09 75.4549C229.078 75.4549 228.812 75.2419 228.652 75.3879C228.772 75.3017 228.652 75.1733 228.774 75.0606C228.636 75.1627 228.371 75.1169 228.432 74.9427H228.453C228.411 74.786 228.32 74.7509 228.225 74.684C228.196 74.6708 228.171 74.652 228.15 74.6289C228.129 74.6058 228.112 74.5787 228.102 74.5492C228.091 74.5197 228.087 74.4884 228.089 74.4571C228.09 74.4259 228.098 74.3953 228.112 74.3671C227.95 74.4146 228.015 74.2492 227.808 74.3144C227.681 74.1577 227.788 73.9817 227.859 73.862C227.929 73.7423 227.945 73.6491 227.635 73.4977C227.651 73.3094 227.845 73.3375 227.91 73.2707L227.927 73.32C227.954 73.1046 228.045 72.9022 228.188 72.7391C228.202 72.6142 227.976 72.3872 228.196 72.2745C228.232 72.4118 228.279 72.3326 228.339 72.2745C228.314 72.3273 228.33 72.3678 228.467 72.3608C228.458 72.3281 228.458 72.2932 228.467 72.2605C228.467 72.2605 228.483 72.2692 228.49 72.2815C228.571 72.1583 228.531 72.1407 228.467 72.1707C228.452 72.1483 228.429 72.1321 228.402 72.1249C228.612 72.1531 228.754 71.8715 228.877 72.0457C229.179 71.7698 229.515 71.5332 229.877 71.3417C229.94 71.4402 229.861 71.5511 229.762 71.6163C229.849 71.582 229.938 71.5532 230.028 71.53C230.047 71.6849 229.886 71.6391 229.81 71.6902C230.146 71.8785 230.457 71.3382 230.866 71.5986L230.957 71.4825L230.978 71.5037C230.978 71.4403 231.082 71.3558 231.154 71.3452C231.196 71.4878 231.115 71.655 231.305 71.6744C231.432 71.8275 231.735 71.6902 231.965 71.6849C231.863 71.6321 231.918 71.5688 231.981 71.5371C232.083 71.56 232.095 71.713 232.19 71.6813L232.139 71.8574C232.157 71.6814 232.453 71.7747 232.52 71.7201C232.52 71.868 232.324 71.7712 232.264 71.8574C232.46 71.9202 232.652 71.9936 232.84 72.0774C233.102 72.0545 232.88 71.9014 233.049 71.8081C233.246 71.8679 233.493 71.8538 233.64 72.0756L233.66 71.8996C233.819 71.9179 233.97 71.9785 234.097 72.0751C234.225 72.1716 234.324 72.3007 234.385 72.4488C234.911 72.5995 235.456 72.6766 236.003 72.6776C236.315 72.6424 236.424 72.5015 236.44 72.3132C236.391 71.9822 236.247 71.6724 236.026 71.421C235.674 70.9331 235.184 70.5617 234.619 70.3544C233.973 70.1184 233.312 69.9256 232.641 69.7771L232.173 69.6011C232.168 69.5939 232.16 69.5883 232.152 69.5852L232.192 69.5958L232.18 69.5676L232.236 69.5852C232.134 69.5271 232.132 69.4919 232.189 69.4725L232.023 69.441C232.222 69.4128 231.881 69.3248 232.113 69.3089H232.154C231.726 69.1629 232.472 69.2403 232.066 69.0995C232.107 69.1096 232.15 69.1144 232.192 69.1135C232.15 69.0731 232.131 69.0326 231.8 68.9886C231.809 68.9657 231.905 68.9886 232.034 68.9886C231.89 68.971 231.832 68.941 231.825 68.9217L231.879 68.9376L231.835 68.8777L231.561 68.8583C231.643 68.8389 231.895 68.8882 231.832 68.8583L231.605 68.8354C231.654 68.802 232 68.8126 232.171 68.7862C232.284 68.6102 231.708 68.4342 232.11 68.2793H232.286C232.537 68.2793 231.914 68.2388 232.147 68.23L232.032 68.2142C232.081 68.2039 232.131 68.2009 232.18 68.2054C232.189 68.1878 232.148 68.1878 232.073 68.179L232.227 68.1561C232.345 68.0839 232.052 68.04 232.101 67.9696C232.412 67.8622 232.101 67.7197 231.925 67.6581C231.543 67.5965 232.5 67.2902 232.053 67.2286C232.087 67.218 232.006 67.2286 231.978 67.2286L231.988 67.1037C231.988 67.1037 231.976 66.954 231.726 66.9276C231.134 66.9914 230.56 67.1708 230.037 67.4556L229.984 67.4679C229.866 67.5401 229.843 67.5665 230.116 67.5349C229.789 67.6123 230.09 67.5753 229.986 67.6069H229.958C230.218 67.5788 229.759 67.6985 229.991 67.6756C229.95 67.6845 229.908 67.6904 229.866 67.6932C229.912 67.6932 229.988 67.7109 229.796 67.7461C229.852 67.7777 229.773 67.8428 230.086 67.8252H230.032C230.243 67.8129 230.065 67.841 230.174 67.8446L230.125 67.8534C230.332 67.8446 230.164 67.8992 230.253 67.9027L230.123 67.9185L230.158 67.9484L230.185 67.9325C230.537 67.9009 229.965 67.9802 230.197 67.9837C230.153 68.0083 230.94 67.9731 230.769 68.0154C230.945 68.0154 230.496 68.0153 230.626 68.0329C230.44 68.047 230.508 68.0329 230.361 68.0469C230.45 68.0593 230.172 68.0874 230.301 68.1015L230.155 68.1103C230.422 68.1262 229.965 68.1702 230.22 68.1773C230.339 68.2019 229.789 68.2089 230.074 68.2283L229.879 68.2441C229.847 68.2546 230.12 68.2441 230.025 68.2635C229.9 68.2635 229.926 68.2793 229.808 68.274C229.615 68.3004 230.083 68.3338 229.754 68.3673C229.995 68.3796 229.852 68.3955 230.032 68.4078C229.928 68.4078 230.014 68.4465 229.787 68.4166C229.769 68.4166 229.773 68.4166 229.813 68.4166H229.671C229.402 68.4254 229.817 68.4589 229.775 68.4782C229.819 68.4702 229.864 68.4702 229.908 68.4782L229.887 68.4976L229.768 68.4869L229.696 68.5098H229.843C229.768 68.5204 229.514 68.5099 229.724 68.5381C229.806 68.5397 229.888 68.5462 229.97 68.5574C229.868 68.5659 229.767 68.5812 229.667 68.6032C229.733 68.6017 229.799 68.6118 229.861 68.633L229.715 68.6208C229.914 68.6648 229.396 68.5961 229.553 68.6366L229.453 68.6242L229.755 68.663C230.039 68.7193 229.454 68.6402 229.842 68.7123C229.819 68.6982 230.16 68.7457 230.097 68.751L229.958 68.7298C229.986 68.7421 230.044 68.7509 230.014 68.7527C229.94 68.7386 229.812 68.7246 229.838 68.7369L229.662 68.7088L229.914 68.7615C229.762 68.7615 229.947 68.8056 229.75 68.7827C229.75 68.7827 229.65 68.7986 229.863 68.8408C229.731 68.8126 229.687 68.8214 229.521 68.7915C229.671 68.8232 229.791 68.869 229.629 68.8496H229.611C229.435 68.8496 229.822 68.9516 229.62 68.9428C229.785 68.9763 229.692 68.9745 229.903 69.0132C230.105 69.0959 229.462 68.978 230.109 69.14C230.139 69.1646 229.952 69.1241 229.917 69.1241L229.884 69.1118C229.93 69.1541 229.933 69.1646 229.914 69.1822H229.933C229.619 69.2078 229.31 69.2711 229.011 69.3705C228.146 69.5853 227.361 70.0463 226.752 70.6976C226.609 71.1499 225.986 71.5951 225.972 72.1337L225.765 72.2428C225.783 72.4235 225.734 72.6045 225.628 72.7515L225.592 72.7303C225.617 72.9943 225.508 73.2583 225.536 73.3815L225.497 73.3657L225.48 73.6684L225.429 73.6103C225.496 74.0591 225.524 74.4903 225.557 74.9127L225.717 74.8459C225.714 75.1915 225.826 75.5283 226.036 75.8033C226.232 76.0593 226.405 76.332 226.553 76.6182L226.516 76.6376C226.9 76.8047 227.246 77.0478 227.533 77.3521C227.668 77.5013 227.837 77.6156 228.026 77.6852C228.215 77.7547 228.417 77.7775 228.617 77.7516C228.497 77.7728 228.638 77.8484 228.617 77.8854C229.023 77.954 229.435 77.9892 229.497 77.6601C229.759 77.7059 229.697 77.7921 229.718 77.9259C229.734 77.7816 229.972 77.7498 230.176 77.7498L230.077 77.801C230.278 77.801 230.47 77.7886 230.656 77.7745L230.554 77.4982C230.844 77.581 230.625 77.8361 230.906 77.771V77.5422C231.304 77.5862 231.545 77.9241 231.914 78.0861C232.664 78.1195 233.375 78.0173 233.959 78.1071C234.543 78.1969 235.145 78.5595 235.169 79.0118L235.039 79.1279C234.823 79.2406 235.451 79.128 235.25 79.2547L235.381 79.304C235.349 79.3374 235.3 79.3937 235.243 79.3656C235.243 79.436 235.287 79.429 235.366 79.4782C235.316 79.5083 235.265 79.5353 235.212 79.5591C235.164 79.6959 235.146 79.8408 235.157 79.9851C235.151 80.1837 235.069 80.3724 234.928 80.513C234.596 80.6865 234.289 80.9032 234.013 81.1572C233.677 81.4243 233.321 81.6644 232.947 81.8754C232.705 82.0044 232.437 82.0778 232.163 82.0903C231.89 82.1028 231.616 82.0539 231.364 81.9474C230.867 81.7387 230.334 81.6298 229.796 81.6271C229.775 81.5849 229.667 81.6412 229.659 81.6659C229.366 81.5552 229.08 81.4258 228.803 81.2786L228.235 80.9637C227.904 80.7877 227.531 80.5289 227.201 80.36C226.87 80.191 226.569 80.0853 226.384 80.3071C226.199 80.5289 226.101 81.1185 226.68 82.259L226.622 82.2818C226.774 82.5152 226.983 82.7065 227.229 82.8381C227.475 82.9697 227.75 83.0375 228.029 83.0352C227.954 83.3661 228.525 83.3097 228.638 83.4523L228.613 83.4734C229.085 83.3766 229.381 83.9557 229.845 83.8149C229.824 83.8377 229.796 83.9275 229.703 83.9152C230.007 83.931 230.406 83.931 230.406 84.1193L230.658 84.1386C230.625 84.2372 231.131 84.3269 230.751 84.4273H230.575C230.325 84.4361 230.947 84.4449 230.716 84.4537L230.83 84.4625C230.781 84.4671 230.731 84.4671 230.681 84.4625C230.672 84.4731 230.713 84.473 230.788 84.4783L230.633 84.4925C230.514 84.5365 230.809 84.5628 230.755 84.6051C230.44 84.6649 230.734 84.7511 230.904 84.8022C231.281 84.8691 230.287 84.9782 230.716 85.0521C230.681 85.0521 230.762 85.0609 230.79 85.0609L230.756 85.133C230.756 85.133 230.67 85.485 232.736 85.1647H232.79C232.922 85.1225 232.951 85.0961 232.676 85.0767C233.012 85.0627 232.71 85.0433 232.817 85.031H232.845C232.586 85.0134 233.058 84.9764 232.827 84.9588C232.868 84.9558 232.91 84.9558 232.951 84.9588C232.908 84.943 232.833 84.9219 233.028 84.9149C232.977 84.8761 233.065 84.8181 232.752 84.8005H232.806C232.595 84.7917 232.775 84.7811 232.667 84.7688H232.717C232.507 84.7582 232.683 84.723 232.593 84.7125H232.724L232.692 84.6825L232.666 84.6949C232.314 84.6949 232.889 84.6649 232.657 84.6473C232.701 84.6244 231.913 84.6226 232.087 84.5962C231.911 84.5962 232.359 84.5963 232.229 84.5857C232.416 84.5857 232.347 84.5857 232.495 84.5857C232.407 84.5716 232.685 84.5541 232.558 84.5382H232.704C232.439 84.5206 232.894 84.4854 232.639 84.4749C232.52 84.452 233.07 84.4466 232.785 84.4273L232.982 84.4115C233.014 84.3974 232.741 84.4115 232.836 84.3939C232.959 84.3939 232.935 84.3745 233.051 84.3781C233.244 84.3446 232.775 84.327 233.102 84.2795C232.861 84.2795 233.003 84.2548 232.822 84.253C232.928 84.253 232.838 84.2126 233.067 84.2284C233.084 84.2284 233.083 84.2284 233.04 84.2284H233.183C233.452 84.1985 233.033 84.1915 233.076 84.1686C233.032 84.1818 232.987 84.1866 232.942 84.1827L232.961 84.1615H233.083L233.151 84.1298L233.003 84.1386C233.079 84.121 233.331 84.1088 233.12 84.0982C233.038 84.103 232.955 84.103 232.873 84.0982C232.974 84.0798 233.073 84.052 233.169 84.0154C233.104 84.026 233.038 84.026 232.973 84.0154H233.12C232.917 83.9943 233.438 83.9979 233.278 83.975H233.074C232.785 83.9592 233.376 83.9557 232.982 83.9381C233.007 83.9486 232.662 83.9521 232.724 83.9381H232.864C232.834 83.9381 232.776 83.938 232.805 83.9257C232.88 83.9257 233.009 83.9257 232.981 83.9134H233.156L232.898 83.9011C233.049 83.8818 232.859 83.8623 233.056 83.85C233.056 83.85 233.153 83.8148 232.937 83.813C233.07 83.813 233.121 83.7972 233.288 83.7972C233.135 83.7972 233.01 83.7708 233.172 83.7567H233.192C233.355 83.7145 232.97 83.6987 233.16 83.66L233.181 83.6811C233.405 83.4277 233.959 83.4224 234.14 83.2552L234.202 83.3696L234.707 83.1108C234.638 83.1372 234.569 83.1531 234.501 83.1742C234.404 82.831 235.002 83.1953 235.245 82.7571C235.62 82.5582 235.4 81.7152 235.757 81.5884C235.757 81.342 235.852 81.8929 235.933 81.6025C236.077 81.7204 235.933 81.7785 236.09 81.826C236.207 81.5603 236.549 81.5866 236.644 81.2012L236.776 81.2628C236.802 81.0224 236.898 80.7948 237.052 80.6081C237.123 80.5292 237.172 80.4331 237.194 80.3293C237.216 80.2256 237.211 80.1178 237.179 80.0167C237.11 79.4764 237.67 79.6401 237.321 79.0435C237.376 78.9539 237.423 78.8604 237.464 78.7637C237.402 78.4961 237.168 78.6598 237.152 78.3535ZM233.074 83.6757C233.089 83.6698 233.104 83.6628 233.118 83.6547L233.137 83.6757H233.074Z" fill="#2E66FF"/>
<path d="M97.8128 239.726L97.804 239.702L97.8128 239.726Z" fill="black"/>
<path d="M93.26 233.548L93.2354 233.652L93.26 233.548Z" fill="black"/>
<path d="M105.723 228.279C105.776 228.342 105.899 228.376 105.899 228.469L105.945 228.395L105.975 228.344C105.902 228.293 105.812 228.27 105.723 228.279V228.279Z" fill="black"/>
<path d="M99.1181 237.962C99.1445 237.953 99.1665 237.934 99.1796 237.91C99.2535 237.934 99.2975 237.91 99.1796 237.795C99.1796 237.807 99.1673 237.811 99.162 237.818C99.1448 237.786 99.1369 237.749 99.1392 237.712C98.9861 237.712 98.9808 237.765 99.0248 237.815C98.9386 237.765 98.8488 237.69 98.8699 237.839C98.6042 237.771 98.7415 237.487 98.6465 237.36C98.4052 237.238 98.1795 237.088 97.9743 236.912L98.0008 236.968C97.8881 236.942 97.758 237.088 97.5926 236.949C97.7861 236.289 97.1245 236.656 96.8307 236.236C96.9908 236.079 96.7392 236.039 96.843 235.903C96.3539 235.849 96.2447 235.329 95.7292 235.217L95.7416 235.247C95.5427 235.317 95.314 235.037 95.2929 234.849C95.2718 235.025 95.036 234.941 95.043 235.101C95.0659 234.863 94.6348 234.722 94.6348 234.722C94.4589 234.849 94.2829 234.52 94.0225 234.546L93.9239 234.194V234.395C93.8149 234.302 93.7251 234.395 93.7357 234.493C93.6671 234.493 93.6688 234.42 93.602 234.346L93.5685 234.488C93.3926 234.455 93.4981 234.119 93.6055 234.212C93.4981 233.693 93.3275 234.275 93.1973 233.86L93.2448 233.652C93.0213 233.334 92.951 233.899 92.7451 233.543L92.6624 233.663C92.5991 233.585 92.5181 233.545 92.6307 233.416C92.3034 233.297 91.9642 233.214 91.619 233.168C91.4624 233.022 91.7527 233.096 91.7263 232.945C91.6401 232.649 91.4519 232.832 91.2425 232.797L91.3674 232.696L90.9821 232.552L90.9698 232.684L90.7269 232.564C90.7111 232.439 90.8026 232.51 90.9029 232.513C90.6302 232.401 90.6355 231.919 90.2449 232.001L90.2026 232.142C90.2202 232.105 90.2607 232.124 90.273 232.153C90.4085 232.505 90.0161 232.163 89.951 232.248C89.9703 232.049 89.673 232.04 89.6977 231.776C89.0871 231.795 88.9745 231.186 88.5381 231.153C88.5663 231.306 88.3815 231.169 88.327 231.28C88.1299 231.28 88.3059 231.061 88.151 231.01L87.9276 231.107C87.7516 230.676 87.5757 231.209 87.3346 230.931C87.2677 230.599 86.7769 230.84 86.6167 230.437L86.5341 230.556C86.3739 230.315 86.1153 230.488 85.978 230.305C85.8549 230.405 85.978 230.4 85.8813 230.556C85.7616 230.336 85.7722 230.852 85.7334 230.634C85.3815 230.634 85.5258 229.801 85.2514 229.692C85.1018 229.34 84.574 229.692 84.7077 229.363L84.8607 229.419L84.5089 229.176L84.4332 229.282C84.3276 229.117 83.8825 229.059 83.8033 228.77C83.8033 228.779 83.7822 228.786 83.7628 228.796L83.5007 229.219L82.8567 230.255C82.9264 230.307 82.9906 230.366 83.0484 230.431C83.6486 231.119 84.4229 231.633 85.2901 231.919C85.8074 232.153 86.0466 232.642 86.5692 232.811L86.7751 232.749C86.8208 232.865 86.8032 232.902 86.9246 232.962C86.8894 232.876 86.9898 232.879 87.0478 232.862L87.1164 233.038C87.2748 232.862 87.2396 233.566 87.3874 233.36L87.5211 233.24C88.8126 233.534 89.7733 234.775 90.9926 235.38C91.3586 235.4 91.6965 235.204 92.0184 235.335L91.9005 235.53C92.0765 235.706 92.0413 235.393 92.2912 235.449L92.0729 235.639L92.4443 235.915L92.409 235.829C92.5427 235.919 92.6659 236.062 92.585 236.181C92.6747 236.084 92.6923 235.979 92.8718 236.079C92.7064 236.37 92.9527 236.544 93.1709 236.729C93.1868 236.69 93.2976 236.716 93.2589 236.632C93.5721 237.308 94.2495 236.834 94.5345 237.522L94.5504 237.484C95.0782 237.528 95.0554 237.927 95.6061 238.027L95.5022 238.165C95.7584 238.248 95.9831 238.408 96.1462 238.622V238.557L96.2975 238.666L96.3134 238.628C96.3521 238.714 96.5333 238.747 96.6125 238.916L96.6266 238.878C96.755 238.865 96.8342 238.967 96.887 239.08L97.063 239.018C97.216 239.349 97.7227 239.37 97.816 239.707C98.0694 239.883 98.3333 240.069 98.6025 240.25L99.8606 238.221C99.7973 238.158 99.7303 238.1 99.66 238.045C99.5227 238.214 99.345 237.913 99.1181 237.962Z" fill="black"/>
<path d="M21.0277 350.004L20.9802 350.096L21.0277 350.004Z" fill="black"/>
<path d="M22.7374 351.96C22.8957 351.81 22.7374 351.799 22.843 351.673C22.5157 351.673 22.5931 351.238 22.2641 351.194V351.217C22.1022 351.3 22.0248 351.081 22.0652 350.921C22.0001 351.071 21.8576 351.025 21.8171 351.162C21.9016 350.956 21.6412 350.877 21.6412 350.877C21.4828 351.004 21.4494 350.742 21.2647 350.787L21.2998 350.49L21.2365 350.666C21.1873 350.597 21.0958 350.689 21.0764 350.77C21.0289 350.77 21.05 350.714 21.0254 350.655L20.9585 350.782C20.8424 350.772 21.0183 350.473 21.0676 350.541C21.145 350.105 20.8529 350.624 20.8828 350.282L20.9779 350.106C20.9145 349.855 20.6999 350.348 20.6594 350.061L20.5661 350.173C20.545 350.113 20.4993 350.087 20.6154 349.964C20.4111 349.892 20.1966 349.854 19.9802 349.851C19.9134 349.742 20.0946 349.777 20.121 349.649C20.1492 349.402 19.9626 349.58 19.8254 349.571L19.9415 349.473L19.7145 349.387L19.6671 349.501L19.5333 349.422C19.5579 349.318 19.6019 349.367 19.6705 349.36C19.5122 349.292 19.6582 348.876 19.3591 348.985L19.287 349.11C19.3116 349.077 19.3345 349.091 19.3345 349.11C19.3345 349.394 19.1497 349.145 19.0794 349.225C19.1515 349.049 18.9474 349.073 19.0424 348.843C18.6078 348.922 18.7099 348.41 18.4125 348.426C18.3879 348.554 18.2981 348.454 18.2277 348.556C18.0905 348.57 18.277 348.369 18.1855 348.339L18.0008 348.445C18.0096 348.093 17.7245 348.57 17.6383 348.352C17.6893 348.072 17.2741 348.327 17.2864 348L17.1932 348.111C17.151 347.92 16.9187 348.093 16.8764 347.949C16.7603 348.047 16.8518 348.03 16.7357 348.176C16.7163 348 16.5721 348.441 16.6073 348.258C16.3644 348.29 16.7076 347.554 16.5492 347.495C16.5492 347.319 16.3592 347.387 16.2677 347.394L15.9509 349.434C16.2078 349.598 16.25 349.962 16.5509 350.045L16.7128 349.973C16.7128 350.068 16.6882 350.101 16.755 350.14C16.755 350.069 16.8254 350.062 16.8712 350.041V350.184C17.0348 350.017 16.8026 350.622 16.9662 350.432L17.0964 350.316C17.9163 350.439 18.2243 351.411 18.8999 351.808C19.1515 351.789 19.4524 351.585 19.6318 351.667L19.4911 351.844C19.558 351.979 19.6318 351.712 19.7902 351.734L19.5808 351.921L19.7568 352.12V352.049C19.7776 352.067 19.7946 352.088 19.807 352.112C19.8195 352.136 19.827 352.163 19.8291 352.19C19.8312 352.217 19.8279 352.244 19.8194 352.27C19.811 352.296 19.7974 352.319 19.7797 352.34C19.8694 352.247 19.9133 352.164 20.0101 352.222C19.9739 352.256 19.9454 352.298 19.9265 352.344C19.9076 352.39 19.8987 352.44 19.9005 352.49C19.9024 352.54 19.9148 352.589 19.937 352.634C19.9593 352.679 19.9908 352.718 20.0295 352.75C20.0506 352.716 20.121 352.727 20.1192 352.658C20.1386 353.209 20.7544 352.734 20.7509 353.295L20.7738 353.262C20.8317 353.255 20.8902 353.267 20.9411 353.295C20.992 353.324 21.0326 353.368 21.057 353.42L21.4987 353.109L22.9063 352.113C22.8654 352.109 22.827 352.092 22.7966 352.064C22.7662 352.037 22.7455 352 22.7374 351.96V351.96Z" fill="black"/>
<path d="M78.2532 242.957C78.3341 243.144 78.2972 243.246 78.0983 243.336L77.9752 243.225C78.0156 243.375 77.8573 243.389 77.7781 243.454C77.6145 243.417 77.6479 243.288 77.4737 243.311L77.2978 243.559C77.3928 243.602 77.4297 243.499 77.5335 243.593C77.4578 243.572 77.3699 243.695 77.2309 243.593L77.3875 243.691C77.3171 243.691 77.4192 243.788 77.3875 243.829C77.333 243.829 77.2591 243.804 77.2679 243.744C77.1517 243.797 76.9159 243.823 76.981 243.959C76.923 244.042 77.0919 244.103 77.1957 244.198C77.1314 244.212 77.0642 244.204 77.0057 244.174L77.018 244.195L76.8895 244.168C76.9881 244.461 76.4585 244.365 76.5904 244.642C76.6397 244.619 76.6239 244.515 76.7664 244.592L76.6591 244.698C76.7021 244.682 76.7488 244.678 76.7939 244.687C76.839 244.696 76.8806 244.718 76.9142 244.749C76.7382 244.885 76.4638 244.925 76.2966 245.115C76.4726 245.231 76.2508 245.277 76.3459 245.43C76.3292 245.41 76.3089 245.394 76.286 245.381C76.286 245.339 76.2632 245.307 76.1857 245.356C76.1944 245.361 76.2027 245.366 76.2104 245.372C76.1808 245.376 76.1508 245.373 76.1224 245.363C76.1611 245.46 76.2051 245.474 76.2367 245.458C76.2121 245.501 76.1664 245.536 76.2931 245.561C76.2931 245.712 76.0186 245.56 75.9254 245.596C75.8725 245.722 75.7898 245.833 75.6843 245.92H75.7265C75.7265 245.983 75.8849 246.096 75.8022 246.17C75.1828 245.907 75.6508 246.4 75.35 246.493C75.174 246.358 75.1969 246.507 75.0561 246.414C75.1177 246.708 74.6902 246.664 74.7043 246.963H74.7271C74.8327 247.102 74.6409 247.185 74.4808 247.159C74.6339 247.208 74.618 247.335 74.7553 247.368C74.5441 247.303 74.516 247.544 74.516 247.544C74.6655 247.679 74.421 247.72 74.4984 247.896L74.2098 247.88L74.3858 247.928C74.3295 247.977 74.4351 248.053 74.5142 248.067C74.523 248.109 74.465 248.093 74.4157 248.12L74.5476 248.171C74.5582 248.278 74.2415 248.135 74.2978 248.088C73.8685 248.042 74.4157 248.276 74.0867 248.264L73.7999 248.151L73.8949 248.188C73.6679 248.26 74.1746 248.426 73.9107 248.477L74.0339 248.556C73.9811 248.579 73.9635 248.621 73.8262 248.523C73.7957 248.715 73.7987 248.911 73.835 249.102C73.7418 249.168 73.7435 249.003 73.6151 248.985C73.3776 248.975 73.5782 249.133 73.5958 249.256L73.4814 249.158L73.4391 249.367L73.5588 249.403L73.506 249.529C73.4022 249.514 73.4427 249.469 73.4233 249.408C73.3863 249.556 72.9641 249.448 73.1242 249.711L73.2561 249.767C73.2192 249.748 73.228 249.728 73.2561 249.726C73.5271 249.716 73.323 249.888 73.411 249.948C73.235 249.894 73.2913 250.077 73.0591 250.004C73.2122 250.392 72.7072 250.328 72.7758 250.596C72.9025 250.61 72.8233 250.696 72.9324 250.754C72.9711 250.877 72.7459 250.721 72.7353 250.804L72.8691 250.964C72.5313 250.978 73.045 251.207 72.8445 251.296C72.57 251.266 72.8884 251.625 72.5735 251.648L72.6966 251.726C72.5207 251.773 72.7283 251.972 72.5999 252.02C72.7142 252.118 72.6808 252.037 72.8409 252.134C72.6755 252.161 73.1224 252.266 72.9412 252.243C73.0169 252.462 72.262 252.194 72.2268 252.342C71.9488 252.358 72.3852 252.768 72.0615 252.611L72.0773 252.528L71.9436 252.704L72.0544 252.775C71.933 252.805 71.9823 253.07 71.7465 253.058C71.7571 253.058 71.7641 253.076 71.7835 253.093C71.6357 253.136 71.7834 253.25 71.5442 253.229L71.5969 253.246C71.245 253.246 71.1289 253.609 70.9495 253.815C71.1131 253.921 70.9723 254.017 70.8773 254.093C70.9002 254.065 70.9829 254.109 71.0075 254.116C70.7295 254.133 71.0533 254.519 70.7489 254.528L70.7753 254.537C70.8386 254.644 70.4832 254.654 70.7594 254.85C70.4304 254.867 70.3723 255.026 70.3547 255.32L70.4075 255.337C71.3049 257.914 72.3993 255.85 72.3993 255.85L72.6104 255.417C72.6351 255.431 72.7265 255.434 72.7037 255.401C73.3388 255.163 72.7794 254.144 73.36 253.889C73.6908 253.66 74.2626 253.259 74.1588 252.808C74.2467 252.535 74.6216 252.491 74.6515 252.199L74.5529 252.058C74.6426 252.058 74.6796 252.074 74.7043 252.011C74.6374 252.011 74.618 251.953 74.5899 251.912H74.7254C74.5371 251.775 75.1547 251.948 74.9453 251.812L74.8098 251.701C74.7799 250.957 75.6473 250.624 75.9042 249.992C75.8409 249.767 75.5911 249.506 75.6368 249.339L75.8339 249.455C75.95 249.388 75.6825 249.337 75.6755 249.193L75.8901 249.369L76.0485 249.193H75.9816C76.0127 249.152 76.0587 249.125 76.1095 249.119C76.1603 249.112 76.2117 249.125 76.2526 249.156C76.147 249.08 76.052 249.047 76.0996 248.956C76.3881 249.121 76.4849 249.005 76.5975 248.908C76.5605 248.89 76.5588 248.827 76.4937 248.832C77.0215 248.783 76.4515 248.257 76.9863 248.227L76.9494 248.208C76.872 247.892 77.2239 247.988 77.1904 247.669L77.3329 247.764C77.3399 247.693 77.3679 247.627 77.4134 247.572C77.459 247.518 77.5198 247.479 77.5881 247.46L77.53 247.444L77.5934 247.373L77.5564 247.354C77.6215 247.354 77.6092 247.243 77.7323 247.229L77.6954 247.211C77.6567 247.129 77.7288 247.102 77.815 247.093L77.7235 246.972C77.9769 246.949 77.8784 246.634 78.1547 246.65C78.3435 246.447 78.5077 246.223 78.6438 245.981C79.0414 245.557 78.8408 245.277 79.0467 244.749C79.469 244.274 80.0162 244.281 79.9687 243.647C79.9669 243.632 80.0743 242.481 78.2532 242.957Z" fill="black"/>
<path d="M102.923 229.375L102.913 229.349L102.923 229.375Z" fill="black"/>
<path d="M101.479 235.011L101.585 234.993C101.537 234.972 101.506 234.985 101.479 235.011Z" fill="black"/>
<path d="M101.527 235.238C101.503 235.206 101.487 235.169 101.48 235.129C101.473 235.09 101.476 235.05 101.488 235.011H101.458L101.449 234.862C100.985 234.862 100.921 234.237 100.504 234.279C100.564 234.351 100.738 234.378 100.661 234.513L100.434 234.337C100.513 234.434 100.547 234.566 100.452 234.636C100.174 234.307 99.876 233.994 99.5594 233.702C99.4345 233.878 99.2603 233.573 99.0316 233.624C99.0581 233.615 99.0801 233.596 99.0932 233.572C99.1671 233.595 99.2111 233.572 99.0932 233.456C99.0891 233.465 99.0824 233.474 99.0738 233.48C99.0579 233.447 99.0512 233.411 99.0545 233.375C98.9014 233.375 98.8961 233.429 98.9383 233.477C98.8556 233.427 98.7747 233.353 98.7853 233.503C98.5231 233.434 98.6621 233.151 98.5689 233.026C98.3311 232.906 98.1089 232.757 97.9073 232.582L97.9337 232.637C97.8228 232.612 97.6909 232.759 97.5308 232.621C97.7261 231.963 97.0697 232.331 96.7829 231.917C96.9431 231.761 96.6932 231.72 96.7971 231.585C96.3132 231.532 96.2111 231.014 95.7009 230.905L95.7132 230.935C95.5161 231.006 95.2909 230.729 95.2716 230.539C95.2504 230.715 95.0164 230.632 95.0234 230.793C95.0481 230.555 94.624 230.416 94.624 230.416C94.4481 230.544 94.2722 230.217 94.0188 230.24L93.9237 229.888L93.915 230.087C93.8077 229.995 93.7197 230.087 93.7284 230.185C93.6598 230.185 93.6634 230.111 93.5965 230.038L93.5613 230.18C93.3853 230.148 93.4962 229.814 93.6018 229.906C93.4997 229.388 93.3255 229.971 93.2006 229.554L93.2499 229.348C93.0299 229.031 92.9578 229.594 92.7572 229.24L92.6727 229.36C92.6112 229.284 92.5302 229.244 92.6428 229.115C92.3201 228.998 91.9856 228.916 91.6452 228.871C91.4921 228.726 91.7789 228.8 91.7526 228.649C91.6716 228.355 91.4834 228.538 91.2757 228.503L91.3989 228.404L91.0206 228.262L91.0083 228.394L90.7672 228.274C90.7532 228.151 90.8428 228.22 90.9431 228.221C90.6739 228.11 90.6828 227.63 90.2957 227.714L90.2517 227.853C90.2711 227.818 90.3097 227.838 90.322 227.866C90.454 228.218 90.067 227.878 90.0019 227.961C90.023 227.764 89.7291 227.755 89.7573 227.493C89.152 227.514 89.0534 226.908 88.6153 226.877C88.6417 227.03 88.4587 226.892 88.4042 227.003C88.2089 227.003 88.3866 226.787 88.2282 226.736L88.0083 226.833C87.8429 226.405 87.6564 226.936 87.4224 226.657C87.3591 226.326 86.8699 226.567 86.7186 226.167L86.6359 226.287C86.4775 226.048 86.2207 226.22 86.0869 226.037C85.9638 226.137 86.0869 226.132 85.9901 226.289C85.8722 226.069 85.8793 226.583 85.8424 226.366C85.6471 226.366 85.6084 226.102 85.5644 225.854L85.084 226.627L84.6318 227.357C84.8609 227.507 85.1195 227.606 85.3902 227.647C85.8987 227.878 86.1327 228.365 86.6482 228.527L86.8505 228.468C86.8945 228.582 86.877 228.619 86.9966 228.679C86.9632 228.593 87.0617 228.596 87.1198 228.578L87.1866 228.755C87.345 228.579 87.3027 229.282 87.4505 229.073L87.586 228.953C88.8617 229.242 89.8013 230.476 91.0012 231.065C91.3637 231.085 91.705 230.889 92.0165 231.018L91.8968 231.211C92.0622 231.387 92.0376 231.074 92.2856 231.129L92.0692 231.321L92.4335 231.593L92.4 231.509C92.5302 231.597 92.6516 231.738 92.576 231.861C92.664 231.764 92.6816 231.66 92.8593 231.759C92.6939 232.047 92.9349 232.22 93.1496 232.405C93.1654 232.366 93.2763 232.391 93.2376 232.306C93.542 232.98 94.2158 232.505 94.4921 233.186L94.5079 233.147C95.0217 233.19 95.0041 233.587 95.5425 233.686L95.4387 233.822C95.6916 233.904 95.9128 234.063 96.0721 234.276V234.21L96.2217 234.32L96.2375 234.281C96.2744 234.365 96.454 234.397 96.5314 234.566L96.5454 234.527C96.6721 234.515 96.7495 234.617 96.8023 234.73L96.9783 234.666C97.1261 234.995 97.6275 235.018 97.7172 235.349C98.1524 235.677 98.6066 235.979 99.0774 236.254C99.5313 236.597 100.049 236.845 100.601 236.984V236.984L101.803 235.048C101.68 235.015 101.632 235.159 101.527 235.238Z" fill="black"/>
<path d="M16.2893 347.232V347.244V347.267L16.3562 347.294L16.2893 347.232Z" fill="black"/>
<path d="M105.674 228.633C105.388 228.3 105.083 227.985 104.759 227.69C104.634 227.866 104.455 227.559 104.231 227.61C104.27 227.593 104.287 227.575 104.293 227.558C104.368 227.58 104.412 227.557 104.293 227.441C104.293 227.454 104.28 227.457 104.275 227.466C104.258 227.433 104.25 227.396 104.252 227.359C104.099 227.359 104.092 227.413 104.138 227.462C104.052 227.411 103.962 227.337 103.981 227.487C103.716 227.417 103.853 227.135 103.758 227.007C103.516 226.884 103.289 226.734 103.082 226.558L103.109 226.614C102.996 226.588 102.864 226.734 102.7 226.595C102.892 225.935 102.229 226.301 101.935 225.88C102.095 225.724 101.842 225.683 101.946 225.548C101.453 225.493 101.344 224.972 100.827 224.859L100.839 224.889C100.638 224.96 100.41 224.68 100.387 224.49C100.367 224.666 100.13 224.583 100.139 224.743C100.16 224.506 99.7286 224.363 99.7286 224.363C99.5527 224.492 99.3767 224.162 99.1128 224.187L99.0125 223.835V224.034C98.9034 223.941 98.8154 224.034 98.826 224.132C98.7556 224.132 98.7574 224.059 98.6905 223.985L98.6571 224.127C98.4811 224.094 98.5849 223.758 98.694 223.851C98.5849 223.332 98.4143 223.914 98.2823 223.499L98.3315 223.293C98.1046 222.974 98.0377 223.539 97.8301 223.184L97.7457 223.304C97.6823 223.226 97.6014 223.186 97.714 223.057C97.3856 222.938 97.0452 222.854 96.6988 222.807C96.5422 222.661 96.8325 222.735 96.8043 222.584C96.7199 222.288 96.5298 222.471 96.3204 222.436L96.4436 222.336L96.0583 222.191L96.0477 222.323L95.8032 222.202C95.7856 222.079 95.8788 222.147 95.9791 222.151C95.7064 222.038 95.7082 221.556 95.3175 221.639L95.2753 221.779C95.2929 221.742 95.3334 221.762 95.3457 221.79C95.4829 222.142 95.0888 221.802 95.0237 221.885C95.0413 221.686 94.7439 221.677 94.7686 221.413C94.1562 221.433 94.0419 220.822 93.6038 220.79C93.6337 220.942 93.4471 220.804 93.3926 220.917C93.1955 220.917 93.3715 220.697 93.2167 220.646L92.9932 220.743C92.8173 220.312 92.6413 220.845 92.3985 220.567C92.3299 220.234 91.839 220.474 91.6771 220.072L91.5944 220.192C91.4326 219.951 91.1739 220.121 91.0366 219.938C90.9117 220.039 91.0367 220.033 90.9399 220.19C90.8185 219.97 90.8308 220.486 90.7921 220.269C90.4402 220.269 90.5809 219.433 90.3064 219.324C90.1885 219.046 89.8472 219.201 89.761 219.129L89.5165 219.523L88.7915 220.692C89.2228 221.114 89.7603 221.411 90.3469 221.552C90.866 221.787 91.1088 222.277 91.6331 222.445L91.8372 222.385C91.8848 222.499 91.8672 222.536 91.9886 222.598C91.9534 222.512 92.0536 222.515 92.1117 222.498L92.1803 222.673C92.3404 222.497 92.3052 223.201 92.453 222.996L92.5885 222.876C93.8853 223.172 94.8513 224.414 96.0759 225.02C96.4419 225.041 96.7797 224.844 97.1034 224.976L96.9856 225.171C97.1615 225.347 97.1263 225.034 97.3779 225.088L97.1597 225.28L97.5328 225.556L97.4975 225.47C97.6313 225.56 97.7544 225.702 97.6735 225.822C97.7615 225.725 97.7791 225.62 97.9585 225.72C97.7949 226.01 98.043 226.185 98.2612 226.37C98.277 226.331 98.3896 226.357 98.3492 226.273C98.6641 226.95 99.3433 226.477 99.6318 227.165L99.6459 227.126C100.174 227.17 100.154 227.572 100.702 227.672L100.6 227.807C100.857 227.893 101.082 228.053 101.247 228.269V228.202L101.398 228.312L101.414 228.274C101.453 228.358 101.636 228.392 101.715 228.561L101.729 228.522C101.858 228.51 101.939 228.614 101.991 228.726L102.167 228.665C102.322 228.995 102.831 229.016 102.924 229.353C103.37 229.684 103.834 229.99 104.314 230.27C104.434 230.358 104.543 230.433 104.648 230.498L105.528 229.075L105.88 228.508L105.66 228.332C105.734 228.43 105.769 228.564 105.674 228.633Z" fill="black"/>
<path d="M89.8279 218.997V219.011L89.9123 219.043L89.8279 218.997Z" fill="black"/>
<path d="M97.7288 235.386L97.72 235.361L97.7288 235.386Z" fill="black"/>
</g>
<defs>
<clipPath id="clip0_1339_61333">
<rect width="393" height="440" fill="white"/>
</clipPath>
</defs>
</svg>
